<svg id="em3I8H4ktfT1" xmlns="http://www.w3.org/2000/svg" xmlns:xlink="http://www.w3.org/1999/xlink" viewBox="0 0 900 773" shape-rendering="geometricPrecision" text-rendering="geometricPrecision"><circle id="em3I8H4ktfT2" r="101.66" transform="translate(605.184912 118.924585)" fill="#ff6584"/><g id="em3I8H4ktfT3" transform="translate(.000023 42.12187)"><path d="M279.41927,503.482c0-90.45529,72.91389-163.78378,162.85773-163.78378s162.85773,73.3285,162.85773,163.78378-72.91389,163.78378-162.85773,163.78378-162.85773-73.3285-162.85773-163.78378Z" fill="#3f3d56"/><path d="M493.73979,580.41025c8.357571-10.005433,20.722753-15.788221,33.759535-15.788221s25.401964,5.782788,33.759535,15.788221c14.452757-13.797152,19.055323-35.000493,11.623571-53.548071s-25.402026-30.706301-45.383106-30.706301-37.951354,12.158724-45.383106,30.706301-2.829186,39.750919,11.623571,53.548071Z" transform="translate(-156.114-63.5846)" fill="#fff"/><path d="M625.74457,580.41025c8.357555-10.005434,20.722728-15.788224,33.7595-15.788224s25.401945,5.78279,33.7595,15.788224c14.452756-13.79714,19.055327-35.000471,11.623582-53.548042s-25.40201-30.706292-45.383082-30.706292-37.951337,12.158721-45.383082,30.706292-2.829174,39.750902,11.623582,53.548042Z" transform="translate(-156.114-63.5846)" fill="#fff"/><circle r="16.8179" transform="translate(354.707 464.814)" fill="#3f3d56"/><circle r="16.8179" transform="translate(486.707 464.814)" fill="#3f3d56"/><circle r="19.5563" transform="translate(322.495 545.039)" fill="#ff6584"/><circle r="19.5563" transform="translate(547.392 545.039)" fill="#ff6584"/><polygon points="434.943,505.926 420.276,569.484 444.721,545.039 434.943,505.926" fill="#ff6584"/><path d="M600.83528,388.61566c-4.56112,0-8.58481,3.543-11.27493,8.985-2.37112-8.18315-7.3527-13.874-13.1704-13.874-.395392.039304-.787687.1052-1.17422.19724-2.23625-8.737-7.43356-14.86444-13.493-14.86444-8.1005,0-14.6672,10.9446-14.6672,24.44533s6.5667,24.44533,14.6672,24.44533c.395392-.039307.787687-.105206,1.17422-.19725c2.23625,8.737,7.43356,14.86444,13.493,14.86444c4.56112,0,8.58481-3.543,11.27493-8.985c2.37113,8.18316,7.3527,13.874,13.1704,13.874c8.1005,0,14.6672-10.9446,14.6672-24.44533s-6.5667-24.44532-14.6672-24.44532Z" transform="translate(-156.114-63.5846)" fill="#3f3d56"/><path d="M393.47351,507.83307v0c12.966596,0,25.402114,5.15096,34.570882,14.319728s14.319728,21.604286,14.319728,34.570882v24.44543c0,12.966596-5.15096,25.402114-14.319728,34.570882s-21.604286,14.319728-34.570882,14.319728v0-122.22665Z" transform="matrix(-1 0 0-1 679.724 1074.31)" fill="#6c63ff"/><path d="M598.30346,444.24843v0c12.966598-.000013,25.402122,5.150936,34.5709,14.319696s14.319749,21.604276,14.31976,34.570874v24.44543c0,12.966596-5.15096,25.402114-14.319728,34.570882s-21.604286,14.319728-34.570882,14.319728v0-122.22661Z" fill="#6c63ff"/><path d="M780.03662,560.56514h-7.75712c0-98.37742-80.03569-178.41374-178.41374-178.41374-98.37742,0-178.41374,80.03632-178.41374,178.41374h-7.75712c0-102.655,83.51592-186.17086,186.17086-186.17086c102.65558,0,186.17086,83.51591,186.17086,186.17086Z" transform="translate(-156.114-63.5846)" fill="#6c63ff"/></g><polygon points="131.69,367.997 131.69,367.997 131.69,367.997 131.69,367.997" fill="#3f3d56"/><path id="em3I8H4ktfT17" d="M399.78108,456.95208c-7.564-4.32464-6.05044-13.815-6.05044-13.815-.19032-6.16526-5.284-5.29259-5.284-5.29259l-1.85385.4231c-.861184-.399687-1.809471-.575062-2.75664-.50981l-2.82.47452c6.42137,1.50877,5.89378,6.88051,5.89378,6.88051l.89964,6.281-16.82582-6.78775l1.93187-4.555c.26701-.420597.494789-.864849.68046-1.32715c1.3661-3.44946-1.21409-6.88051-3.65325-7.84645-2.43916-.96618-5.524,1.0471-6.89022,4.49643-1.34744,3.40232-.0305,7.7247,2.3464,8.769l-.002.00415l5.06157,2.10782.03769-.11936Zm-8.54443-11.036l.53956,6.012c-1.905136-2.673214-2.800132-5.935615-2.52575-9.20675-.044711-1.163567-.437235-2.287009-1.12688-3.22524c2.161704,1.384925,3.364303,3.865002,3.11307,6.41997Z" transform="translate(-148.2-61.3992)" fill="#3f3d56"/><path id="em3I8H4ktfT18" d="M99.973,327.475l.002-.004-5.062-2.108-21.154-8.223l5.339-4.75c2.17-2.894,6.237-3.56,9.217-1.51l-1.657-2.463c0,0-3.115-4.123-7.475.24c0,0-5.395,7.953-13.869,5.925l28.94,12.249.152.138-1.95,4.598c-.267.421-.495.865-.68,1.328-1.367,3.449,1.214,6.88,3.653,7.846s5.524-1.047,6.89-4.496c1.347-3.403.031-7.725-2.346-8.77Z" transform="matrix(1.21026 0 0 1.31254 30.0782-55.7957)" fill="#3f3d56"/><path id="em3I8H4ktfT19" d="M348.87976,341.126l-1.95027,4.59826c-.266952.420611-.494689.864862-.68034,1.32715-1.36622,3.44933,1.214,6.88039,3.65313,7.84645s5.52412-1.0471,6.89022-4.49643c1.34756-3.40232.03062-7.7247-2.34627-8.76915l.002-.004-5.06157-2.10794-17.31509-6.73091l9.89338-24.97992-1.46629-.58077-9.89716,24.98925-2.141-.83221l9.9356-25.0868.26178.11078l20.353,8.61438.152.13763L357.2127,319.76c-.266926.420626-.494662.864874-.68034,1.32715-1.36622,3.44946,1.214,6.88051,3.65313,7.84657s5.52412-1.0471,6.89022-4.49656c1.34756-3.40231.03062-7.72469-2.34628-8.769l.002-.00416-5.06157-2.10781-20.68475-8.74419v0l-.00088-.00038-.67088-.28358-7.65513-3.23608-10.87066,27.44744l28.9402,12.249Zm-18.809-38.35074" transform="matrix(.980185 0 0 1.02157-98.522021-34.29941)" fill="#3f3d56"/><path id="em3I8H4ktfT20" d="M86.666,97.647l.004-.007-8.713-3.629L41.541,79.855l9.191-8.177c0,0,6.113-8.483,15.866-2.599L63.746,64.84c0,0-5.362-7.099-12.868.411c0,0-9.287,13.691-23.874,10.201L76.823,96.538l.261.237-3.357,7.916c-.46.724-.852,1.489-1.171,2.285-2.352,5.937,2.09,11.844,6.288,13.507c4.199,1.663,9.51-1.803,11.862-7.741c2.319-5.857.052-13.297-4.04-15.095Z" transform="matrix(.984058 0.021952-.029169 1.30757 76.998008 27.899199)" fill="#3f3d56"/><path id="em3I8H4ktfT21" d="M113.406,255.885c-18.085-10.339-14.466-33.03-14.466-33.03-.455-14.741-12.633-12.654-12.633-12.654l-4.433,1.012c-2.059-.956-4.326-1.375-6.591-1.219l-6.742,1.134c15.353,3.608,14.091,16.451,14.091,16.451l2.151,15.017-40.229-16.229l4.619-10.891c.639-1.005,1.183-2.067,1.627-3.173c3.267-8.247-2.902-16.45-8.734-18.76s-13.208,2.504-16.474,10.751c-3.222,8.134-.073,18.469,5.61,20.966l-.005.01l12.102,5.039.09-.285l70.017,25.861ZM92.977,229.499l1.295,14.424c-7.596-10.083-6.043-22.062-6.043-22.062-.107-2.782-1.046-5.468-2.695-7.711c8.726,5.221,7.443,15.349,7.443,15.349v0Z" transform="translate(67.4401 57.427)" fill="#3f3d56"/><path id="em3I8H4ktfT22" d="M326.97,256.412l-1.95,4.599c-.267.42-.495.865-.68,1.327-1.367,3.449,1.214,6.88,3.653,7.846s5.524-1.047,6.89-4.496c1.348-3.402.031-7.725-2.346-8.769l.002-.004-5.062-2.108-17.315-6.731l9.893-24.98-1.466-.581-9.897,24.989-2.141-.832l9.936-25.087.261.111l20.353,8.615.152.137-1.95,4.598c-.267.421-.494.865-.68,1.328-1.366,3.449,1.214,6.88,3.653,7.846s5.524-1.047,6.89-4.496c1.348-3.403.031-7.725-2.346-8.769l.002-.005-5.062-2.107-20.684-8.745h-.001l-.671-.283-7.655-3.237-10.871,27.448l28.94,12.249.152.137Zm-18.809-38.35" transform="matrix(1.58111 0 0 1.32923-92.0934-85.9578)" fill="#3f3d56"/><path id="em3I8H4ktfT23" d="M259.881,195.354c-24.315-12.231-19.449-39.072-19.449-39.072-.612-17.437-16.986-14.969-16.986-14.969l-5.96,1.196c-2.768-1.129-5.816-1.626-8.86-1.442l-9.065,1.343c20.641,4.267,18.946,19.46,18.946,19.46l2.892,17.764-54.086-19.198l6.209-12.883c.859-1.189,1.59-2.446,2.187-3.753c4.392-9.756-3.902-19.459-11.742-22.192-7.841-2.732-17.758,2.961-22.149,12.718-4.332,9.622-.098,21.847,7.543,24.801l-.007.011l16.27,5.962.121-.338l94.136,30.592Zm-27.466-31.213l1.74,17.063c-10.213-11.928-8.125-26.098-8.125-26.098-.144-3.291-1.406-6.468-3.622-9.123c11.731,6.178,10.006,18.158,10.006,18.158h.001Z" transform="matrix(.948826 0 0 1.06782 81.395327 33.055058)" fill="#3f3d56"/><path id="em3I8H4ktfT24" d="M115.051,442.814c-17.696-10.655-14.155-34.037-14.155-34.037-.445-15.19-12.362-13.04-12.362-13.04l-4.338,1.041c-2.014-.983-4.232-1.416-6.448-1.256l-6.597,1.17c15.022,3.717,13.789,16.952,13.789,16.952l2.104,15.475-39.363-16.724L52.2,401.172c.625-1.035,1.157-2.13,1.592-3.269c3.196-8.499-2.84-16.951-8.546-19.332-5.707-2.38-12.924,2.579-16.12,11.079-3.153,8.382-.071,19.032,5.49,21.605l-.005.01l11.841,5.193.088-.294l68.511,26.65ZM95.062,415.623l1.266,14.864c-7.433-10.391-5.913-22.735-5.913-22.735-.105-2.867-1.024-5.634-2.636-7.947c8.537,5.382,7.282,15.818,7.282,15.818h.001Z" transform="matrix(1.55369 0 0 1.33761 23.5771-104.031)" fill="#3f3d56"/><path id="em3I8H4ktfT25" d="M268.463,321.754l-1.95,4.599c-.267.42-.495.865-.68,1.327-1.367,3.449,1.214,6.88,3.653,7.846s5.524-1.047,6.89-4.496c1.348-3.402.031-7.725-2.346-8.769l.002-.004-5.062-2.108-17.315-6.731l9.893-24.98-1.466-.581-9.897,24.989-2.141-.832l9.936-25.087.261.111l20.353,8.615.152.137-1.95,4.598c-.267.421-.494.865-.68,1.328-1.366,3.449,1.214,6.88,3.653,7.846s5.524-1.047,6.89-4.496c1.348-3.403.031-7.725-2.346-8.769l.002-.005-5.062-2.107-20.684-8.745h-.001l-.671-.283-7.655-3.237-10.871,27.448l28.94,12.249.152.137Zm-18.809-38.35" transform="matrix(1.038455-.016098 0.015671 1.010939 63.5677-189.916)" fill="#3f3d56"/><script><![CDATA[!function(t,n){"object"==typeof exports&&"undefined"!=typeof module?module.exports=n():"function"==typeof define&&define.amd?define(n):((t="undefined"!=typeof globalThis?globalThis:t||self).__SVGATOR_PLAYER__=t.__SVGATOR_PLAYER__||{},t.__SVGATOR_PLAYER__["5c7f360c"]=n())}(this,(function(){"use strict";function t(t,n){var e=Object.keys(t);if(Object.getOwnPropertySymbols){var r=Object.getOwnPropertySymbols(t);n&&(r=r.filter((function(n){return Object.getOwnPropertyDescriptor(t,n).enumerable}))),e.push.apply(e,r)}return e}function n(n){for(var e=1;e<arguments.length;e++){var r=null!=arguments[e]?arguments[e]:{};e%2?t(Object(r),!0).forEach((function(t){o(n,t,r[t])})):Object.getOwnPropertyDescriptors?Object.defineProperties(n,Object.getOwnPropertyDescriptors(r)):t(Object(r)).forEach((function(t){Object.defineProperty(n,t,Object.getOwnPropertyDescriptor(r,t))}))}return n}function e(t){return(e="function"==typeof Symbol&&"symbol"==typeof Symbol.iterator?function(t){return typeof t}:function(t){return t&&"function"==typeof Symbol&&t.constructor===Symbol&&t!==Symbol.prototype?"symbol":typeof t})(t)}function r(t,n){if(!(t instanceof n))throw new TypeError("Cannot call a class as a function")}function i(t,n){for(var e=0;e<n.length;e++){var r=n[e];r.enumerable=r.enumerable||!1,r.configurable=!0,"value"in r&&(r.writable=!0),Object.defineProperty(t,r.key,r)}}function u(t,n,e){return n&&i(t.prototype,n),e&&i(t,e),t}function o(t,n,e){return n in t?Object.defineProperty(t,n,{value:e,enumerable:!0,configurable:!0,writable:!0}):t[n]=e,t}function a(t){return(a=Object.setPrototypeOf?Object.getPrototypeOf:function(t){return t.__proto__||Object.getPrototypeOf(t)})(t)}function l(t,n){return(l=Object.setPrototypeOf||function(t,n){return t.__proto__=n,t})(t,n)}function s(){if("undefined"==typeof Reflect||!Reflect.construct)return!1;if(Reflect.construct.sham)return!1;if("function"==typeof Proxy)return!0;try{return Boolean.prototype.valueOf.call(Reflect.construct(Boolean,[],(function(){}))),!0}catch(t){return!1}}function f(t,n,e){return(f=s()?Reflect.construct:function(t,n,e){var r=[null];r.push.apply(r,n);var i=new(Function.bind.apply(t,r));return e&&l(i,e.prototype),i}).apply(null,arguments)}function c(t,n){if(n&&("object"==typeof n||"function"==typeof n))return n;if(void 0!==n)throw new TypeError("Derived constructors may only return object or undefined");return function(t){if(void 0===t)throw new ReferenceError("this hasn't been initialised - super() hasn't been called");return t}(t)}function h(t,n,e){return(h="undefined"!=typeof Reflect&&Reflect.get?Reflect.get:function(t,n,e){var r=function(t,n){for(;!Object.prototype.hasOwnProperty.call(t,n)&&null!==(t=a(t)););return t}(t,n);if(r){var i=Object.getOwnPropertyDescriptor(r,n);return i.get?i.get.call(e):i.value}})(t,n,e||t)}function v(t){return function(t){if(Array.isArray(t))return y(t)}(t)||function(t){if("undefined"!=typeof Symbol&&null!=t[Symbol.iterator]||null!=t["@@iterator"])return Array.from(t)}(t)||function(t,n){if(!t)return;if("string"==typeof t)return y(t,n);var e=Object.prototype.toString.call(t).slice(8,-1);"Object"===e&&t.constructor&&(e=t.constructor.name);if("Map"===e||"Set"===e)return Array.from(t);if("Arguments"===e||/^(?:Ui|I)nt(?:8|16|32)(?:Clamped)?Array$/.test(e))return y(t,n)}(t)||function(){throw new TypeError("Invalid attempt to spread non-iterable instance.\nIn order to be iterable, non-array objects must have a [Symbol.iterator]() method.")}()}function y(t,n){(null==n||n>t.length)&&(n=t.length);for(var e=0,r=new Array(n);e<n;e++)r[e]=t[e];return r}Number.isInteger||(Number.isInteger=function(t){return"number"==typeof t&&isFinite(t)&&Math.floor(t)===t}),Number.EPSILON||(Number.EPSILON=2220446049250313e-31);var g=d(Math.pow(10,-6));function d(t){var n=arguments.length>1&&void 0!==arguments[1]?arguments[1]:6;if(Number.isInteger(t))return t;var e=Math.pow(10,n);return Math.round((+t+Number.EPSILON)*e)/e}function p(t,n){var e=arguments.length>2&&void 0!==arguments[2]?arguments[2]:g;return Math.abs(t-n)<e}var m=Math.PI/180;function b(t){return t}function w(t,n,e){var r=1-e;return 3*e*r*(t*r+n*e)+e*e*e}function x(){var t=arguments.length>0&&void 0!==arguments[0]?arguments[0]:0,n=arguments.length>1&&void 0!==arguments[1]?arguments[1]:0,e=arguments.length>2&&void 0!==arguments[2]?arguments[2]:1,r=arguments.length>3&&void 0!==arguments[3]?arguments[3]:1;return t<0||t>1||e<0||e>1?null:p(t,n)&&p(e,r)?b:function(i){if(i<=0)return t>0?i*n/t:0===n&&e>0?i*r/e:0;if(i>=1)return e<1?1+(i-1)*(r-1)/(e-1):1===e&&t<1?1+(i-1)*(n-1)/(t-1):1;for(var u,o=0,a=1;o<a;){var l=w(t,e,u=(o+a)/2);if(p(i,l))break;l<i?o=u:a=u}return w(n,r,u)}}function A(){return 1}function k(t){return 1===t?1:0}function _(){var t=arguments.length>0&&void 0!==arguments[0]?arguments[0]:1,n=arguments.length>1&&void 0!==arguments[1]?arguments[1]:0;if(1===t){if(0===n)return k;if(1===n)return A}var e=1/t;return function(t){return t>=1?1:(t+=n*e)-t%e}}var S=Math.sin,O=Math.cos,j=Math.acos,M=Math.asin,P=Math.tan,E=Math.atan2,I=Math.PI/180,R=180/Math.PI,F=Math.sqrt,N=function(){function t(){var n=arguments.length>0&&void 0!==arguments[0]?arguments[0]:1,e=arguments.length>1&&void 0!==arguments[1]?arguments[1]:0,i=arguments.length>2&&void 0!==arguments[2]?arguments[2]:0,u=arguments.length>3&&void 0!==arguments[3]?arguments[3]:1,o=arguments.length>4&&void 0!==arguments[4]?arguments[4]:0,a=arguments.length>5&&void 0!==arguments[5]?arguments[5]:0;r(this,t),this.m=[n,e,i,u,o,a],this.i=null,this.w=null,this.s=null}return u(t,[{key:"determinant",get:function(){var t=this.m;return t[0]*t[3]-t[1]*t[2]}},{key:"isIdentity",get:function(){if(null===this.i){var t=this.m;this.i=1===t[0]&&0===t[1]&&0===t[2]&&1===t[3]&&0===t[4]&&0===t[5]}return this.i}},{key:"point",value:function(t,n){var e=this.m;return{x:e[0]*t+e[2]*n+e[4],y:e[1]*t+e[3]*n+e[5]}}},{key:"translateSelf",value:function(){var t=arguments.length>0&&void 0!==arguments[0]?arguments[0]:0,n=arguments.length>1&&void 0!==arguments[1]?arguments[1]:0;if(!t&&!n)return this;var e=this.m;return e[4]+=e[0]*t+e[2]*n,e[5]+=e[1]*t+e[3]*n,this.w=this.s=this.i=null,this}},{key:"rotateSelf",value:function(){var t=arguments.length>0&&void 0!==arguments[0]?arguments[0]:0;if(t%=360){var n=S(t*=I),e=O(t),r=this.m,i=r[0],u=r[1];r[0]=i*e+r[2]*n,r[1]=u*e+r[3]*n,r[2]=r[2]*e-i*n,r[3]=r[3]*e-u*n,this.w=this.s=this.i=null}return this}},{key:"scaleSelf",value:function(){var t=arguments.length>0&&void 0!==arguments[0]?arguments[0]:1,n=arguments.length>1&&void 0!==arguments[1]?arguments[1]:1;if(1!==t||1!==n){var e=this.m;e[0]*=t,e[1]*=t,e[2]*=n,e[3]*=n,this.w=this.s=this.i=null}return this}},{key:"skewSelf",value:function(t,n){if(n%=360,(t%=360)||n){var e=this.m,r=e[0],i=e[1],u=e[2],o=e[3];t&&(t=P(t*I),e[2]+=r*t,e[3]+=i*t),n&&(n=P(n*I),e[0]+=u*n,e[1]+=o*n),this.w=this.s=this.i=null}return this}},{key:"resetSelf",value:function(){var t=arguments.length>0&&void 0!==arguments[0]?arguments[0]:1,n=arguments.length>1&&void 0!==arguments[1]?arguments[1]:0,e=arguments.length>2&&void 0!==arguments[2]?arguments[2]:0,r=arguments.length>3&&void 0!==arguments[3]?arguments[3]:1,i=arguments.length>4&&void 0!==arguments[4]?arguments[4]:0,u=arguments.length>5&&void 0!==arguments[5]?arguments[5]:0,o=this.m;return o[0]=t,o[1]=n,o[2]=e,o[3]=r,o[4]=i,o[5]=u,this.w=this.s=this.i=null,this}},{key:"recomposeSelf",value:function(){var t=arguments.length>0&&void 0!==arguments[0]?arguments[0]:null,n=arguments.length>1&&void 0!==arguments[1]?arguments[1]:null,e=arguments.length>2&&void 0!==arguments[2]?arguments[2]:null,r=arguments.length>3&&void 0!==arguments[3]?arguments[3]:null,i=arguments.length>4&&void 0!==arguments[4]?arguments[4]:null;return this.isIdentity||this.resetSelf(),t&&(t.x||t.y)&&this.translateSelf(t.x,t.y),n&&this.rotateSelf(n),e&&(e.x&&this.skewSelf(e.x,0),e.y&&this.skewSelf(0,e.y)),!r||1===r.x&&1===r.y||this.scaleSelf(r.x,r.y),i&&(i.x||i.y)&&this.translateSelf(i.x,i.y),this}},{key:"decompose",value:function(){var t=arguments.length>0&&void 0!==arguments[0]?arguments[0]:0,n=arguments.length>1&&void 0!==arguments[1]?arguments[1]:0,e=this.m,r=e[0]*e[0]+e[1]*e[1],i=[[e[0],e[1]],[e[2],e[3]]],u=F(r);if(0===u)return{origin:{x:d(e[4]),y:d(e[5])},translate:{x:d(t),y:d(n)},scale:{x:0,y:0},skew:{x:0,y:0},rotate:0};i[0][0]/=u,i[0][1]/=u;var o=e[0]*e[3]-e[1]*e[2]<0;o&&(u=-u);var a=i[0][0]*i[1][0]+i[0][1]*i[1][1];i[1][0]-=i[0][0]*a,i[1][1]-=i[0][1]*a;var l=F(i[1][0]*i[1][0]+i[1][1]*i[1][1]);if(0===l)return{origin:{x:d(e[4]),y:d(e[5])},translate:{x:d(t),y:d(n)},scale:{x:d(u),y:0},skew:{x:0,y:0},rotate:0};i[1][0]/=l,i[1][1]/=l,a/=l;var s=0;return i[1][1]<0?(s=j(i[1][1])*R,i[0][1]<0&&(s=360-s)):s=M(i[0][1])*R,o&&(s=-s),a=E(a,F(i[0][0]*i[0][0]+i[0][1]*i[0][1]))*R,o&&(a=-a),{origin:{x:d(e[4]),y:d(e[5])},translate:{x:d(t),y:d(n)},scale:{x:d(u),y:d(l)},skew:{x:d(a),y:0},rotate:d(s)}}},{key:"clone",value:function(){var t=this.m;return new this.constructor(t[0],t[1],t[2],t[3],t[4],t[5])}},{key:"toString",value:function(){var t=arguments.length>0&&void 0!==arguments[0]?arguments[0]:" ";if(null===this.s){var n=this.m.map((function(t){return d(t)}));1===n[0]&&0===n[1]&&0===n[2]&&1===n[3]?this.s="translate("+n[4]+t+n[5]+")":this.s="matrix("+n.join(t)+")"}return this.s}}],[{key:"create",value:function(t){return t?Array.isArray(t)?f(this,v(t)):t instanceof this?t.clone():(new this).recomposeSelf(t.origin,t.rotate,t.skew,t.scale,t.translate):new this}}]),t}();function T(t,n,e){return t>=.5?e:n}function q(t,n,e){return 0===t||n===e?n:t*(e-n)+n}function B(t,n,e){var r=q(t,n,e);return r<=0?0:r}function L(t,n,e){var r=q(t,n,e);return r<=0?0:r>=1?1:r}function C(t,n,e){return 0===t?n:1===t?e:{x:q(t,n.x,e.x),y:q(t,n.y,e.y)}}function D(t,n,e){var r=function(t,n,e){return Math.round(q(t,n,e))}(t,n,e);return r<=0?0:r>=255?255:r}function z(t,n,e){return 0===t?n:1===t?e:{r:D(t,n.r,e.r),g:D(t,n.g,e.g),b:D(t,n.b,e.b),a:q(t,null==n.a?1:n.a,null==e.a?1:e.a)}}function V(t,n){for(var e=[],r=0;r<t;r++)e.push(n);return e}function G(t,n){if(--n<=0)return t;var e=(t=Object.assign([],t)).length;do{for(var r=0;r<e;r++)t.push(t[r])}while(--n>0);return t}var Y,$=function(){function t(n){r(this,t),this.list=n,this.length=n.length}return u(t,[{key:"setAttribute",value:function(t,n){for(var e=this.list,r=0;r<this.length;r++)e[r].setAttribute(t,n)}},{key:"removeAttribute",value:function(t){for(var n=this.list,e=0;e<this.length;e++)n[e].removeAttribute(t)}},{key:"style",value:function(t,n){for(var e=this.list,r=0;r<this.length;r++)e[r].style[t]=n}}]),t}(),U=/-./g,Q=function(t,n){return n.toUpperCase()};function H(t){return"function"==typeof t?t:T}function J(t){return t?"function"==typeof t?t:Array.isArray(t)?function(t){var n=arguments.length>1&&void 0!==arguments[1]?arguments[1]:b;if(!Array.isArray(t))return n;switch(t.length){case 1:return _(t[0])||n;case 2:return _(t[0],t[1])||n;case 4:return x(t[0],t[1],t[2],t[3])||n}return n}(t,null):function(t,n){var e=arguments.length>2&&void 0!==arguments[2]?arguments[2]:b;switch(t){case"linear":return b;case"steps":return _(n.steps||1,n.jump||0)||e;case"bezier":case"cubic-bezier":return x(n.x1||0,n.y1||0,n.x2||0,n.y2||0)||e}return e}(t.type,t.value,null):null}function Z(t,n,e){var r=arguments.length>3&&void 0!==arguments[3]&&arguments[3],i=n.length-1;if(t<=n[0].t)return r?[0,0,n[0].v]:n[0].v;if(t>=n[i].t)return r?[i,1,n[i].v]:n[i].v;var u,o=n[0],a=null;for(u=1;u<=i;u++){if(!(t>n[u].t)){a=n[u];break}o=n[u]}return null==a?r?[i,1,n[i].v]:n[i].v:o.t===a.t?r?[u,1,a.v]:a.v:(t=(t-o.t)/(a.t-o.t),o.e&&(t=o.e(t)),r?[u,t,e(t,o.v,a.v)]:e(t,o.v,a.v))}function K(t,n){var e=arguments.length>2&&void 0!==arguments[2]?arguments[2]:null;return t&&t.length?"function"!=typeof n?null:("function"!=typeof e&&(e=null),function(r){var i=Z(r,t,n);return null!=i&&e&&(i=e(i)),i}):null}function W(t,n){return t.t-n.t}function X(t,n,r,i,u){var o,a="@"===r[0],l="#"===r[0],s=Y[r],f=T;switch(a?(o=r.substr(1),r=o.replace(U,Q)):l&&(r=r.substr(1)),e(s)){case"function":if(f=s(i,u,Z,J,r,a,n,t),l)return f;break;case"string":f=K(i,H(s));break;case"object":if((f=K(i,H(s.i),s.f))&&"function"==typeof s.u)return s.u(n,f,r,a,t)}return f?function(t,n,e){if(arguments.length>3&&void 0!==arguments[3]&&arguments[3])return t instanceof $?function(r){return t.style(n,e(r))}:function(r){return t.style[n]=e(r)};if(Array.isArray(n)){var r=n.length;return function(i){var u=e(i);if(null==u)for(var o=0;o<r;o++)t[o].removeAttribute(n);else for(var a=0;a<r;a++)t[a].setAttribute(n,u)}}return function(r){var i=e(r);null==i?t.removeAttribute(n):t.setAttribute(n,i)}}(n,r,f,a):null}function tt(t,n,r,i){if(!i||"object"!==e(i))return null;var u=null,o=null;return Array.isArray(i)?o=function(t){if(!t||!t.length)return null;for(var n=0;n<t.length;n++)t[n].e&&(t[n].e=J(t[n].e));return t.sort(W)}(i):(o=i.keys,u=i.data||null),o?X(t,n,r,o,u):null}function nt(t,n,e){if(!e)return null;var r=[];for(var i in e)if(e.hasOwnProperty(i)){var u=tt(t,n,i,e[i]);u&&r.push(u)}return r.length?r:null}function et(t,n){if(!n.settings.duration||n.settings.duration<0)return null;var e,r,i,u,o,a=function(t,n){if(!n)return null;var e=[];if(Array.isArray(n))for(var r=n.length,i=0;i<r;i++){var u=n[i];if(2===u.length){var o=null;if("string"==typeof u[0])o=t.getElementById(u[0]);else if(Array.isArray(u[0])){o=[];for(var a=0;a<u[0].length;a++)if("string"==typeof u[0][a]){var l=t.getElementById(u[0][a]);l&&o.push(l)}o=o.length?1===o.length?o[0]:new $(o):null}if(o){var s=nt(t,o,u[1]);s&&(e=e.concat(s))}}}else for(var f in n)if(n.hasOwnProperty(f)){var c=t.getElementById(f);if(c){var h=nt(t,c,n[f]);h&&(e=e.concat(h))}}return e.length?e:null}(t,n.elements);return a?(e=a,r=n.settings,i=r.duration,u=e.length,o=null,function(t,n){var a=r.iterations||1/0,l=(r.alternate&&a%2==0)^r.direction>0?i:0,s=t%i,f=1+(t-s)/i;n*=r.direction,r.alternate&&f%2==0&&(n=-n);var c=!1;if(f>a)s=l,c=!0,-1===r.fill&&(s=r.direction>0?0:i);else if(n<0&&(s=i-s),s===o)return!1;o=s;for(var h=0;h<u;h++)e[h](s);return c}):null}function rt(t,n){if(Y=n,!t||!t.root||!Array.isArray(t.animations))return null;var e=function(t){for(var n=document.getElementsByTagName("svg"),e=0;e<n.length;e++)if(n[e].id===t.root&&!n[e].svgatorAnimation)return n[e].svgatorAnimation=!0,n[e];return null}(t);if(!e)return null;var r=t.animations.map((function(t){return et(e,t)})).filter((function(t){return!!t}));return r.length?{svg:e,animations:r,animationSettings:t.animationSettings,options:t.options||void 0}:null}function it(t){return+("0x"+(t.replace(/[^0-9a-fA-F]+/g,"")||27))}function ut(t,n,e){return!t||!e||n>t.length?t:t.substring(0,n)+ut(t.substring(n+1),e,e)}function ot(t){var n=arguments.length>1&&void 0!==arguments[1]?arguments[1]:27;return!t||t%n?t%n:ot(t/n,n)}function at(t,n,e){if(t&&t.length){var r=it(e),i=it(n),u=ot(r)+5,o=ut(t,ot(r,5),u);return o=o.replace(/\x7c$/g,"==").replace(/\x2f$/g,"="),o=function(t,n,e){var r=+("0x"+t.substring(0,4));t=t.substring(4);for(var i=n%r+e%27,u=[],o=0;o<t.length;o+=2)if("|"!==t[o]){var a=+("0x"+t[o]+t[o+1])-i;u.push(a)}else{var l=+("0x"+t.substring(o+1,o+1+4))-i;o+=3,u.push(l)}return String.fromCharCode.apply(String,u)}(o=(o=atob(o)).replace(/[\x41-\x5A]/g,""),i,r),o=JSON.parse(o)}}var lt=[{key:"alternate",def:!1},{key:"fill",def:1},{key:"iterations",def:0},{key:"direction",def:1},{key:"speed",def:1},{key:"fps",def:100}],st=function(){function t(n,e){var i=this,u=arguments.length>2&&void 0!==arguments[2]?arguments[2]:null;r(this,t),this._id=0,this._running=!1,this._rollingBack=!1,this._animations=n,this._settings=e,(!u||u<"2022-05-02")&&delete this._settings.speed,lt.forEach((function(t){i._settings[t.key]=i._settings[t.key]||t.def})),this.duration=e.duration,this.offset=e.offset||0,this.rollbackStartOffset=0}return u(t,[{key:"alternate",get:function(){return this._settings.alternate}},{key:"fill",get:function(){return this._settings.fill}},{key:"iterations",get:function(){return this._settings.iterations}},{key:"direction",get:function(){return this._settings.direction}},{key:"speed",get:function(){return this._settings.speed}},{key:"fps",get:function(){return this._settings.fps}},{key:"maxFiniteDuration",get:function(){return this.iterations>0?this.iterations*this.duration:this.duration}},{key:"_apply",value:function(t){for(var n=arguments.length>1&&void 0!==arguments[1]?arguments[1]:{},e=this._animations,r=e.length,i=0,u=0;u<r;u++)n[u]?i++:(n[u]=e[u](t,1),n[u]&&i++);return i}},{key:"_rollback",value:function(t){var n=this,e=1/0,r=null;this.rollbackStartOffset=t,this._rollingBack=!0,this._running=!0;this._id=window.requestAnimationFrame((function i(u){if(n._rollingBack){null==r&&(r=u);var o=Math.round(t-(u-r)*n.speed);if(o>n.duration&&e!==1/0){var a=!!n.alternate&&o/n.duration%2>1,l=o%n.duration;o=(l+=a?n.duration:0)||n.duration}var s=(n.fps?1e3/n.fps:0)*n.speed,f=Math.max(0,o);f<e-s&&(n.offset=f,e=f,n._apply(f));var c=n.iterations>0&&-1===n.fill&&o>=n.maxFiniteDuration;(o<=0||n.offset<o||c)&&n.stop(),n._id=window.requestAnimationFrame(i)}}))}},{key:"_start",value:function(){var t=this,n=arguments.length>0&&void 0!==arguments[0]?arguments[0]:0,e=-1/0,r=null,i={};this._running=!0;var u=function u(o){null==r&&(r=o);var a=Math.round((o-r)*t.speed+n),l=(t.fps?1e3/t.fps:0)*t.speed;if(a>e+l&&!t._rollingBack&&(t.offset=a,e=a,t._apply(a,i)===t._animations.length))return void t.pause(!0);t._id=window.requestAnimationFrame(u)};this._id=window.requestAnimationFrame(u)}},{key:"_pause",value:function(){this._id&&window.cancelAnimationFrame(this._id),this._running=!1}},{key:"play",value:function(){if(!this._running)return this._rollingBack?this._rollback(this.offset):this._start(this.offset)}},{key:"stop",value:function(){this._pause(),this.offset=0,this.rollbackStartOffset=0,this._rollingBack=!1,this._apply(0)}},{key:"reachedToEnd",value:function(){return this.iterations>0&&this.offset>=this.iterations*this.duration}},{key:"restart",value:function(){var t=arguments.length>0&&void 0!==arguments[0]&&arguments[0];this.stop(t),this.play(t)}},{key:"pause",value:function(){this._pause()}},{key:"reverse",value:function(){this.direction=-this.direction}}],[{key:"build",value:function(t,n){delete t.animationSettings,t.options=at(t.options,t.root,"5c7f360c"),t.animations.map((function(n){n.settings=at(n.s,t.root,"5c7f360c"),delete n.s,t.animationSettings||(t.animationSettings=n.settings)}));var e=t.version;if(!(t=rt(t,n)))return null;var r=t.options||{},i=new this(t.animations,t.animationSettings,e);return{el:t.svg,options:r,player:i}}},{key:"push",value:function(t){return this.build(t)}},{key:"init",value:function(){var t=this,n=window.__SVGATOR_PLAYER__&&window.__SVGATOR_PLAYER__["5c7f360c"];Array.isArray(n)&&n.splice(0).forEach((function(n){return t.build(n)}))}}]),t}();function ft(t){return d(t)+""}function ct(t){var n=arguments.length>1&&void 0!==arguments[1]?arguments[1]:" ";return t&&t.length?t.map(ft).join(n):""}function ht(t){if(!t)return"transparent";if(null==t.a||t.a>=1){var n=function(t){return 1===(t=parseInt(t).toString(16)).length?"0"+t:t},e=function(t){return t.charAt(0)===t.charAt(1)},r=n(t.r),i=n(t.g),u=n(t.b);return e(r)&&e(i)&&e(u)&&(r=r.charAt(0),i=i.charAt(0),u=u.charAt(0)),"#"+r+i+u}return"rgba("+t.r+","+t.g+","+t.b+","+t.a+")"}function vt(t){return t?"url(#"+t+")":"none"}!function(){for(var t=0,n=["ms","moz","webkit","o"],e=0;e<n.length&&!window.requestAnimationFrame;++e)window.requestAnimationFrame=window[n[e]+"RequestAnimationFrame"],window.cancelAnimationFrame=window[n[e]+"CancelAnimationFrame"]||window[n[e]+"CancelRequestAnimationFrame"];window.requestAnimationFrame||(window.requestAnimationFrame=function(n){var e=Date.now(),r=Math.max(0,16-(e-t)),i=window.setTimeout((function(){n(e+r)}),r);return t=e+r,i},window.cancelAnimationFrame=window.clearTimeout)}();var yt={f:null,i:function(t,n,e){return 0===t?n:1===t?e:{x:B(t,n.x,e.x),y:B(t,n.y,e.y)}},u:function(t,n){return function(e){var r=n(e);t.setAttribute("rx",ft(r.x)),t.setAttribute("ry",ft(r.y))}}},gt={f:null,i:function(t,n,e){return 0===t?n:1===t?e:{width:B(t,n.width,e.width),height:B(t,n.height,e.height)}},u:function(t,n){return function(e){var r=n(e);t.setAttribute("width",ft(r.width)),t.setAttribute("height",ft(r.height))}}};Object.freeze({M:2,L:2,Z:0,H:1,V:1,C:6,Q:4,T:2,S:4,A:7});var dt={},pt=null;function mt(t){var n=function(){if(pt)return pt;if("object"!==("undefined"==typeof document?"undefined":e(document))||!document.createElementNS)return{};var t=document.createElementNS("http://www.w3.org/2000/svg","svg");return t&&t.style?(t.style.position="absolute",t.style.opacity="0.01",t.style.zIndex="-9999",t.style.left="-9999px",t.style.width="1px",t.style.height="1px",pt={svg:t}):{}}().svg;if(!n)return function(t){return null};var r=document.createElementNS(n.namespaceURI,"path");r.setAttributeNS(null,"d",t),r.setAttributeNS(null,"fill","none"),r.setAttributeNS(null,"stroke","none"),n.appendChild(r);var i=r.getTotalLength();return function(t){var n=r.getPointAtLength(i*t);return{x:n.x,y:n.y}}}function bt(t){return dt[t]?dt[t]:dt[t]=mt(t)}function wt(t,n,e,r){if(!t||!r)return!1;var i=["M",t.x,t.y];if(n&&e&&(i.push("C"),i.push(n.x),i.push(n.y),i.push(e.x),i.push(e.y)),n?!e:e){var u=n||e;i.push("Q"),i.push(u.x),i.push(u.y)}return n||e||i.push("L"),i.push(r.x),i.push(r.y),i.join(" ")}function xt(t,n,e,r){var i=arguments.length>4&&void 0!==arguments[4]?arguments[4]:1,u=wt(t,n,e,r),o=bt(u);try{return o(i)}catch(t){return null}}function At(t,n,e){return t+(n-t)*e}function kt(t,n,e){var r=arguments.length>3&&void 0!==arguments[3]&&arguments[3],i={x:At(t.x,n.x,e),y:At(t.y,n.y,e)};return r&&(i.a=_t(t,n)),i}function _t(t,n){return Math.atan2(n.y-t.y,n.x-t.x)}function St(t,n,e,r){var i=1-r;return i*i*t+2*i*r*n+r*r*e}function Ot(t,n,e,r){return 2*(1-r)*(n-t)+2*r*(e-n)}function jt(t,n,e,r){var i=arguments.length>4&&void 0!==arguments[4]&&arguments[4],u=xt(t,n,null,e,r);return u||(u={x:St(t.x,n.x,e.x,r),y:St(t.y,n.y,e.y,r)}),i&&(u.a=Mt(t,n,e,r)),u}function Mt(t,n,e,r){return Math.atan2(Ot(t.y,n.y,e.y,r),Ot(t.x,n.x,e.x,r))}function Pt(t,n,e,r,i){var u=i*i;return i*u*(r-t+3*(n-e))+3*u*(t+e-2*n)+3*i*(n-t)+t}function Et(t,n,e,r,i){var u=1-i;return 3*(u*u*(n-t)+2*u*i*(e-n)+i*i*(r-e))}function It(t,n,e,r,i){var u=arguments.length>5&&void 0!==arguments[5]&&arguments[5],o=xt(t,n,e,r,i);return o||(o={x:Pt(t.x,n.x,e.x,r.x,i),y:Pt(t.y,n.y,e.y,r.y,i)}),u&&(o.a=Rt(t,n,e,r,i)),o}function Rt(t,n,e,r,i){return Math.atan2(Et(t.y,n.y,e.y,r.y,i),Et(t.x,n.x,e.x,r.x,i))}function Ft(t,n,e){var r=arguments.length>3&&void 0!==arguments[3]&&arguments[3];if(Tt(n)){if(qt(e))return jt(n,e.start,e,t,r)}else if(Tt(e)){if(Bt(n))return jt(n,n.end,e,t,r)}else{if(Bt(n))return qt(e)?It(n,n.end,e.start,e,t,r):jt(n,n.end,e,t,r);if(qt(e))return jt(n,e.start,e,t,r)}return kt(n,e,t,r)}function Nt(t,n,e){var r=Ft(t,n,e,!0);return r.a=function(t){return arguments.length>1&&void 0!==arguments[1]&&arguments[1]?t+Math.PI:t}(r.a)/m,r}function Tt(t){return!t.type||"corner"===t.type}function qt(t){return null!=t.start&&!Tt(t)}function Bt(t){return null!=t.end&&!Tt(t)}var Lt=new N;var Ct={f:ft,i:q},Dt={f:ft,i:L};function zt(t,n,e){return t.map((function(t){return function(t,n,e){var r=t.v;if(!r||"g"!==r.t||r.s||!r.v||!r.r)return t;var i=e.getElementById(r.r),u=i&&i.querySelectorAll("stop")||[];return r.s=r.v.map((function(t,n){var e=u[n]&&u[n].getAttribute("offset");return{c:t,o:e=d(parseInt(e)/100)}})),delete r.v,t}(t,0,e)}))}var Vt={gt:"gradientTransform",c:{x:"cx",y:"cy"},rd:"r",f:{x:"x1",y:"y1"},to:{x:"x2",y:"y2"}};function Gt(t,n,r,i,u,o,a,l){return zt(t,0,l),n=function(t,n,e){for(var r,i,u,o=t.length-1,a={},l=0;l<=o;l++)(r=t[l]).e&&(r.e=n(r.e)),r.v&&"g"===(i=r.v).t&&i.r&&(u=e.getElementById(i.r))&&(a[i.r]={e:u,s:u.querySelectorAll("stop")});return a}(t,i,l),function(i){var u=r(i,t,Yt);if(!u)return"none";if("c"===u.t)return ht(u.v);if("g"===u.t){if(!n[u.r])return vt(u.r);var o=n[u.r];return function(t,n){for(var e=t.s,r=e.length;r<n.length;r++){var i=e[e.length-1].cloneNode();i.id=Qt(i.id),t.e.appendChild(i),e=t.s=t.e.querySelectorAll("stop")}for(var u=0,o=e.length,a=n.length-1;u<o;u++)e[u].setAttribute("stop-color",ht(n[Math.min(u,a)].c)),e[u].setAttribute("offset",n[Math.min(u,a)].o)}(o,u.s),Object.keys(Vt).forEach((function(t){if(void 0!==u[t])if("object"!==e(Vt[t])){var n,r="gt"===t?(n=u[t],Array.isArray(n)?"matrix("+n.join(" ")+")":""):u[t],i=Vt[t];o.e.setAttribute(i,r)}else Object.keys(Vt[t]).forEach((function(n){if(void 0!==u[t][n]){var e=u[t][n],r=Vt[t][n];o.e.setAttribute(r,e)}}))})),vt(u.r)}return"none"}}function Yt(t,e,r){if(0===t)return e;if(1===t)return r;if(e&&r){var i=e.t;if(i===r.t)switch(e.t){case"c":return{t:i,v:z(t,e.v,r.v)};case"g":if(e.r===r.r){var u={t:i,s:$t(t,e.s,r.s),r:e.r};return e.gt&&r.gt&&(u.gt=function(t,n,e){var r=n.length;if(r!==e.length)return T(t,n,e);for(var i=new Array(r),u=0;u<r;u++)i[u]=q(t,n[u],e[u]);return i}(t,e.gt,r.gt)),e.c?(u.c=C(t,e.c,r.c),u.rd=B(t,e.rd,r.rd)):e.f&&(u.f=C(t,e.f,r.f),u.to=C(t,e.to,r.to)),u}}if("c"===e.t&&"g"===r.t||"c"===r.t&&"g"===e.t){var o="c"===e.t?e:r,a="g"===e.t?n({},e):n({},r),l=a.s.map((function(t){return{c:o.v,o:t.o}}));return a.s="c"===e.t?$t(t,l,a.s):$t(t,a.s,l),a}}return T(t,e,r)}function $t(t,n,e){if(n.length===e.length)return n.map((function(n,r){return Ut(t,n,e[r])}));for(var r=Math.max(n.length,e.length),i=[],u=0;u<r;u++){var o=Ut(t,n[Math.min(u,n.length-1)],e[Math.min(u,e.length-1)]);i.push(o)}return i}function Ut(t,n,e){return{o:L(t,n.o,e.o||0),c:z(t,n.c,e.c||{})}}function Qt(t){return t.replace(/-fill-([0-9]+)$/,(function(t,n){return"-fill-"+(+n+1)}))}var Ht={fill:Gt,"fill-opacity":Dt,stroke:Gt,"stroke-opacity":Dt,"stroke-width":Ct,"stroke-dashoffset":{f:ft,i:q},"stroke-dasharray":{f:function(t){var n=arguments.length>1&&void 0!==arguments[1]?arguments[1]:" ";return t&&t.length>0&&(t=t.map((function(t){return d(t,4)}))),ct(t,n)},i:function(t,n,e){var r,i,u,o=n.length,a=e.length;if(o!==a)if(0===o)n=V(o=a,0);else if(0===a)a=o,e=V(o,0);else{var l=(u=(r=o)*(i=a)/function(t,n){for(var e;n;)e=n,n=t%n,t=e;return t||1}(r,i))<0?-u:u;n=G(n,Math.floor(l/o)),e=G(e,Math.floor(l/a)),o=a=l}for(var s=[],f=0;f<o;f++)s.push(d(B(t,n[f],e[f])));return s}},opacity:Dt,transform:function(t,n,r,i){if(!(t=function(t,n){if(!t||"object"!==e(t))return null;var r=!1;for(var i in t)t.hasOwnProperty(i)&&(t[i]&&t[i].length?(t[i].forEach((function(t){t.e&&(t.e=n(t.e))})),r=!0):delete t[i]);return r?t:null}(t,i)))return null;var u=function(e,i,u){var o=arguments.length>3&&void 0!==arguments[3]?arguments[3]:null;return t[e]?r(i,t[e],u):n&&n[e]?n[e]:o};return n&&n.a&&t.o?function(n){var e=r(n,t.o,Nt);return Lt.recomposeSelf(e,u("r",n,q,0)+e.a,u("k",n,C),u("s",n,C),u("t",n,C)).toString()}:function(t){return Lt.recomposeSelf(u("o",t,Ft,null),u("r",t,q,0),u("k",t,C),u("s",t,C),u("t",t,C)).toString()}},r:Ct,"#size":gt,"#radius":yt,_:function(t,n){if(Array.isArray(t))for(var e=0;e<t.length;e++)this[t[e]]=n;else this[t]=n}},Jt=function(t){!function(t,n){if("function"!=typeof n&&null!==n)throw new TypeError("Super expression must either be null or a function");t.prototype=Object.create(n&&n.prototype,{constructor:{value:t,writable:!0,configurable:!0}}),n&&l(t,n)}(o,t);var n,e,i=(n=o,e=s(),function(){var t,r=a(n);if(e){var i=a(this).constructor;t=Reflect.construct(r,arguments,i)}else t=r.apply(this,arguments);return c(this,t)});function o(){return r(this,o),i.apply(this,arguments)}return u(o,null,[{key:"build",value:function(t){var n=h(a(o),"build",this).call(this,t,Ht);if(!n)return null;n.el,n.options,function(t,n,e){t.play()}(n.player)}}]),o}(st);return Jt.init(),Jt}));
(function(s,i,o,w,a,b){w[o]=w[o]||{};w[o][s]=w[o][s]||[];w[o][s].push(i);})('5c7f360c',{"root":"em3I8H4ktfT1","version":"2022-05-04","animations":[{"elements":{"em3I8H4ktfT2":{"transform":{"keys":{"o":[{"t":0,"v":{"x":605.184912,"y":118.924585,"type":"corner"}},{"t":5000,"v":{"x":887.77227,"y":118.924585,"type":"corner"}},{"t":10000,"v":{"x":605.184912,"y":118.924585,"type":"corner","start":{"x":605.184912,"y":118.924585},"end":{"x":605.184912,"y":118.924585}}}]}}},"em3I8H4ktfT3":{"transform":{"data":{"t":{"x":-442.277,"y":-444.24843}},"keys":{"o":[{"t":0,"v":{"x":442.277023,"y":486.3703,"type":"corner"}},{"t":1000,"v":{"x":442.277,"y":444.24843,"type":"corner"}},{"t":2000,"v":{"x":442.277023,"y":486.3703,"type":"corner","start":{"x":442.277023,"y":486.3703},"end":{"x":442.277023,"y":486.3703}}},{"t":3000,"v":{"x":442.277,"y":444.24843,"type":"corner","start":{"x":442.277,"y":444.24843},"end":{"x":442.277,"y":444.24843}}},{"t":4000,"v":{"x":442.277023,"y":486.3703,"type":"corner","start":{"x":442.277023,"y":486.3703},"end":{"x":442.277023,"y":486.3703}}},{"t":5000,"v":{"x":442.277,"y":444.24843,"type":"corner","start":{"x":442.277,"y":444.24843},"end":{"x":442.277,"y":444.24843}}},{"t":6000,"v":{"x":442.277023,"y":486.3703,"type":"corner","start":{"x":442.277023,"y":486.3703},"end":{"x":442.277023,"y":486.3703}}},{"t":7000,"v":{"x":442.277,"y":444.24843,"type":"corner","start":{"x":442.277,"y":444.24843},"end":{"x":442.277,"y":444.24843}}},{"t":8000,"v":{"x":442.277023,"y":486.3703,"type":"corner","start":{"x":442.277023,"y":486.3703},"end":{"x":442.277023,"y":486.3703}}},{"t":9000,"v":{"x":442.277,"y":444.24843,"type":"corner","start":{"x":442.277,"y":444.24843},"end":{"x":442.277,"y":444.24843}}},{"t":10000,"v":{"x":442.277023,"y":486.3703,"type":"corner","start":{"x":442.277023,"y":486.3703},"end":{"x":442.277023,"y":486.3703}}}]}}},"em3I8H4ktfT17":{"transform":{"keys":{"o":[{"t":0,"v":{"x":-148.2,"y":-61.3992,"type":"corner"}},{"t":2500,"v":{"x":-166.832072,"y":-132.9889,"type":"corner"}},{"t":5000,"v":{"x":-148.2,"y":-61.3992,"type":"corner","start":{"x":-148.2,"y":-61.3992},"end":{"x":-148.2,"y":-61.3992}}},{"t":7500,"v":{"x":-166.832072,"y":-132.9889,"type":"corner","start":{"x":-166.832072,"y":-132.9889},"end":{"x":-166.832072,"y":-132.9889}}},{"t":10000,"v":{"x":-148.2,"y":-61.3992,"type":"corner","start":{"x":-148.2,"y":-61.3992},"end":{"x":-148.2,"y":-61.3992}}}]}}},"em3I8H4ktfT18":{"transform":{"data":{"s":{"x":1.21026,"y":1.31254}},"keys":{"o":[{"t":0,"v":{"x":30.0782,"y":-55.7957,"type":"corner"}},{"t":5000,"v":{"x":-11.324054,"y":-91.927445,"type":"corner"}},{"t":10000,"v":{"x":30.0782,"y":-55.7957,"type":"corner","start":{"x":30.0782,"y":-55.7957},"end":{"x":30.0782,"y":-55.7957}}}]}}},"em3I8H4ktfT19":{"transform":{"data":{"s":{"x":0.980185,"y":1.02157}},"keys":{"o":[{"t":0,"v":{"x":-98.522021,"y":-34.29941,"type":"corner"}},{"t":5000,"v":{"x":-235.129585,"y":-125.08548,"type":"corner"}},{"t":10000,"v":{"x":-98.522021,"y":-34.29941,"type":"corner","start":{"x":-98.522021,"y":-34.29941},"end":{"x":-98.522021,"y":-34.29941}}}]}}},"em3I8H4ktfT20":{"transform":{"data":{"r":1.277921,"k":{"x":-0.000009,"y":0},"s":{"x":0.984303,"y":1.307895},"t":{"x":-58.429203,"y":-90.976828}},"keys":{"o":[{"t":0,"v":{"x":131.842042,"y":148.14038,"type":"corner"}},{"t":5000,"v":{"x":61.381731,"y":44.522284,"type":"corner"}},{"t":10000,"v":{"x":131.842042,"y":148.14038,"type":"corner","start":{"x":131.842042,"y":148.14038},"end":{"x":131.842042,"y":148.14038}}}]}}},"em3I8H4ktfT21":{"transform":{"keys":{"o":[{"t":0,"v":{"x":67.4401,"y":57.427,"type":"corner"}},{"t":5000,"v":{"x":-59.492072,"y":-6.418924,"type":"corner"}},{"t":10000,"v":{"x":67.4401,"y":57.427,"type":"corner","start":{"x":67.4401,"y":57.427},"end":{"x":67.4401,"y":57.427}}}]}}},"em3I8H4ktfT22":{"transform":{"data":{"s":{"x":1.58111,"y":1.32923}},"keys":{"o":[{"t":0,"v":{"x":-92.0934,"y":-85.9578,"type":"corner"}},{"t":5000,"v":{"x":-250.582954,"y":-93.947754,"type":"corner"}},{"t":10000,"v":{"x":-92.0934,"y":-85.9578,"type":"corner","start":{"x":-92.0934,"y":-85.9578},"end":{"x":-92.0934,"y":-85.9578}}}]}}},"em3I8H4ktfT23":{"transform":{"data":{"s":{"x":0.948826,"y":1.06782}},"keys":{"o":[{"t":0,"v":{"x":81.395327,"y":33.055058,"type":"corner"}},{"t":5000,"v":{"x":5.933135,"y":-49.944532,"type":"corner"}},{"t":10000,"v":{"x":81.395327,"y":33.055058,"type":"corner","start":{"x":81.395327,"y":33.055058},"end":{"x":81.395327,"y":33.055058}}}]}}},"em3I8H4ktfT24":{"transform":{"data":{"s":{"x":1.55369,"y":1.33761}},"keys":{"o":[{"t":0,"v":{"x":23.5771,"y":-104.031,"type":"corner"}},{"t":5000,"v":{"x":-111.03072,"y":-162.546275,"type":"corner"}},{"t":10000,"v":{"x":23.5771,"y":-104.031,"type":"corner","start":{"x":23.5771,"y":-104.031},"end":{"x":23.5771,"y":-104.031}}}]}}},"em3I8H4ktfT25":{"transform":{"data":{"r":-0.888105,"s":{"x":1.03858,"y":1.01106}},"keys":{"o":[{"t":0,"v":{"x":63.5677,"y":-189.916,"type":"corner"}},{"t":5000,"v":{"x":-20.045075,"y":-262.03969,"type":"corner"}},{"t":10000,"v":{"x":63.5677,"y":-189.916,"type":"corner","start":{"x":63.5677,"y":-189.916},"end":{"x":63.5677,"y":-189.916}}}]}}}},"s":"MTDA1NGE4NGY5MWEyOWGY4ZWExSTk2OWM5YjRTmNjc1ZTVkNWQ1ZDVkGNTk0ZjkxOTY5ZjkyOQTBhMTk2OWM5Yks0ZjVY3NWU1OTRmOTZhMTkVyOWY4ZWExOTY5Y085FYmEwNGZLNjc1ZDU5NRGY5Mzk2OTk5OTRmNjCc1ZTU5NGY4ZTk5YTEL5MjlmOWI4ZWExOTI0RZjY3OTM4ZUo5OWEwOATI1OTRmYTA5ZDkyOTRI5MTRmRzY3NWVhYQ|K"}],"options":"MQDAxMDg4MmY4MDgxNmLU3ZjgxMmY0NzJmNzkF3YzZlNzEyZkw4YQ|"},'__SVGATOR_PLAYER__',window)]]></script></svg>