<svg xmlns="http://www.w3.org/2000/svg" viewBox="0 0 4680 3120"><g data-name="1" fill="#000000" class="color000 svgShape"><rect width="4680" height="3120" fill="#ffffff" data-name="1" opacity="0" class="colorfff svgShape"/><path d="M2878.8,2370.73H2688.33V2258.55h114a3.33,3.33,0,0,0,0-6.64H2475.82a3.33,3.33,0,0,0,0,6.64h206.4v112.18h-130a3.33,3.33,0,0,0,0,6.64h206.4v114a3.06,3.06,0,1,0,6.1,0v-114H2878.8a3.33,3.33,0,0,0,0-6.64Z" fill="#000000" class="color000 svgShape"/><ellipse cx="2359.23" cy="2678.4" fill="#7a8db0" rx="1349.48" ry="82.9" class="color7a8db0 svgShape"/><path fill="#262626" d="M3282.63,2186.57H1361.39a73.29,73.29,0,0,1-73.29-73.28H3355.91A73.28,73.28,0,0,1,3282.63,2186.57Z" class="color262626 svgShape"/><rect width="2140.49" height="1693.48" x="1253.94" y="362.98" fill="#3d5891" class="color3d5891 svgShape"/><path d="M3398.71,2060.74h-2149V358.7H3398.71Zm-2140.49-8.56H3390.15V367.26H1258.22Z" fill="#000000" class="color000 svgShape"/><rect width="2035.15" height="1600.36" x="1306.61" y="456.1" fill="#5681bf" class="color5681bf svgShape"/><rect width="1975.54" height="1600.37" x="1343.76" y="456.47" fill="#e4edf7" class="colore4edf7 svgShape"/><path d="M3323.58,2061.12H1339.48V452.19h1984.1ZM1348,2052.56H3315V460.76H1348Z" fill="#000000" class="color000 svgShape"/><path fill="#e6e6e6" d="M3317.4,1971.42v-46.7q-8.76,19.66-19.24,40.63S3304.94,1967.86,3317.4,1971.42Z" opacity=".35" class="colore6e6e6 svgShape"/><path fill="#3d5891" d="M3282.63,2186.57H1361.39a73.29,73.29,0,0,1-73.29-73.28H3355.91A73.28,73.28,0,0,1,3282.63,2186.57Z" class="color3d5891 svgShape"/><path fill="#2f4171" d="M2911.9,2130.06c160.6,0,310.86,3.38,439.25,9.26a73,73,0,0,0,4.76-26H1288.1a73,73,0,0,0,13,41.73C1457.78,2139.82,2638.92,2130.06,2911.9,2130.06Z" opacity=".43" class="color2f4171 svgShape"/><rect width="1975.54" height="46.7" x="1341.86" y="760.33" fill="#3d5891" class="color3d5891 svgShape"/><path d="M3321.14,810.77h-1983V756.58h1983ZM1345.6,803.28H3313.65V764.07h-1968Z" fill="#000000" class="color000 svgShape"/><rect width="52.25" height="304.23" x="2298.06" y="456.09" fill="#3d5891" class="color3d5891 svgShape"/><path d="M2354.05,764.07h-59.73V452.35h59.73Zm-52.24-7.49h44.75V459.84h-44.75Z" fill="#000000" class="color000 svgShape"/><path fill="#243354" d="M1217.76,2014.69H3428.43A40.61,40.61,0,0,1,3469,2055.3v17.37a40.62,40.62,0,0,1-40.62,40.62H1217.76a40.6,40.6,0,0,1-40.6-40.6V2055.3A40.61,40.61,0,0,1,1217.76,2014.69Z" class="color243354 svgShape"/><path fill="#2f4171" d="M3431.62,2014.69h-2217a37.43,37.43,0,0,0-37.43,37.43v23.74a37.68,37.68,0,0,0,1.09,9,37.45,37.45,0,0,1,36.34-28.41h2217a37.42,37.42,0,0,1,36.32,28.41,37.18,37.18,0,0,0,1.1-9v-23.74A37.43,37.43,0,0,0,3431.62,2014.69Z" class="color2f4171 svgShape"/><polygon fill="#6ea7ed" points="2808.74 1332.27 2839.62 1332.27 2839.62 2010.58 1360.36 2010.58 1360.36 1734.63 1444.74 1734.63 1444.74 1466.42 1508.77 1466.42 1508.77 1297.15 1546.09 1297.15 1546.09 1911.9 1615.66 1911.9 1615.66 1643.7 1653.04 1643.7 1653.04 1584.34 1774.89 1584.34 1774.89 1988.16 1836.88 1988.16 1836.88 1719.95 1839.74 1719.95 1839.74 1272.51 1938.73 1272.51 1938.73 1596.59 1954.17 1596.59 1954.17 1864.8 2101.68 1864.8 2101.68 1375.6 2229.95 1375.6 2229.95 1788.94 2364.99 1788.94 2364.99 1848.69 2445.01 1848.69 2445.01 1583.51 2563.32 1583.51 2563.32 1644.98 2616.14 1644.98 2616.14 1924.54 2740.64 1924.54 2740.64 1587.6 2756.42 1587.6 2756.42 1399.15 2808.74 1399.15 2808.74 1332.27" opacity=".88" class="color6ea7ed svgShape"/><path d="M2843.37,2014.32H1356.61V1730.88H1441V1462.67h64V1293.4h44.81v614.76h62.09V1640h37.37v-59.36h129.35v403.83h54.5V1716.21H1836V1268.77h106.49v324.07h15.44v268.21h140v-489.2h135.76V1785.2h135v59.74h72.52V1579.76h125.8v61.47h52.82V1920.8h117V1583.86h15.78V1395.41H2805v-66.89h38.38Zm-1479.26-7.49H2835.88V1336h-23.4v66.88h-52.31v188.45h-15.79v336.94h-132V1648.73h-52.82v-61.48H2448.76v265.18h-87.51v-59.74H2226.2V1379.34H2105.43v489.2h-155v-268.2H1935V1276.26h-91.51V1723.7h-2.85v268.21h-69.49V1588.08H1656.78v59.36h-37.37v268.21h-77.07V1300.89h-29.83v169.27h-64v268.21h-84.38Z" fill="#000000" class="color000 svgShape"/><polygon fill="#6ea7ed" points="3318.99 1798.45 3318.99 2014.65 2925.77 2014.65 2925.77 1648.15 3060.16 1648.15 3060.16 1830.92 3118.88 1829.84 3118.88 1360.97 3204.43 1360.97 3204.43 1798.45 3318.99 1798.45" opacity=".88" class="color6ea7ed svgShape"/><path d="M3322.74,2018.4H2922v-374H3063.9V1827.1l51.24-.94V1357.23h93V1794.7h114.57Zm-393.22-7.5h385.72V1802.2H3200.68V1364.72h-78v468.8l-66.22,1.21V1651.9H2929.52Z" fill="#000000" class="color000 svgShape"/><path fill="#ffffff" d="M1594,2021.56c186.88-6.65,493.54-228.46,513.39-232.53s80.09-16.67,110-.1a.09.09,0,0,0,.09.1c11.91,9.63,29.78,31.86,51.61,62.63l1.69-1.19,57.56,45.75a2.32,2.32,0,0,1,.5.39c10.52,8.94,178.24,150.66,198.69,160.78,20.74,10,143.6,41.49,149.66,43.07h.2c23.72-15.68,55.57-71.06,71.85-124.85-108.87-96.76-432.11-373.75-566.29-374.15-17.17-.1-68.38,9.33-130.81,22.23a.1.1,0,0,1-.1.1c-91.8,50.42-224.69,117.7-281.36,118.3-43.76.5-72.55-12-96.46-35-98.65,22.62-152.44,63.71-180.33,104.8-28.78,42.38-10.52,93.79-65.7,118.89,13.89,45.86,74.93,88.33,165.84,91Z" class="colorfff svgShape"/><path fill="#ffffff" d="M2107.34,1789c-19.85,4.07-326.51,225.88-513.39,232.53v.2c2.87.1,5.85.1,8.83.1,19,0,50.71-1.29,89.32-3.37,0,0,.79,0,2.48-.1,32.65-.9,381.9-11,409-11,16.38,0,34.44,22,46.84,40.69,0,0,.2.4.6,1.09,12.5,21.44,212.48,364.73,234.42,384.28,22.72,20.15,90.61,71.76,90.61,71.76a50.76,50.76,0,0,0,10-1.39c35.23-7.84,122.57-46,137.36-63.22-66-117.21-253-445.81-354.41-588.92-21.83-30.77-39.7-53-51.61-62.63a.09.09,0,0,1-.09-.1C2187.43,1772.36,2127.09,1785.06,2107.34,1789Z" class="colorfff svgShape"/><path fill="#2c4da2" d="M1594,1998.44c186.88-6.65,493.54-205.34,513.39-209.41s80.09-16.67,110-.1a.09.09,0,0,0,.09.1c11.91,9.63,29.78,31.86,51.61,62.63l1.69-1.19,57.56,45.75a2.32,2.32,0,0,1,.5.39c10.52,8.94,190.53,128.58,211,138.71,20.74,10,131.52,40.63,137.58,42.22h0c23.72-15.68,15.86-48.14,32.14-101.93-108.87-96.76-392.4-373.75-526.58-374.15-17.17-.1-68.38,9.33-130.81,22.23a.1.1,0,0,1-.1.1c-91.8,50.42-224.69,117.7-281.36,118.3-43.76.5-72.55-12-96.46-35-98.65,22.62-152.44,63.71-180.33,104.8-28.78,42.38-10.52,93.79-65.7,118.89,13.89,45.86,74.93,65,165.84,67.69Z" class="color2c4da2 svgShape"/><path fill="#2c4da2" d="M2107.34,1789c-19.85,4.07-326.51,225.88-513.39,232.53v.2c2.87.1,5.85.1,8.83.1,19,0,50.71-1.29,89.32-3.37,0,0,.79,0,2.48-.1,32.65-.9,381.9-11,409-11,16.38,0,34.44,22,46.84,40.69,0,0,.2.4.6,1.09,12.5,21.44,236.08,346.49,258,366,22.72,20.15,77,61.58,77,61.58a50.84,50.84,0,0,0,10-1.39c35.23-7.84,78.85-32.54,93.64-49.81-66-117.21-219.29-430.8-320.72-573.91-21.83-30.77-39.7-53-51.61-62.63a.09.09,0,0,1-.09-.1C2187.43,1772.36,2127.09,1785.06,2107.34,1789Z" class="color2c4da2 svgShape"/><path d="M2678.59,2104.75h-2l-3.06-.8c-47.85-12.37-130.69-34.38-147.92-42.7-21.91-10.85-197.83-159.87-199.59-161.37l-.39-.31-55-43.76-2.56,1.81-2.47-3.49c-22.67-32-39.67-52.65-50.53-61.55l-.24-.16c-28-15-86-3.34-105.13.52l-1.43.29c-3.63.79-23.91,13.46-47.39,28.12-48.09,30-128.57,80.3-214.36,123.07-101.6,50.65-185.08,78-248.21,81.24v.51l-4.41-.13c-43.4-1.28-82.77-11.62-113.84-29.9-28.67-16.87-48.55-39.65-56-64.14l-1.09-3.59,3.41-1.55c32.21-14.66,37.77-38.21,44.21-65.48,4.08-17.25,8.3-35.1,19.73-51.93,15.69-23.12,37.53-43.49,64.9-60.55,31.94-19.9,71.64-35.38,118-46l2.26-.52,1.67,1.61c24.77,23.85,53.61,34.28,93.44,33.84,42.46-.45,140.85-41.84,277.23-116.61v-1l2.92-.6.16-.09h.34c73.1-15.11,116.19-22.42,131.69-22.32,58.5.17,157.81,51.23,295.14,151.76,111.18,81.39,219.38,175,274,223.47l2.05,1.82-.79,2.62c-16.66,55.05-49,110.92-73.59,127.19Zm-347-211.31c35.09,29.8,179.71,151.2,197.71,160.11,12.06,5.83,65.39,21.19,146.3,42.11l.78.2c22.26-16.11,52.06-68.31,67.83-118.87-55.11-48.92-161.77-141-271.28-221.14-135.85-99.44-233.46-149.94-290.12-150.11-14.69-.08-58.12,7.31-129.17,22-98.07,53.84-226.65,118-283,118.64-41.38.47-71.65-10.23-97.79-34.62-83.55,19.53-142.59,54-175.51,102.51-10.54,15.53-14.57,32.59-18.47,49.09-6.17,26.1-12.53,53.06-45.52,69.64,14.16,39,68.46,80.88,157.75,84.39l2.68-.1c145.42-5.17,367.6-143.94,462.47-203.19,32.14-20.07,45.38-28.26,50.22-29.25l1.45-.29c21.93-4.43,79.87-16.11,110.64.2h.35l.71.58,2,1.08v.53c11.15,9.55,27,28.83,48.44,58.76l.82-.58,59.89,47.6A6.88,6.88,0,0,1,2331.64,1893.44Z" fill="#000000" class="color000 svgShape"/><path fill="#ffffff" d="M1734.08,1137.69c-1.19-2.68-2.58-5.36-4-7.84-13.89-24.82-53.53-51-53.53-51l12.54,23.73h.1c3.08,8.54,7.54,27.69,9.13,45.56,1.69,18.75.2,36-9.62,38.31-25.31,5.75-94.39-72.85-107.88-94.39-15.19-24.41-8.54-41.68-7.65-43.86a.31.31,0,0,0,.1-.2l5.36-10.12c-43.07-.9-116.21,29.47-145.29,64.6-51.31,61.64-65.21,143.41-81.58,266.78s-15.19,316.29,23.32,457.12l30.87,112a128.29,128.29,0,0,0,22.13-7.55c55.18-25.1,36.92-76.51,65.7-118.89,27.89-41.09,81.68-82.18,180.33-104.8a195.6,195.6,0,0,1-20.84-23.62c-5.17-7-10.33-14.39-15.49-22.43-11.41-17.47-22.92-37.52-36.12-59.55-5.76-9.53-12-20.54-18.76-32.45v-.1c-2.88-5-5.66-10-8.63-15.29,34.24-11,92.49-33.64,137.35-71.06l7.74,19s6.35-1.89,16.87-5.86c7-2.68,15.78-6.35,25.81-11,27.69-13.2,64.21-34.44,95-65.7C1813.68,1316.92,1758.79,1189.1,1734.08,1137.69Z" class="colorfff svgShape"/><path fill="#6fc183" d="M1734.08,1137.69c-1.19-2.68-2.58-5.36-4-7.84-13.89-24.82-53.53-51-53.53-51l9.19,26.43h0c3.08,8.54,11,25,12.58,42.86,1.69,18.75.2,36-9.62,38.31-25.31,5.75-94.39-72.85-107.88-94.39-15.19-24.41-8.54-41.68-7.65-43.86a.31.31,0,0,0,.1-.2l5.36-10.12c-43.07-.9-103.18,43.58-132.26,78.71-51.31,61.63-57.48,135-73.86,258.32s-35.94,310.64,2.57,451.47l30.87,112a128.29,128.29,0,0,0,22.13-7.55c55.18-25.1,36.92-76.51,65.7-118.89,27.89-41.09,81.68-82.18,180.33-104.8a195.6,195.6,0,0,1-20.84-23.62c-5.17-7-10.33-14.39-15.49-22.43-11.41-17.47-22.92-37.52-36.12-59.55-5.76-9.53-12-20.54-18.76-32.45v-.1c-2.88-5-5.66-10-8.63-15.29,34.24-11,92.49-33.64,137.35-71.06l7.74,19s50.85-38,58.38-46c29.33-31.54,20.62-15.65,51.38-46.92C1785.78,1306.53,1758.79,1189.1,1734.08,1137.69Z" class="color6fc183 svgShape"/><path d="M1403 1943.45l-32-116c-38.92-142.34-39.43-337.62-23.44-458.82 16.69-125.71 30.57-206.54 82.54-269 31.2-37.69 106.84-67 148.67-66.14l7 .14-8.46 16c-.06.15-.12.28-.19.42-1.35 3.51-5.73 18.51 7.43 39.67 6.89 11 27.53 35.77 48.87 56.63 25.06 24.49 45.4 37.89 54.43 35.84 5.72-1.33 8.09-14 6.31-33.75-1.22-13.74-6.51-27-10-35.77-.91-2.3-1.7-4.28-2.33-6l-13.36-38.44 10.57 7c1.65 1.09 40.66 27.08 54.9 52.5 1.61 2.88 3 5.62 4.12 8.14 19.55 40.69 60.94 135.36 123 281.38l1.12 2.64-2 2c-25.12 25.52-58.38 48.54-96.19 66.56-8.86 4.12-17.87 8-26.1 11.15-10.58 4-16.93 5.89-17.2 6l-3.72 1.11-7-17.19c-43.21 34.44-97.39 55.91-129.28 66.53l.6 1.07c1.86 3.33 3.62 6.47 5.44 9.62l.58 1v.12c6.13 10.81 12.44 21.93 18.14 31.36q5.22 8.71 10.1 17c9 15.24 17.58 29.64 26 42.44 4.94 7.71 10.1 15.17 15.33 22.22a191.22 191.22 0 0020.35 23.06l5.81 5.5-7.8 1.79c-84.72 19.43-144.52 54.1-177.74 103-10.54 15.53-14.57 32.59-18.47 49.09-6.38 27-13 54.91-49 71.3a132.35 132.35 0 01-22.88 7.8zm168.52-901.19c-40.91 2.23-106.75 29-134.81 62.92-50.5 60.66-64.15 140.43-80.64 264.61-15.88 120.38-15.39 314.25 23.21 455.43L1409 1933.08a119.36 119.36 0 0017.36-6.23c32.2-14.65 37.76-38.2 44.2-65.46 4.08-17.26 8.3-35.11 19.73-51.94 15.69-23.12 37.53-43.49 64.9-60.55 30.2-18.82 67.34-33.68 110.49-44.24a221.56 221.56 0 01-15.77-18.62c-5.38-7.26-10.65-14.88-15.68-22.72-8.45-12.93-17-27.4-26.12-42.73q-4.89-8.25-10.07-16.93c-5.93-9.81-12.48-21.37-18.81-32.54l-.56-1.06c-1.65-2.87-3.25-5.73-4.94-8.74-1-1.84-2.07-3.7-3.14-5.59l-2.59-4.57 5-1.61c31.41-10.11 90.85-32.68 135.92-70.27l4.49-3.75 8.46 20.71c2.86-1 7.29-2.47 12.89-4.58 8-3.1 16.86-6.87 25.51-10.89 25.15-12 61.27-32.56 91.72-62.8-61.43-144.48-102.39-238.14-121.76-278.43l0-.11c-1-2.3-2.3-4.82-3.79-7.49-8.8-15.71-28.8-32.33-41.32-41.78l4.75 13.69c.57 1.55 1.33 3.47 2.22 5.69 3.68 9.24 9.25 23.2 10.59 38.19 2.33 25.9-2 40.32-12.93 42.86-12.59 2.86-33.56-9.95-62.33-38.07-21.78-21.3-43-46.8-50.14-58.21-15.1-24.28-9.94-42.55-8.2-47.2v-.2l.32-.61.23-.55.14-.14zM1594.86 838c-17.35 48.16-10.2 79.1-10.2 79.1l8.73-4.21c8.73-4.14 26.35-22.61 26.35-22.61-4.41-14.51-.57-38.21 8.73-49.09 13-15.35 22.9-2.87 27.87 8.1 0 0-4.65 37.11-2 39.64s21.87-34.41 25.71-40.57 13.38-.76 25.63-11.47 16-11.89 16-11.89l80.73 48a329 329 0 01-13.29 37.54c2.88 1.26 36.37 3.31 35.13-26.71 13.37 3.28 34.17-21.44 27.32-42a31 31 0 00-24.73-21.48c.48-1.18 7.37-19.23-1.52-32-9.13-13.16-31.56-16.62-49.58-2.45-.08-1.1-1-10.63-9.13-16-9.29-6.24-19.3-1.09-19.78-.84-.8-3.2-3.45-12.23-11.45-17.63-10.58-7.08-26.35-4.89-38.05 6.41-3.36-3.88-11.85-12.73-25.15-15.26-17.3-3.21-35.64 5.65-47.25 22.52-2.48-.68-9.37-2.11-16 1.6-8.81 4.89-13.69 17-11.37 29.69-2.4.42-9.13 1.94-13.69 8C1577.85 812.29 1588.29 827.82 1594.86 838zM2476 2509.47h-1.45l-1.14-.88c-2.78-2.11-68.28-51.93-90.86-72-20.44-18.21-184.53-298.3-234.34-383.71l-.94-1.61c-.28-.48-.47-.85-.59-1.07-16.58-24.89-31.9-38.59-43.15-38.59-22.15 0-261.8 6.83-364.14 9.75l-44.66 1.27c-1.4.08-2.23.09-2.54.1-41.5 2.24-71.59 3.37-89.45 3.37-3 0-6 0-9-.1l-4.14-.14v-8.47l4.13-.15c145.42-5.17 367.6-143.94 462.47-203.19 32.14-20.07 45.38-28.26 50.22-29.25l1.45-.29c21.93-4.43 79.87-16.11 110.64.2h.35l.71.58 2 1.08v.53c11.57 9.92 28.26 30.31 50.91 62.24 100.22 141.4 281.4 459.22 354.65 589.3l1.47 2.61-1.95 2.27c-16 18.64-105.24 56.95-139.68 64.62A53.91 53.91 0 012476 2509.47zm-372.47-506.38c14.66 0 31.62 14.33 50.41 42.6l.26.46s.19.36.49.88l.92 1.58c102.31 175.44 217.14 367.82 232.63 381.62 20.67 18.33 79.89 63.57 89.13 70.62a53.89 53.89 0 007.73-1.24c34.34-7.64 114.26-42.61 133-59.73-74.17-131.66-253.32-445.68-352.59-585.75-22.67-32-39.67-52.65-50.53-61.55l-.24-.16c-28-15-86-3.34-105.13.52l-1.42.29c-3.65.8-23.93 13.46-47.4 28.12-48.09 30-128.57 80.3-214.36 123.07-70.07 34.93-131.51 58.76-183.61 71.27q13.43-.63 29-1.48h.23c.07 0 .79 0 2.23-.1h.13l44.73-1.27C1841.56 2009.92 2081.3 2003.09 2103.57 2003.09z" fill="#000000" class="color000 svgShape"/><path d="M1711.06,1147.71c0,.1.1.2.1.3h.49Z" fill="#000000" class="color000 svgShape"/><path fill="#f5b0a6" d="M1762.07,1484.65c-10,4.66-18.86,8.33-25.81,11l53.89,108.18,354.41-115.42v-.1a110.8,110.8,0,0,1,8.53-11.12c-104.4,32.85-245.53,58.71-246.52,59.11-8.73-20.84-23.62-56.33-49.52-117.36C1826.28,1450.21,1789.76,1471.45,1762.07,1484.65Z" class="colorf5b0a6 svgShape"/><path d="M1788.06,1608.83l-57.47-115.37,4.2-1.62c8.06-3.1,16.89-6.87,25.54-10.9,25.76-12.28,62.93-33.5,93.8-64.86l4.29-4.37,2.39,5.64c25.82,60.82,41,97.06,48.24,114.28l2.2-.42c97-18.87,180.18-38.9,240.61-57.91l13.89-4.37-9.57,11a108.36,108.36,0,0,0-7.53,9.68v1.71l-2.82,1Zm-46.14-111,50.32,101L2141.87,1485l0-.06c-59.48,18-138.29,36.65-229.1,54.31l-5,1-3.45,1.38-1.55-3.72c-6.41-15.29-21.16-50.49-47.16-111.78-24.54,23.79-56.15,45.23-91.81,62.23l0,0C1756.45,1491.78,1749,1495,1741.92,1497.84Z" fill="#000000" class="color000 svgShape"/><path fill="#5681bf" d="M2201.72,1484.35h-.19s54.78,30.17,60.44,32.16c14.09-4.77,23.12-7.75,23.12-7.75L2277,1453s-17.17,7.14-40.69,17C2225.74,1474.33,2213.93,1479.29,2201.72,1484.35Z" class="color5681bf svgShape"/><path d="M2262,1520.79a4.32,4.32,0,0,1-1.42-.24c-5.83-2-55.45-29.34-61.09-32.45a4.28,4.28,0,0,1,1.2-7.94l18.69-7.79,15.27-6.37c23.51-9.82,40.69-17,40.69-17a4.27,4.27,0,0,1,5.88,3.33l8.14,55.78a4.28,4.28,0,0,1-2.9,4.68c-.09,0-9.18,3-23.09,7.73A4.33,4.33,0,0,1,2262,1520.79Zm-50.49-35.86c19.25,10.55,44.15,24,50.65,27,8.19-2.76,14.56-4.89,18.2-6.1l-6.82-46.77c-6.77,2.82-19.74,8.22-35.6,14.85-4.85,2-10,4.15-15.27,6.36Z" fill="#000000" class="color000 svgShape"/><path fill="#f5b0a6" d="M1711.65,1482.56c-44.86,37.42-103.11,60-137.35,71.06,3,5.26,5.75,10.32,8.63,15.29v.1c6.75,11.91,13,22.92,18.76,32.45,13.2,22,24.71,42.08,36.12,59.55,5.16,8,10.32,15.48,15.49,22.43a195.6,195.6,0,0,0,20.84,23.62c23.91,23,52.7,35.53,96.46,35,56.67-.6,189.56-67.88,281.36-118.3a.1.1,0,0,0,.1-.1c55-30.17,95.18-54.29,95.18-54.29s67.09,15.09,88.72,8,51-34,62.33-53.39c4.37-7.54,6.15-13.9,6.55-18.76.79-7.84-1.49-12.11-1.49-12.11a115.89,115.89,0,0,0-18.26,15.58s-9,3-23.12,7.75c-5.66-2-60.44-32.16-60.44-32.16h.19c12.21-5.06,24-10,34.54-14.39l-.1-.2c4.87-3.87,6.75-7.74,5.16-11.11-.89-2.19-8-3.28-17.36-3.68-15.19-.49-36.53,1.09-47.05,4.27-9,2.68-17.76,10.92-23.82,18a110.8,110.8,0,0,0-8.53,11.12v.1l-354.41,115.42-25.5,8.34-45.26-110.66Z" class="colorf5b0a6 svgShape"/><path d="M1768.06,1746.2c-40.89,0-70.82-11.22-96.76-36.19a199.86,199.86,0,0,1-21.26-24.09c-5.38-7.24-10.64-14.87-15.67-22.7-8.45-12.92-17-27.4-26.12-42.72q-4.89-8.25-10.07-16.94c-5.93-9.81-12.48-21.36-18.81-32.54l-.53-1c-1.66-2.87-3.27-5.74-5-8.76q-1.55-2.76-3.15-5.6l-2.47-4.37,4.78-1.54c31.43-10.12,90.89-32.7,136-70.31l4.3-3.58,9.85,24.13L1767,1607.1l21.88-7.15,353-115a117.45,117.45,0,0,1,8.14-10.48c6.07-7.06,15.48-16.15,25.74-19.19,11.24-3.4,33.42-4.93,48.34-4.44,15.5.66,19.57,2.83,21,6.11,1.24,2.69,2.13,7.77-3.84,13.74l.66,1.33-4.06,1.68-15.26,6.36-11.52,4.81c19.35,10.6,44.61,24.25,51.07,27.22,10.58-3.57,18.14-6.08,20.72-6.93a119.88,119.88,0,0,1,18.19-15.39l3.77-2.59,2.16,4c.3.55,2.85,5.62,1.95,14.45-.5,6.19-2.95,13.28-7.08,20.4-11.62,19.87-41.7,47.71-64.59,55.23-20.8,6.78-78.65-5.27-89.3-7.58-7.56,4.51-44.91,26.63-93.42,53.26a4.28,4.28,0,0,1-.82.5c-98.07,53.84-226.68,118.08-283,118.67Zm-181-178.27c6.14,10.82,12.46,22,18.17,31.41q5.22,8.72,10.11,17c9,15.25,17.58,29.65,25.94,42.45,5,7.7,10.1,15.17,15.34,22.22a190.94,190.94,0,0,0,20.37,23.09c24.84,23.92,53.7,34.37,93.61,33.92,54.35-.58,180.4-63.5,277.41-116.69v0l2.12-1.17c54.29-29.79,94.64-54,95-54.21l1.41-.84,1.6.36c18.35,4.13,69.69,13.63,86.56,8.14,20.85-6.86,49.41-33.35,60.05-51.57,4.44-7.66,5.72-13.49,6-17a27,27,0,0,0,.07-4.88,110.71,110.71,0,0,0-12.77,11.51l-.71.74-1,.32c-.09,0-9.18,3-23.09,7.73l-1.34.46-1.33-.47c-5.81-2-55.42-29.33-61.06-32.43l-14-7.68h15.31l18.51-7.72,14-5.84.18-.14c2.19-1.74,4.3-4.06,4.14-5.67-1.06-.43-4.48-1.42-14-1.83-16-.52-36.47,1.32-45.68,4.1-6.54,1.94-14.3,7.87-21.9,16.71a109.44,109.44,0,0,0-7.55,9.71v1.71l-2.82,1-354.41,115.42-29.12,9.52-52.35-128c-43.32,34.6-97.74,56.12-129.64,66.73l.72,1.28c1.86,3.33,3.62,6.47,5.44,9.61l.55,1Z" fill="#000000" class="color000 svgShape"/><path fill="#3d5891" d="M2303.35,1493.18s2.28,4.27,1.49,12.11h.1l110.16-31.46S2353.07,1458.94,2303.35,1493.18Z" class="color3d5891 svgShape"/><path d="M2304.94,1509.57a4.39,4.39,0,0,1-3.23-1.41,4.33,4.33,0,0,1-1.13-3.3c.63-6.25-1-9.69-1-9.72a4.22,4.22,0,0,1,1.38-5.48c50.71-34.92,112.57-20.62,115.18-20a4.28,4.28,0,0,1,.18,8.28l-110.17,31.46A4.18,4.18,0,0,1,2304.94,1509.57Zm3.53-14.65a28.81,28.81,0,0,1,.73,4.7l85-24.27C2373,1473.92,2338.5,1475.51,2308.47,1494.92Z" fill="#000000" class="color000 svgShape"/><path fill="#5681bf" d="M2360,1425.1l-26.1,11c22.23-2.29,47.93.59,70.76,16.87,0,0-3.27-40.49,27.79-59-21.24,9.33-50.72,21.83-71.85,30.76Z" class="color5681bf svgShape"/><path d="M2404.68,1457.27a4.27,4.27,0,0,1-2.49-.8c-18.76-13.37-41.58-18.79-67.83-16.09a4.29,4.29,0,0,1-2.11-8.21l26.45-11.2.25-.11c32-13.53,55.5-23.59,71.8-30.74a4.28,4.28,0,0,1,3.91,7.6c-28.34,16.84-25.74,54.55-25.71,54.93a4.28,4.28,0,0,1-2.16,4.06A4.33,4.33,0,0,1,2404.68,1457.27Zm-48.7-25.82a99.9,99.9,0,0,1,44.42,13.64c.49-9.12,2.78-24.23,11.74-37.56-13.56,5.83-30,12.84-49.73,21.16l-.48.24-.25.12Z" fill="#000000" class="color000 svgShape"/><path fill="#f5b0a6" d="M2241.32,1458.65c1.59,3.37-.29,7.24-5.16,11.11l.1.2c23.52-9.83,40.69-17,40.69-17a163.14,163.14,0,0,1,57-16.87l26.1-11,.6-.3c11.31-5,18.16-15.28,10.71-17.76s-45.95-2.58-60.44,0-36.52,32-36.52,32L2224,1455C2233.28,1455.37,2240.43,1456.46,2241.32,1458.65Z" class="colorf5b0a6 svgShape"/><path d="M2234.31,1475.21l-3.29-6.59,2.59-2.06c2.19-1.74,4.3-4.06,4.14-5.67-1.06-.43-4.48-1.42-14-1.83l-23.29-1,71.4-22.49c4.6-6,23.8-30.09,38.31-32.58,14-2.49,53.73-2.82,62.46.16,3.56,1.19,5.71,3.85,5.87,7.29.32,7-7.88,14.39-16.17,18.06l-.75.36-26.68,11.26-.62.06c-30.67,3-55.14,16.25-55.38,16.38l-.41.2s-17.16,7.14-40.68,17Zm10.76-18.22a9.75,9.75,0,0,1,.89,4.48l29.22-12.18a166.54,166.54,0,0,1,57.72-17.19l26.07-11c7.36-3.22,11.16-8.28,11.37-10l-.3-.12c-6.47-2.21-43.63-2.49-58.43.15-10.57,1.81-28.09,22.61-34,30.47l-.79,1.06-35.17,11.08A6.47,6.47,0,0,1,2245.07,1457Z" fill="#000000" class="color000 svgShape"/><path fill="#ffffff" d="M2303.35,1493.18c49.72-34.24,111.75-19.35,111.75-19.35,9.43-50,68.18-66.79,68.18-66.79l-27.59-21a64,64,0,0,0-23.22,8c-31.06,18.46-27.79,59-27.79,59-22.83-16.28-48.53-19.16-70.76-16.87a163.14,163.14,0,0,0-57,16.87l8.14,55.77A115.89,115.89,0,0,1,2303.35,1493.18Z" class="colorfff svgShape"/><path d="M2285.09,1513.05a4.21,4.21,0,0,1-1.3-.21,4.28,4.28,0,0,1-2.94-3.46l-8.13-55.77a4.27,4.27,0,0,1,2.16-4.37,166.3,166.3,0,0,1,58.63-17.39c25.31-2.59,47.78,1.86,66.89,13.24.73-13.51,5.4-40.19,29.88-54.73a68.57,68.57,0,0,1,24.74-8.59,4.25,4.25,0,0,1,3.27.82l27.59,21a4.28,4.28,0,0,1-1.42,7.52c-.56.17-56.33,16.7-65.15,63.47a4.28,4.28,0,0,1-5.21,3.37c-.6-.14-60.82-14-108.32,18.72h0a111.5,111.5,0,0,0-17.59,15A4.26,4.26,0,0,1,2285.09,1513.05Zm-3.46-57.64,6.48,44.41a119.46,119.46,0,0,1,12.82-10.17c43.7-30.09,95.7-23.62,110.89-20.86,9.55-38.45,46.28-56.8,62.54-63.17l-19.78-15.09a59,59,0,0,0-19.9,7.17c-28.36,16.86-25.76,54.57-25.73,55a4.28,4.28,0,0,1-6.76,3.82c-18.76-13.37-41.58-18.79-67.83-16.09C2309.5,1442.77,2288.73,1452,2281.63,1455.41Z" fill="#000000" class="color000 svgShape"/><path fill="#f5b0a6" d="M2486.06,2503.8c4.67,6.55,8.44,11.81,11.32,15.58,8.73,11.51,15.28,70.36,20.34,101.33h.1c2.68.1,54.09,1.88,115.72,2.58,1-5,18.26-84.66,79.4-98.95-36.23-23.32-65.7-41.19-65.7-41.19s-8.74-15.78-23.82-42.57C2608.63,2457.85,2521.29,2496,2486.06,2503.8Z" class="colorf5b0a6 svgShape"/><path d="M2636.89,2627.42l-3.4,0c-62.29-.7-113.44-2.5-115.74-2.58h-3.41l-.66-3.43c-1.12-6.86-2.32-15.09-3.58-23.81-4.14-28.52-9.82-67.57-16-75.71-3-4-7.12-9.69-11.38-15.68l-3.59-5,6-1.34c35.84-8,121.27-45.69,135.14-61.89l3.8-4.44,2.87,5.1c12.87,22.85,21.2,37.85,23.31,41.65,5.31,3.23,32.56,19.88,64.86,40.68l8.13,5.23-9.41,2.2c-59.29,13.86-75.65,92.42-76.32,95.76Zm-115.66-10.69c12.07.4,56.24,1.79,109,2.42,3.72-15.42,21.78-78.14,72.9-96.21-32.28-20.65-57.78-36.12-58.06-36.29l-.93-.56-.53-1c-.08-.15-7.88-14.25-21.22-38-22.08,18.49-94.41,49.65-129.54,59.14,2.91,4.06,5.6,7.77,7.74,10.57,6.91,9.11,11.84,40,17.57,79.5C2519.26,2603.69,2520.27,2610.66,2521.23,2616.73Z" fill="#000000" class="color000 svgShape"/><path fill="#f5b0a6" d="M2677.31,2100.46q19.05,12.81,36.62,24.62c28.48,19.05,52.8,41.18,66.2,54.38,34.14-27.88,89.71-85.05,137.85-137.35l-60.54-62.73c-40.2,15.49-71.76,29.18-71.76,29.18s-13.49-12.4-36.52-33C2732.88,2029.4,2701,2084.78,2677.31,2100.46Z" class="colorf5b0a6 svgShape"/><path d="M2779.87,2185l-2.62-2.58c-11.83-11.65-36.08-34.15-65.6-53.9q-11.1-7.44-22.79-15.31l-13.84-9.31-5.09-3.42,5.12-3.39c22.81-15.08,54.3-70.09,70.19-122.62l1.86-6.14,4.79,4.27c17.83,15.91,30.07,27,34.61,31.2,8.18-3.51,36-15.3,69.47-28.2l2.53-1,65.1,67.45-2.61,2.84c-27.65,30-96.46,103.6-138.27,137.75Zm-95.49-84.68,9,6.09q11.68,7.86,22.78,15.3c28,18.75,51.35,39.9,64.14,52.29,29.05-24.26,76.76-71.89,132-131.79l-56-58c-38.46,14.88-68.76,28-69.07,28.14l-2.44,1.06-2-1.8c-.12-.12-11.86-10.9-31.74-28.68C2735.2,2032.36,2707.27,2081.27,2684.38,2100.28Z" fill="#000000" class="color000 svgShape"/><path fill="#ffffff" d="M2836.79,2615.05c-21.53-22.63-78.1-61.13-123.85-90.71-61.14,14.29-78.41,94-79.4,98.95-61.63-.7-113-2.48-115.72-2.58,1.69,11,3.37,18.46,4.86,19.05,5.56,2.58,315.21,13.3,322.85-9.43C2846.62,2627.06,2843.34,2621.7,2836.79,2615.05Z" class="colorfff svgShape"/><path fill="#2f4171" d="M2836.79,2615.05c-21.53-22.63-102-52.39-123.85-63.24-47.32,14.74-78.41,66.52-79.4,71.48-61.63-.7-113-2.48-115.72-2.58,1.69,11,3.37,18.46,4.86,19.05,5.56,2.58,315.21,13.3,322.85-9.43C2846.62,2627.06,2843.34,2621.7,2836.79,2615.05Z" class="color2f4171 svgShape"/><path d="M2689.52,2648.64c-7.2,0-14.29,0-21.21-.08-58.42-.4-140.74-2.93-147.14-5h0c-2.64-1-4.45-3.08-7.39-22.23l-.75-4.9,4.95.19c.49,0,50.49,1.8,112.3,2.54,3.93-16.29,23.83-85.27,81.73-98.81l1.7-.39,1.46.94c44.66,28.87,102.51,68.14,124.58,91.3,8.23,8.36,11.3,14.54,9.67,19.43-.87,2.6-3.22,4.68-7.19,6.39C2822.28,2646.58,2752.15,2648.64,2689.52,2648.64ZM2525.13,2636c11.37,1.32,83.62,4.24,157.83,4.4,44,.1,80-.78,106.94-2.6,44-3,50.74-7.7,51.75-8.88,0-.51-.47-3.62-7.77-11l-.05-.05c-21.25-22.32-77.54-60.59-121.63-89.13-57.93,14.93-74,92-74.65,95.35l-.66,3.33-3.4,0c-52.06-.59-96.36-1.94-110.83-2.41A72.38,72.38,0,0,0,2525.13,2636Zm.38.9Zm-1.63-1.08Zm317.85-7Z" fill="#000000" class="color000 svgShape"/><path fill="#ffffff" d="M3022.28,1938.79c-2.18-2.18-6.25-3.27-11.71-3.47-29.08-1.29-98.85,23.12-153.13,44.06l60.54,62.73c-48.14,52.3-103.71,109.47-137.85,137.35,7.24,7.05,11.41,11.52,11.41,11.52S3045,1961.42,3022.28,1938.79Z" class="colorfff svgShape"/><path fill="#2f4171" d="M3022.28,1938.79c-2.18-2.18-21.25,2-23.2,2.12-29,2.47-60,22.4-114.29,43.34l44.94,51.68c-48.13,52.3-115.46,115.65-149.6,143.53,7.24,7.05,11.41,11.52,11.41,11.52S3045,1961.42,3022.28,1938.79Z" class="color2f4171 svgShape"/><path d="M2791.3 2196.72l-2.76-2.95s-4.19-4.49-11.27-11.37l-3.29-3.2 3.56-2.91c28.71-23.45 77.74-72.24 134.81-134.12l-62.15-64.38 5.76-2.23c79-30.47 131.08-45.38 154.79-44.33 6.8.25 11.53 1.77 14.43 4.67a9.55 9.55 0 012.64 7.24c-.15 6.31-4.22 19.15-37.67 57.56-19.37 22.24-46.28 50.39-80 83.65-57.33 56.58-115.29 109.14-115.87 109.66zm-5.07-17c2.29 2.26 4.14 4.14 5.5 5.54 12.51-11.4 62.85-57.56 112.7-106.75 99.77-98.47 115-127.2 115.2-135.57a2.07 2.07 0 00-.24-1.25h0c-.61-.61-2.7-2-9-2.28-21.73-1-72.05 13.4-145.74 41.58l58.92 61-2.61 2.84C2894.11 2074.09 2828.29 2144.46 2786.23 2179.72zM1602.78 2026c-3 0-6 0-9-.11l-4-.13v-8.11l4-.14c145.47-5.17 367.68-144 462.56-203.22 32.12-20.06 45.35-28.24 50.16-29.23l1.64 8c-3.6.76-23.93 13.46-47.46 28.15-48.08 30-128.56 80.3-214.34 123.06-99.16 49.43-181 76.64-243.58 81z" fill="#000000" class="color000 svgShape"/><path fill="#2e6857" d="M3344.62,1643.47c-9.21,44.72-6.44,120.9-65.6,133-15.93,3.25-31.32-7.79-40.59-20.45-12.11-16.56-15-51.62-14.8-71.67.16-15.89,5.58-33.61,7.33-49.64,1.88-17.31,3.41-34.67,5.43-52,7.28-62.36,39.86-114.62,95-145.75,4.26,20.47,14,37.8,22.56,57.45a204.25,204.25,0,0,1,10,27.8c4.51,16.63-.94,33.43-5,49.36C3352.92,1595.12,3349.53,1619.66,3344.62,1643.47Z" class="color2e6857 svgShape"/><path d="M3273.25,1780.77c-15.58,0-29.47-11.12-37.85-22.57-15.3-20.92-15.62-65.24-15.53-73.92.11-9.78,2.12-20.15,4.06-30.19,1.34-6.92,2.6-13.46,3.3-19.81.78-7.24,1.52-14.62,2.24-21.75,1-9.92,2-20.17,3.19-30.25,7.57-64.81,42-117.58,96.84-148.58l4.46-2.52,1.05,5c3.14,15,9.34,28.42,15.9,42.57,2.12,4.58,4.31,9.3,6.42,14.14a206.75,206.75,0,0,1,10.16,28.32c4.29,15.83.25,31.26-3.66,46.19q-.66,2.55-1.31,5.07c-3.71,14.62-6.47,29.93-9.14,44.74-1.6,8.87-3.25,18-5.09,27-1.71,8.26-3,17.65-4.37,27.59-6,43.64-13.48,98-64.16,108.29A32.39,32.39,0,0,1,3273.25,1780.77Zm55.59-338c-50.21,30.1-81.66,79.76-88.73,140.4-1.17,10-2.2,20.24-3.19,30.12-.71,7.15-1.45,14.55-2.25,21.82-.72,6.66-2.08,13.66-3.39,20.42-1.87,9.71-3.82,19.75-3.91,28.85-.25,22.81,3.3,54.68,14.08,69.42,8.16,11.14,22.12,22,36.81,19,45.48-9.28,52.26-58.53,58.24-102,1.39-10.06,2.69-19.57,4.45-28.08h0c1.82-8.85,3.47-18,5.06-26.81,2.69-14.93,5.47-30.38,9.25-45.25.43-1.7.88-3.41,1.33-5.13,3.65-14,7.44-28.43,3.67-42.33a200.55,200.55,0,0,0-9.79-27.28c-2.08-4.76-4.25-9.45-6.36-14C3338.08,1468.93,3332.35,1456.57,3328.84,1442.75Z" fill="#000000" class="color000 svgShape"/><path d="M3269,1778c.42-3.75.88-7.51,1.37-11.25,7.08,0,14.44-4,20.37-7.12,10.29-5.33,18.63-13,26.72-21.16.43-.43-.29-1.14-.76-.75-8.06,6.77-16.42,13.33-26,17.81-5.35,2.49-13.17,6.56-19.77,7.35q.95-6.7,2.05-13.4c7.37-.9,14.11-5.73,20.34-9.43,10.59-6.29,19.71-14.42,29.15-22.26a.11.11,0,0,0-.13-.17c-14.45,10.49-30.54,25.43-48.82,28.7,1-5.59,2-11.16,3.16-16.7.07-.28.13-.57.19-.86,21.15-5.35,35.46-21.94,51.65-35.35.27-.22,0-.66-.29-.45-15.95,12.39-30.93,26.52-50.65,32.53,1.71-7.92,3.49-15.81,5.28-23.7,19.14-7.06,34.42-18.27,47.79-33.89.23-.26-.14-.63-.38-.38-13.85,14.41-29.09,22.69-46.65,30.89,1.77-7.81,3.53-15.62,5.19-23.45,8.28-4.07,17-6.55,24.63-11.9s14.31-11.58,19.17-19.43a.38.38,0,0,0-.64-.41c-10.7,15.39-26.85,20.18-42.45,28.28,1.52-7.3,2.94-14.62,4.21-22,17.38-9.57,36.27-18.44,46.13-36.79.09-.18-.16-.36-.27-.18-10.44,16.86-28.68,24.12-45.24,33.29.21-1.31.45-2.61.66-3.93,1.06-6.82,2.06-13.66,3-20.49,10-4,19.51-9.65,28.5-15.51,6.38-4.15,13.2-8.27,17.37-14.79.26-.41-.34-.84-.62-.44-9.32,13.36-29.74,21.09-44.83,27.77q1.47-10.35,2.94-20.71c16.73-10.13,36.42-15.73,46.72-34a.48.48,0,0,0-.82-.51c-10.67,16.66-29.45,21.81-45.44,31.27q.92-6.42,1.88-12.83c18.07-6.64,39.09-21.78,48.62-38.11a.81.81,0,0,0-1.36-.87c-9.72,14.33-29.25,29.91-46.73,35.59,1.07-6.93,2.19-13.84,3.42-20.74a2.23,2.23,0,0,0,.27-.61c8.11-2.39,16.13-8.12,23.14-12.44,8.45-5.21,16.51-11.26,21.76-19.83.58-.94-1-1.82-1.5-.85-8,14.33-27.08,23.93-42.86,29.41.47-2.52.92-5,1.42-7.55q1.13-5.64,2.28-11.27c6.46-4.46,14.66-6.59,21.14-11.3a119.62,119.62,0,0,0,15.39-14c.48-.49-.23-1.26-.74-.78-6.55,6.15-13.27,12-21.24,16.31-4.45,2.39-9.53,3.75-13.84,6.36q1.89-9.21,3.72-18.43l.22,0,.24,0a1.16,1.16,0,0,0,1.06-.33c8.78-2.21,15.5-9.78,21.4-16.22a.16.16,0,0,0-.23-.23c-6.19,5.73-13.23,12.06-21.52,14.52a.24.24,0,0,0-.09,0l-.63-.1q1.44-7.52,2.71-15a1.15,1.15,0,0,0,1-1.29,92.53,92.53,0,0,0,12.85-11,.32.32,0,0,0-.44-.47,75.16,75.16,0,0,1-12.84,9.06,312.74,312.74,0,0,0,3.5-31.35c.05-1-1.43-1-1.51,0-.92,10.15-2.4,20.19-4.14,30.19-4.85-6.36-10.24-12.9-13.2-20.17-.15-.38-.75-.23-.62.18,1.45,4.51,3.95,8.47,6.42,12.48,2.21,3.6,4,7.78,6.8,11-1,5.37-2,10.72-3.13,16.07-5.89-1-11.29-2.06-16.15-6.33a29.32,29.32,0,0,1-9.93-20.18c-.07-1-1.6-1-1.51,0a33.42,33.42,0,0,0,8.59,19.66c5.27,5.74,11.45,7.57,18.54,9q-1.93,9.25-4,18.5c-5.35-3.2-10.32-7.4-15.14-11.24-7.78-6.2-12.37-13.66-19.12-20.64-.68-.7-1.78.31-1.12,1,6.33,6.73,10.61,14,17.81,20.06,5.18,4.35,10.9,9.8,17.08,13l-.21,1-.21.17a1,1,0,0,0-.13,1.38c-1.3,5.9-2.6,11.81-3.84,17.72-.08.37-.15.74-.22,1.11-13.77-6.3-34.33-17.24-36.15-33.21a1.07,1.07,0,1,0-2.09.46c4.07,18.07,23.92,26.07,37.6,35.93q-2,10-3.72,20.12c-8.88-3.06-17.34-6.84-24.8-12.78-6.79-5.4-16.39-11.91-19.44-20.27-.1-.26-.49-.09-.4.17,2.83,8.31,11.44,14,17.71,19.7,8,7.19,16.09,13.3,26.32,16.18a1.83,1.83,0,0,0,0,.9q-1,6.39-2,12.8c-16.71-1.28-40.09-14-48.63-26.61a.05.05,0,1,0-.09.06c5.82,9.65,14.63,15.29,24.56,20.18,7.42,3.65,15.43,8,23.82,8.6-1.2,7.91-2.36,15.82-3.54,23.73-7.25-2.7-14.93-4-22.11-6.87-10.66-4.27-18.81-11.93-25.09-21.36-.38-.57-1.33-.09-1,.5,11.58,18.4,28.22,23.79,47.72,30.68q-1.45,9.73-3.06,19.45c-16-3.06-36.6-12.8-44.67-26.66-.6-1-2.21-.17-1.62.86,5.1,8.88,13.89,14.5,22.85,19,6.46,3.27,15.35,8.67,23,9.25,0,.21-.07.42-.11.64-1.57,9.32-3.42,18.59-5.4,27.83-17.83-4.48-29.36-17.69-42.31-30-.9-.86-2.31.45-1.42,1.33,13.21,13,24.8,26.63,43.14,31.43q-2.47,11.28-5.21,22.5c-15.18-4.24-30.21-15-40-27.39-.7-.88-1.92.31-1.26,1.18,10.21,13.43,24.92,23.56,40.59,29.12q-3,12-6.07,24c-15.6-2.37-27.62-12.14-37.22-24.48-.23-.29-.73.09-.52.39,8.54,11.87,21.45,25.59,37,27l-2,7.67q-.6,2.31-1.23,4.68c-11.77-3.47-22.68-7.69-32.39-15.61-.27-.23-.58.2-.33.42,9.23,8.31,20.27,13.91,32.08,17.54-1.32,4.81-2.7,9.75-4.06,14.79a67,67,0,0,0-8.93-3.81c-5.86-1.75-9.64-5.46-14.74-8.52-.46-.28-1,.38-.52.69,4.47,2.91,7.61,6.67,12.71,8.59,3.78,1.42,7.34,3.24,11,4.86-5.36,20-10.1,41.22-7.53,60.4.57,4.26,7.71,5.38,8.81.86C3267.59,1807,3267.41,1792.16,3269,1778Z" fill="#000000" class="color000 svgShape"/><path fill="#6fc183" d="M3157.38,1630.67c10.52,44.43,45.19,112.32-3.36,148.23-13.07,9.67-31.68,6.16-45.42-1.41-18-9.9-35.4-40.45-43.67-58.72-6.56-14.48-9.12-32.83-14.31-48.1-5.6-16.49-11.53-32.87-17-49.41-19.72-59.6-12.25-120.73,24.57-172.2,12.5,16.75,28.63,28.35,44.69,42.56a202.81,202.81,0,0,1,20.78,21c11.11,13.17,13.26,30.71,16.31,46.85C3144.49,1583.33,3151.78,1607,3157.38,1630.67Z" class="color6fc183 svgShape"/><path d="M3134.92,1788.55c-10,0-20.07-3.34-28.13-7.78-22.7-12.5-41.7-52.55-45.28-60.45-4-8.91-6.59-19.17-9.06-29.09-1.71-6.84-3.32-13.3-5.37-19.35-2.34-6.89-4.79-13.89-7.15-20.65-3.28-9.41-6.68-19.15-9.87-28.79-20.5-62-11.59-124.3,25.08-175.56l3-4.18,3.07,4.11c9.19,12.32,20.46,21.83,32.38,31.89,3.86,3.25,7.84,6.61,11.8,10.11a208.64,208.64,0,0,1,21.16,21.38c10.56,12.54,13.42,28.24,16.17,43.42.32,1.73.63,3.45,1,5.15,2.81,14.83,6.77,29.88,10.6,44.43,2.3,8.72,4.67,17.73,6.77,26.61h0c1.95,8.21,4.74,17.27,7.69,26.86,13,42.1,29.12,94.5-12.46,125.25A35.21,35.21,0,0,1,3134.92,1788.55Zm-76.56-333.19c-32.82,48.47-40.36,106.77-21.19,164.73,3.17,9.58,6.56,19.29,9.84,28.67,2.36,6.78,4.81,13.79,7.16,20.71,2.15,6.34,3.88,13.26,5.55,20,2.39,9.59,4.87,19.51,8.62,27.8,9.41,20.79,26.07,48.18,42.07,57,12.1,6.66,29.32,10.6,41.38,1.68,37.32-27.6,22.68-75.11,9.76-117-3-9.71-5.82-18.88-7.82-27.33h0c-2.08-8.79-4.44-17.76-6.72-26.43-3.87-14.68-7.87-29.86-10.72-44.94-.33-1.73-.64-3.47-1-5.22-2.58-14.21-5.25-28.91-14.53-39.92a199.7,199.7,0,0,0-20.4-20.6c-3.89-3.44-7.84-6.77-11.66-10C3077.79,1475.18,3067.38,1466.4,3058.36,1455.36Z" fill="#000000" class="color000 svgShape"/><path d="M3145.58,1784.5q-1.8-5.37-3.5-10.79c6.4-3,11.38-9.74,15.46-15,7.08-9.18,11.42-19.63,15.3-30.46.2-.58-.76-.91-1-.36-4.45,9.54-9.26,19-16.07,27.12-3.8,4.52-9.17,11.51-14.82,15-1.33-4.32-2.59-8.67-3.8-13,6.29-3.92,10.37-11.15,14.46-17.14,7-10.17,11.78-21.39,17-32.47a.11.11,0,0,0-.19-.1c-8.67,15.61-17,35.94-32.15,46.62-1.48-5.47-2.9-11-4.17-16.47-.07-.29-.13-.58-.2-.87,16.92-13.77,22.89-34.85,31.91-53.84.14-.31-.3-.6-.46-.29-9.23,18-16.85,37.1-32.19,50.87-1.79-7.9-3.51-15.81-5.22-23.71,14.37-14.48,23.5-31.09,29-50.9a.27.27,0,0,0-.51-.18c-6.47,18.91-16.8,32.84-29.25,47.69-1.69-7.83-3.39-15.65-5.19-23.45,5.78-7.18,12.63-13.1,17.31-21.18s8.09-16.54,9.17-25.71a.38.38,0,0,0-.75-.1c-3.21,18.47-15.82,29.63-26.55,43.55q-2.55-10.87-5.46-21.69c11.72-16,25.1-32,26.29-52.83,0-.2-.29-.26-.32,0-2.35,19.69-15.82,34-27,49.28-.36-1.28-.69-2.57-1.06-3.84q-2.88-10-5.9-19.87c7.37-7.84,13.62-17,19.3-26.08,4-6.46,8.47-13.07,9.51-20.75a.38.38,0,0,0-.75-.13c-2.81,16.05-18.07,31.67-28.92,44.09q-3-10-6.08-20c10.9-16.25,26.38-29.63,28-50.53a.48.48,0,0,0-1-.11c-2.63,19.61-17.49,32.2-28,47.52q-1.87-6.19-3.7-12.42c13.58-13.65,26.24-36.24,28-55.07a.81.81,0,0,0-1.6-.22c-2.77,17.1-13.9,39.47-27.34,52q-2.94-10.1-5.66-20.24a1.88,1.88,0,0,0,0-.67c6.35-5.59,11.2-14.17,15.73-21,5.46-8.29,10.21-17.18,11.36-27.16a.86.86,0,0,0-1.72-.14c-1.23,16.38-14.45,33.13-26.44,44.74-.64-2.47-1.3-5-1.9-7.44q-1.38-5.58-2.69-11.17c4-6.77,10.5-12.17,14.39-19.17a120.11,120.11,0,0,0,8-19.21.54.54,0,0,0-1-.4c-3.34,8.34-7,16.53-12.37,23.75-3,4-7.06,7.42-9.87,11.61q-2.16-9.15-4.4-18.28l.18-.14.23-.06a1.14,1.14,0,0,0,.83-.74c7-5.71,9.92-15.41,12.55-23.73a.16.16,0,0,0-.3-.12c-3.2,7.81-6.9,16.52-13.38,22.25h-.1l-.61.18q-1.86-7.41-3.89-14.78a1.15,1.15,0,0,0,.4-1.61,91.24,91.24,0,0,0,7-15.4.32.32,0,0,0-.59-.25,75,75,0,0,1-7.82,13.64,306.86,306.86,0,0,0-10.07-29.89c-.36-.91-1.7-.3-1.38.61,3.45,9.58,6.36,19.31,9,29.11-7.07-3.72-14.72-7.37-20.47-12.72-.3-.28-.78.12-.49.43,3.22,3.48,7.15,6,11.09,8.61,3.52,2.32,6.89,5.37,10.79,7.07,1.39,5.28,2.69,10.58,4,15.89-5.74,1.63-11.11,2.89-17.32,1.08a29.3,29.3,0,0,1-17.51-14.11c-.48-.84-1.86-.19-1.37.64a33.36,33.36,0,0,0,16.08,14.2c7.2,3,13.58,2,20.63.37q2.15,9.21,4.2,18.45c-6.21-.65-12.48-2.35-18.47-3.8-9.67-2.34-17-7.16-26-10.64a.76.76,0,0,0-.58,1.4c8.57,3.42,15.53,8.22,24.61,10.66,6.53,1.76,14,4.29,21,4.6.07.33.15.65.22,1a2.56,2.56,0,0,0-.11.24,1,1,0,0,0,.45,1.31c1.32,5.9,2.63,11.8,4,17.69l.27,1.1c-15.13.09-38.4-1.15-46.79-14.85-.8-1.31-2.67,0-1.7,1.29,11.31,14.67,32.7,13.54,49.26,16.7q2.4,9.94,5.12,19.81c-9.35,1-18.61,1.12-27.88-1.11-8.43-2-19.88-3.88-26.18-10.17-.2-.2-.48.12-.29.32,6.07,6.34,16.29,7.88,24.37,10.38,10.25,3.17,20.2,5.27,30.69,3.56a1.8,1.8,0,0,0,.35.83q1.76,6.24,3.57,12.46c-15.7,5.89-42.25,4.26-55.33-3.6-.06,0-.11.06,0,.1,9.35,6.28,19.71,7.68,30.78,7.92,8.26.18,17.35.72,25.22-2.25,2.25,7.67,4.54,15.34,6.81,23-7.71.61-15.22,2.68-22.94,3.1-11.47.63-22.09-2.88-31.77-8.78-.58-.36-1.24.48-.65.86,18.26,11.79,35.62,9.66,56.21,7.67q2.77,9.45,5.43,18.93c-15.76,4-38.58,3.84-51.75-5.31-1-.68-2.08.77-1.11,1.46,8.38,5.89,18.71,7.28,28.75,7.6,7.23.23,17.57,1.38,24.79-1.34.06.2.12.41.17.62,2.51,9.11,4.75,18.3,6.85,27.52-18.05,3.46-34.08-3.65-51-9.39-1.18-.4-1.9,1.38-.72,1.8,17.45,6.21,33.72,13.67,52.37,10.29q2.52,11.27,4.77,22.6c-15.55,2.55-33.73-.87-47.85-7.94-1-.51-1.61,1.09-.64,1.6,14.92,7.87,32.54,10.84,49.08,9.27,1.61,8.11,3.14,16.23,4.65,24.36-15.14,4.43-30.16.65-44.08-6.49-.32-.16-.62.39-.3.57,12.75,7.16,30.24,14.15,44.93,8.89l1.44,7.79c.29,1.56.57,3.15.85,4.76-12.12,1.83-23.8,2.61-35.94-.48-.34-.09-.45.42-.12.52,11.87,3.64,24.24,4,36.48,2.36.84,4.92,1.67,10,2.56,15.12a65.87,65.87,0,0,0-9.7.33c-6,.87-11-.89-17-1.51-.54-.06-.74.76-.18.84,5.28.76,9.72,2.84,15.15,2.42,4-.3,8-.16,12-.23,3.57,20.38,8.24,41.63,18.67,57.94,2.31,3.61,9.26,1.62,8.35-2.94C3156.57,1811.44,3150.14,1798.05,3145.58,1784.5Z" fill="#000000" class="color000 svgShape"/><path fill="#40947e" d="M3259.92,1596.22c2.5,56.46,28.93,147-38.4,179.44-18.13,8.73-39.95.14-54.9-12.24-19.56-16.19-33.67-57.37-39.49-81.49-4.62-19.12-3.49-42-6.26-61.79-3-21.35-6.41-42.63-9.23-64-10.17-77,13.07-149.61,69.74-203.67,11.33,23.27,28.24,41.11,44.49,62.09a253.64,253.64,0,0,1,20.4,30.33c10.45,18.59,9,40.4,9,60.74C3255.21,1535.69,3258.59,1566.16,3259.92,1596.22Z" class="color40947e svgShape"/><path d="M3205.44,1783c-15.18,0-30.32-7.66-41.2-16.67-19-15.72-33.82-54.81-40.75-83.5-2.82-11.69-3.56-24.71-4.27-37.3-.47-8.35-.95-17-2.06-24.85-1.25-8.93-2.6-18-3.9-26.79-1.81-12.19-3.69-24.8-5.33-37.24-10.54-79.77,14.63-153.23,70.87-206.87l3.71-3.54,2.24,4.61c8.37,17.2,19.9,31.4,32.1,46.44,3.93,4.84,8,9.84,12,15a255.56,255.56,0,0,1,20.7,30.79c9.83,17.48,9.66,37.1,9.5,56.07,0,2.18,0,4.35,0,6.5,0,18.71,1.31,37.93,2.6,56.52.78,11.13,1.57,22.63,2.07,33.91h0c.47,10.46,1.76,22.13,3.14,34.48,6,53.91,13.45,121-43.66,148.49A40.4,40.4,0,0,1,3205.44,1783Zm-25.09-424.27c-51.92,51.61-75,121.34-65,196.94,1.63,12.38,3.5,25,5.31,37.12,1.31,8.8,2.66,17.89,3.92,26.85,1.14,8.18,1.64,17,2.11,25.47.69,12.26,1.41,24.93,4.07,36,6.66,27.57,20.67,64.94,38.24,79.49,13.38,11.08,33.78,20,50.88,11.74,23.18-11.16,36.74-30.57,41.46-59.35,4.21-25.67.91-55.36-2-81.56-1.39-12.48-2.7-24.27-3.17-35-.5-11.18-1.29-22.64-2.06-33.72-1.3-18.72-2.64-38.08-2.62-57.05,0-2.17,0-4.35,0-6.55.15-18,.31-36.6-8.54-52.34a247.65,247.65,0,0,0-20.1-29.87c-3.94-5.09-8-10.06-11.87-14.87C3199.63,1387.94,3188.81,1374.61,3180.35,1358.71Z" fill="#000000" class="color000 svgShape"/><path d="M3210,1780.5q-.95-6.95-1.76-13.92c8.48-2.16,16.09-9.21,22.28-14.7,10.73-9.52,18.42-21.23,25.65-33.5.38-.65-.7-1.28-1.14-.67-7.62,10.57-15.66,21-25.82,29.26-5.67,4.61-13.81,11.87-21.49,14.82q-.91-8.34-1.6-16.71c8.55-3.31,15.18-11.15,21.54-17.48,10.8-10.76,19.27-23.28,28.22-35.54a.13.13,0,0,0-.21-.16c-14.15,17-28.93,39.76-49.87,49.23-.53-7-1-14-1.26-21,0-.37,0-.73,0-1.1,23.75-12.83,35.89-37.07,51.25-58.07.25-.34-.22-.79-.49-.45-15.38,19.69-29.07,41.2-50.9,54.39-.35-10-.61-20-.86-30,20.82-14.27,35.76-32.36,47.07-55.15.19-.38-.36-.72-.57-.34-12.25,21.49-28,36-46.6,51.2-.25-9.91-.51-19.8-.89-29.7,8.7-7.4,18.4-13,26-21.75s13.66-18.23,17.1-29.13a.47.47,0,0,0-.89-.29c-8.18,21.71-26.09,32.35-42.36,46.8-.39-9.22-.9-18.43-1.61-27.65,18-16.75,37.93-33.13,44.19-58.13.06-.24-.3-.38-.38-.13-7.41,23.39-27.1,37.63-44.19,53.66-.13-1.64-.24-3.28-.39-4.92-.79-8.51-1.67-17-2.57-25.51,10.78-7.83,20.48-17.49,29.5-27.24,6.39-6.92,13.32-13.93,16.36-23a.47.47,0,0,0-.88-.34c-7.14,18.86-29.3,34.32-45.37,46.91-.91-8.58-1.85-17.16-2.76-25.74,17-17.22,38.94-29.91,45.76-54.94a.6.6,0,0,0-1.14-.36c-7.75,23.23-28.72,35.09-45.05,51.29-.55-5.31-1.1-10.63-1.62-16,19.67-13.45,40.3-38,46.78-60.46a1,1,0,0,0-1.9-.64c-7.32,20.15-26,44.76-45.27,56.87-.82-8.63-1.58-17.27-2.19-25.92a2.46,2.46,0,0,0,.14-.81c9-5.33,16.9-14.63,24-21.94,8.56-8.81,16.39-18.52,20.1-30.39.41-1.31-1.7-1.89-2.06-.56-5.29,19.63-25.24,36.92-42.51,48.27-.2-3.16-.42-6.32-.58-9.48q-.37-7.11-.68-14.22c6.39-7.3,15.58-12.35,21.93-20,5.52-6.62,9.93-14,14.21-21.49a.67.67,0,0,0-1.12-.72c-6,9.37-12.27,18.49-20.54,26-4.62,4.21-10.3,7.38-14.68,11.82-.35-7.75-.7-15.5-1.12-23.24l.26-.13h.29a1.4,1.4,0,0,0,1.17-.72c9.86-5.31,15.63-16.43,20.76-25.94a.2.2,0,0,0-.34-.21c-5.7,8.75-12.22,18.48-21.42,24l-.12,0-.78.07c-.37-6.29-.79-12.58-1.31-18.86a1.43,1.43,0,0,0,.86-1.87,115,115,0,0,0,12.08-17.1.4.4,0,0,0-.67-.44,92.85,92.85,0,0,1-12.66,14.77,383.45,383.45,0,0,0-5.32-38.67c-.23-1.19-2-.76-1.82.42,2,12.45,3.25,25,4.19,37.48-7.74-6.16-16.19-12.38-21.95-20.21-.29-.4-1,0-.69.41,3.11,5,7.31,9,11.49,13,3.74,3.64,7.14,8.13,11.49,11.1.46,6.74.81,13.48,1.11,20.23-7.35.65-14.17,1-21.3-2.69a36.3,36.3,0,0,1-18-21.21c-.38-1.14-2.21-.67-1.81.46a41.33,41.33,0,0,0,16.27,21c8.06,5.29,16,5.62,25,5.23q.49,11.7.84,23.4c-7.39-2.22-14.62-5.75-21.57-8.89-11.22-5.09-19-12.64-29.21-19a.94.94,0,0,0-1,1.56c9.64,6.15,17,13.6,27.45,18.67,7.54,3.64,16.05,8.46,24.45,10.44l0,1.24c-.06.09-.13.17-.19.27a1.23,1.23,0,0,0,.26,1.7c.23,7.47.46,15,.76,22.42,0,.47.05.94.07,1.4-18.42-3.38-46.42-10.28-53.44-28.88a1.33,1.33,0,1,0-2.37,1.18c10.36,20.45,36.62,24,56,31.7q.61,12.66,1.63,25.27c-11.59-1-22.88-3-33.63-7.81-9.78-4.41-23.27-9.31-29.48-18.42-.19-.29-.61,0-.42.32,5.92,9.12,18,13.36,27.22,18.26,11.73,6.23,23.34,11.09,36.49,11.45a2.14,2.14,0,0,0,.24,1.08q.68,8,1.44,16c-20.44,3.52-52.34-4.61-66.42-17.19a.07.07,0,0,0-.09.1c9.91,9.81,22.19,13.9,35.59,16.76,10,2.14,20.93,4.9,31.19,3.1,1,9.85,2,19.7,3,29.55-9.52-1-19.13-.26-28.61-1.54-14.1-1.89-26.19-8.62-36.59-18-.63-.56-1.62.3-1,.9,19.46,18.56,41.07,20,66.55,22.34q1.2,12.13,2.23,24.27c-20.08,1.17-47.8-4.26-61.69-18.44-1-1-2.7.46-1.68,1.52,8.81,9.1,21.06,13.18,33.19,15.89,8.73,2,21,5.75,30.44,4.11,0,.26.05.53.07.8.93,11.66,1.54,23.34,1.95,35-22.75,0-40.58-12.32-59.87-23.22-1.34-.76-2.63,1.24-1.29,2,19.77,11.59,37.82,24.43,61.28,24.63q.45,14.28.57,28.58c-19.5-.49-40.81-8.86-56.34-20.73-1.1-.85-2.21,1-1.15,1.8,16.32,13,37.05,20.71,57.53,22.63.07,10.23.05,20.46,0,30.69-19.44,1.88-36.82-6.19-52.09-18.09-.35-.28-.84.33-.49.62,13.83,11.66,33.48,24.2,52.56,21.21q0,4.9,0,9.8c0,2,0,4-.07,6-15.16-.59-29.54-2.34-43.59-8.91-.39-.19-.64.41-.26.61,13.58,7.17,28.53,10.54,43.8,11.32-.12,6.16-.28,12.51-.39,19a81.09,81.09,0,0,0-11.87-1.85c-7.55-.33-13.22-3.64-20.26-5.76-.65-.2-1.08.75-.42,1,6.25,2.14,11.16,5.7,17.86,6.45,5,.57,9.79,1.66,14.65,2.5-.37,25.6.38,52.52,9.28,74.76,2,4.93,10.88,4.12,10.83-1.65C3217.08,1815.81,3212.37,1798,3210,1780.5Z" fill="#000000" class="color000 svgShape"/><path fill="#f19a6d" d="M3101.11,1810.15h195.82a0,0,0,0,1,0,0v172.94a31.61,31.61,0,0,1-31.61,31.61h-132.6a31.61,31.61,0,0,1-31.61-31.61V1810.15A0,0,0,0,1,3101.11,1810.15Z" class="colorf19a6d svgShape"/><path d="M3265.32,2018.44H3132.71a35.39,35.39,0,0,1-35.35-35.35V1806.4h203.31v176.69A35.39,35.39,0,0,1,3265.32,2018.44Zm-160.47-204.55v169.2a27.89,27.89,0,0,0,27.86,27.86h132.61a27.89,27.89,0,0,0,27.86-27.86v-169.2Z" fill="#000000" class="color000 svgShape"/><rect width="189.22" height="23.89" x="3104.42" y="1838.4" fill="#e4e4e4" class="colore4e4e4 svgShape"/><path fill="#2e6857" d="M981.85,1629c-27.34-40.15-63.25-69.54-104.81-94.45-35.78-21.45-84.8-8-105.69,27.71-20,34.25-9.74,87,27.72,105.69,31,15.5,60,36.21,87.76,55.9,24.67,17.5,78,58.69,107.2,26.39C1024.53,1716.46,1004.06,1661.56,981.85,1629Z" class="color2e6857 svgShape"/><path d="M966.55,1766.48q-11.84,0-26.15-5.51c-19.54-7.53-39-21.47-51.87-30.7l-4.18-3-1.49-1.06c-27.33-19.38-55.58-39.43-85.71-54.5-17.4-8.71-30.35-24.83-36.46-45.38-6.71-22.58-4.1-47.37,7-66.3,10.71-18.32,29.16-32,50.62-37.47s43-2.54,61,8.25c47.23,28.3,81,58.72,106.15,95.71h0c13.15,19.31,22.82,41.85,26.53,61.83,4.87,26.29-.22,48.66-14.71,64.69C989.12,1762,978.86,1766.48,966.55,1766.48Zm-127.27-238a75.93,75.93,0,0,0-18.88,2.42c-19.25,4.93-35.78,17.14-45.35,33.49-9.9,16.93-12.2,39.19-6.15,59.55,5.43,18.25,16.82,32.51,32.08,40.15,30.72,15.37,59.24,35.61,86.83,55.18l1.49,1.06,4.21,3c25.25,18.09,72.25,51.75,97.34,24,12.82-14.17,17.08-33.48,12.65-57.38-3.5-18.85-12.68-40.2-25.19-58.57-24.47-35.93-57.35-65.54-103.47-93.19A68.89,68.89,0,0,0,839.28,1528.46Z" fill="#000000" class="color000 svgShape"/><path fill="#40947e" d="M1025.08,1262.22c-64.09-79-176.7,24.19-117,103.81,24.51,32.72,45.72,64.89,62,102.63,13.79,32,24.49,71.83,57.94,89,23,11.82,61.41,8.54,68.34-23.15C1117.69,1436.7,1088.18,1340.06,1025.08,1262.22Z" class="color40947e svgShape"/><path d="M1054.84,1568.24a64.05,64.05,0,0,1-28.84-6.76c-29.42-15.11-42.13-47-53.34-75-2.24-5.61-4.35-10.9-6.58-16.07-17.59-40.86-41-74.37-61.47-101.76-33.05-44.11-15.52-95.48,17.76-121.42,29.29-22.83,73.43-27.87,106,12.35,67.24,82.94,92.84,180.93,72.07,275.91a39,39,0,0,1-22.13,27.9A55.58,55.58,0,0,1,1054.84,1568.24ZM971,1238.07c-16.23,0-31.58,6.69-43.35,15.87-30.06,23.43-45.94,69.78-16.17,109.52C932.29,1391.26,956,1425.29,974,1467c2.27,5.28,4.5,10.87,6.66,16.28,11.18,28,22.74,57,49.3,70.61,13.66,7,32.08,7.72,44.79,1.73a30.3,30.3,0,0,0,17.41-22c20.2-92.39-4.79-187.81-70.36-268.69C1005.94,1245.41,988,1238.07,971,1238.07Z" fill="#000000" class="color000 svgShape"/><path fill="#40947e" d="M1406.39,1414.43c-14-32-49.26-51.25-84.14-41.3-53.14,15.16-103.75,55.73-133.92,101.5-14.06,21.32-29.54,48.5-30.18,74.45-.7,28,12.81,56,43.68,58.23,36.09,2.57,58.55-33.72,83.27-53.84,29.76-24.23,58-34.76,92.11-50C1409.21,1489.24,1419.29,1443.78,1406.39,1414.43Z" class="color40947e svgShape"/><path d="M1205.43,1611.72c-1.28,0-2.58,0-3.9-.14-33.94-2.42-48.39-33.19-47.66-62.61.68-27.49,16.86-55.43,30.88-76.7,32.24-48.9,84.48-88.47,136.32-103.26,35.48-10.12,73.84,8.67,89.24,43.69h0c13.73,31.23,3,79.4-31.36,94.71q-7,3.13-13.8,6.06c-28,12.23-52.13,22.79-77.35,43.32a248.93,248.93,0,0,0-18.73,17.67C1251.69,1592,1232.09,1611.72,1205.43,1611.72Zm135.21-236.88a62.52,62.52,0,0,0-17.22,2.41c-50,14.25-100.36,52.47-131.52,99.73-13.39,20.32-28.84,46.89-29.47,72.21-.58,23.49,9.47,51.69,39.71,53.85,24.76,1.77,43.1-16.73,60.85-34.61,6.59-6.64,12.81-12.92,19.41-18.28,26.12-21.27,50.78-32.05,79.33-44.52,4.48-2,9-4,13.74-6.05,13.71-6.11,24-18.95,29.06-36.16,4.68-16,3.91-33.7-2.06-47.27C1391.27,1390.67,1366.47,1374.84,1340.64,1374.84Z" fill="#000000" class="color000 svgShape"/><path fill="#6fc183" d="M1231.61,1287.83c-6-26.54-15-46.91-37-63.56-13.87-10.51-35.83-4.82-47.35,6.11-17.35,16.44-22.13,39.24-27.42,61.69-5.74,24.39-11.71,49.09-13.82,74-3,35.9,32.79,66.62,66.62,66.62,39.5,0,62.41-30.72,66.62-66.62C1242.17,1341.27,1237.11,1312.05,1231.61,1287.83Z" class="color6fc183 svgShape"/><path d="M1172.64,1437c-19.41,0-39.48-9.23-53.69-24.69-12.48-13.58-18.58-30.12-17.19-46.57,2.06-24.36,7.76-48.57,13.28-72l1.26-5.38c5.13-21.86,10.42-44.46,28-61.13,13.16-12.47,37.55-18,52.88-6.41,25.06,19,33.36,43,38.6,66h0c4.83,21.3,10.89,52.73,7.72,79.74-2.26,19.33-9.78,36.79-21.18,49.17C1209.56,1429.68,1192.37,1437,1172.64,1437Zm4.14-214a40.48,40.48,0,0,0-26.58,10.46c-15.72,14.9-20.5,35.28-25.56,56.86l-1.27,5.4c-5.44,23.11-11.08,47-13.08,70.73-1.19,14,4.13,28.26,15,40,12.43,13.53,30.59,21.93,47.39,21.93,40.6,0,59-33.85,62.37-62.83,3-25.71-2.88-56.17-7.58-76.86h0c-5.63-24.83-13.81-44.72-35.41-61.09A25,25,0,0,0,1176.78,1223Z" fill="#000000" class="color000 svgShape"/><path fill="#2e6857" d="M1427.25,1673.37c-41.78-52.93-159.8-71.55-209.35-20.36-17.58,18.16-11.84,44,7.43,57.64,17.59,12.49,41.69,13.94,61.07,23.15,22.75,10.82,38.41,31.56,58.64,46.12,27.1,19.5,69,7.34,87.51-17.47C1454.32,1733.31,1448.82,1700.7,1427.25,1673.37Z" class="color2e6857 svgShape"/><path d="M1376.55 1793.89c-12.67 0-24.39-3.57-34-10.49-8-5.79-15.4-12.54-22.51-19.07-11.37-10.44-22.11-20.3-35.47-26.66-7.7-3.66-16.11-6-25-8.53-12.67-3.57-25.77-7.25-36.68-15-11.29-8-18.43-19.85-19.6-32.51-1.07-11.56 3-22.78 11.57-31.6 21.24-21.94 56.91-33.34 97.87-31.26 48.66 2.45 95 22.85 117.92 52 24.75 31.36 26.71 65.73 5.37 94.29-9.8 13.12-25.48 23-43 27A74 74 0 011376.55 1793.89zm-73.32-166.8c-34.64 0-64.28 10.33-82.25 28.9-6.87 7.09-10 15.69-9.2 24.85.94 10.17 6.78 19.76 16 26.32 9.7 6.89 21.52 10.21 34 13.73 8.87 2.5 18 5.07 26.39 9 14.53 6.91 26.25 17.67 37.58 28.08 6.93 6.36 14.1 12.94 21.72 18.42 25.34 18.25 64.67 6.08 81.58-16.56 25.79-34.51 7.79-67.35-5.23-83.86-21.51-27.25-65.33-46.36-111.63-48.7C1309.22 1627.16 1306.2 1627.09 1303.23 1627.09zM1023.49 1854.86c-.59 0-1.32-.18-1.66-1.57-2.1-8.68-3.57-17.72-5-26.46-1.74-10.69-3.53-21.74-6.53-32.5a292.24 292.24 0 00-21.91-56 303.48 303.48 0 00-32.88-50.59c-8.42-10.46-17.82-20.19-26.92-29.6-3.11-3.22-6.29-6.5-9.42-9.82 13.16 8.07 26.16 19.7 40.44 36.1a277 277 0 0134.73 50.15 287.51 287.51 0 0123.6 57.66c5.32 18.71 10.81 40.32 8.52 60a3.11 3.11 0 01-3 2.63zM1054.05 1859.8a2.81 2.81 0 01-2.06-.75 2.15 2.15 0 01-.46-1.68c.79-10.34 2.79-20.88 4.73-31.07 1.08-5.66 2.2-11.51 3.09-17.28 2.73-17.52 4.84-33.23 6.45-48 6.66-61.28 6.7-119.38.13-172.67a561.71 561.71 0 00-16.84-83.71c-3.61-12.77-8.1-26.29-13.7-41.32-2.12-5.66-4.48-11.31-6.77-16.78-3-7.26-6.19-14.77-8.72-22.28a.73.73 0 01-.06-.29h0a2.06 2.06 0 01.62-.12.85.85 0 01.73.32c8.86 12.51 15.13 27.31 21.3 42.65a466.92 466.92 0 0115.73 46.28c14.61 51.32 21.46 109 20.37 171.3a853.06 853.06 0 01-6.28 87.82c-1.81 14.78-3.78 28.47-6 41.87-.47 2.76-.91 5.54-1.36 8.34-1.89 11.87-3.85 24.14-7.66 35.35a3.28 3.28 0 01-3.2 2.06zM1105.87 1832a3.46 3.46 0 01-2.5-1 4.21 4.21 0 01-1.06-3.09c0-32.94 3-66.6 5.88-99.16l.44-5c5.47-62.14 13.58-122.92 24.09-180.65 4.54-24.92 10.78-57.67 18.85-90l.42-1.7c6.16-24.7 12.51-50.13 21.26-74.19-3.37 20.08-7.77 40.23-12 59.81-2.25 10.3-4.57 20.94-6.71 31.42-13 63.75-22.74 121.88-29.72 177.68-3.74 29.88-6.87 60.39-9.29 90.69-1.31 16.39-2.16 33.07-3 49.19-.7 13.7-1.42 27.86-2.42 41.76a4.22 4.22 0 01-4.21 4.27zM1132.25 1847.17a4.86 4.86 0 01-4.75-4.14c-1.08-11.16.3-22.8 1.64-34.06.18-1.58.37-3.15.55-4.72 1.47-12.87 3.27-25.78 5.35-38.37a692.8 692.8 0 0117.38-76.77c12.54-44 31-88.45 59.86-144.06.35-.69.71-.69.9-.69a2.19 2.19 0 011.69 1 1.45 1.45 0 010 1.53c-21 40.5-38.68 88.26-54 146-6.43 24.23-11.88 49.89-16.17 76.29-2 12.32-3.71 24.83-5 37.2-.42 3.88-.75 7.84-1.06 11.66-.73 8.77-1.49 17.84-3.4 26.45-.39 1.76-1.38 2.66-2.94 2.66z" fill="#000000" class="color000 svgShape"/><path d="M1155.17,1828.63a5,5,0,0,1-3.48-1.46,3.06,3.06,0,0,1-.9-2.29c.41-9.3,3-18.59,5.51-27.58.33-1.16.65-2.32,1-3.47,3.33-12.08,6.46-22,9.87-31.2,7.52-20.28,16-36.61,26.08-49.94,22.81-30.3,54.75-48.4,85.44-48.4,1.28,0,2.57,0,3.85.09-4.62,1.92-9.34,3.67-14,5.37-11.15,4.12-22.67,8.39-33.1,15.13a128.08,128.08,0,0,0-36,35.86c-9.89,14.67-17.89,31.08-24.45,50.17-2.85,8.29-5.62,17.5-8.47,28.14q-.81,3-1.57,6c-2,7.68-3.79,14.93-7,21.87a2.83,2.83,0,0,1-2.78,1.67Z" fill="#000000" class="color000 svgShape"/><path fill="#6fc183" d="M1175.19,1643.86A63.08,63.08,0,0,0,1159,1616l-12.76-9.85a62.82,62.82,0,0,0-31.82-8.61,60.83,60.83,0,0,0-57.6,38.75,47.42,47.42,0,0,0-5.43,24.29l2.25,16.75a63,63,0,0,0,16.21,27.82l12.76,9.85a62.62,62.62,0,0,0,31.81,8.61A60.83,60.83,0,0,0,1172,1684.9a47.41,47.41,0,0,0,5.43-24.28Z" class="color6fc183 svgShape"/><path d="M1116.37 1728c-.69 0-1.37 0-2 0a67.3 67.3 0 01-33.88-9.18l-.47-.32-13.18-10.22a67.59 67.59 0 01-17.29-29.68l-.12-.59-2.29-17.16a65.16 65.16 0 0141.36-61.73 51.92 51.92 0 0126-5.75 67.32 67.32 0 0133.88 9.18l.47.32L1162 1613a67.43 67.43 0 0117.3 29.67l.12.59 2.29 17.17a65.19 65.19 0 01-41.36 61.72A51.67 51.67 0 011116.37 1728zM1085 1711.48a58.76 58.76 0 0029.44 7.89h.14a43.42 43.42 0 0022.14-4.94l.32-.17.34-.11a43.2 43.2 0 0018.48-11.88l.22-.22a43.16 43.16 0 0011.88-18.47l.11-.35.17-.32a43.52 43.52 0 005-21.93l-2.19-16.25a59 59 0 00-14.85-25.47l-12.3-9.51a58.89 58.89 0 00-29.44-7.89h-.15a43.46 43.46 0 00-22.13 4.94l-.32.17-.35.11A43.16 43.16 0 001073 1619l-.22.22a43.22 43.22 0 00-11.88 18.47l-.11.35-.17.32a43.42 43.42 0 00-4.95 21.93l2.18 16.25a59 59 0 0014.86 25.47zM1064.2 1845.22c-1.94 0-5.26-1-5.4-4.94a551 551 0 00-83.11-272.08c-18.82-30.31-35.31-51.74-53.47-69.49-11.37-11.12-21.56-19.36-32.08-25.94-12.35-7.72-25.62-12.75-39.27-17.64a1.45 1.45 0 01-.87-1.63c.1-.54.34-.64.8-.64 34.36 1 65.54 27 81.07 42.36 18.89 18.71 36.41 41.59 55.14 72a559.66 559.66 0 0142.92 85.81 550.21 550.21 0 0139.1 187.45 4.4 4.4 0 01-1.12 3.34 5.15 5.15 0 01-3.71 1.4z" fill="#000000" class="color000 svgShape"/><path fill="#6fc183" d="M882.32,1395.13c-20.62-22-56.07-35.53-85.23-41.28-32.36-6.39-87.31-1.81-95,40.12-6.65,36.22,15.38,62.18,44,80.79,20,13,46.51,30.1,69.77,34.47,29,5.45,62.28-3.31,77.1-31.37C907.54,1450.31,903.76,1418.05,882.32,1395.13Z" class="color6fc183 svgShape"/><path d="M832,1515a91.49,91.49,0,0,1-16.87-1.56c-24.34-4.58-51.49-22.21-71.31-35.09-36.5-23.7-51.95-52.35-45.92-85.15,2.48-13.53,9.62-24.39,21.22-32.27,22.58-15.36,56.58-15.68,78.83-11.28,36.64,7.23,69.35,23.14,87.52,42.55,22.38,23.92,26.83,58.33,11.34,87.66C883.57,1504.85,857,1515,832,1515Zm-59.61-159.21c-17.35,0-35.61,3.48-48.46,12.22a40.15,40.15,0,0,0-17.61,26.74c-5.34,29.07,8.85,54.78,42.16,76.42,19.22,12.49,45.55,29.59,68.23,33.86,25.86,4.86,58.31-2.27,72.52-29.17,13.77-26,9.84-56.59-10-77.8h0c-17-18.16-48-33.12-82.92-40A124.94,124.94,0,0,0,772.36,1355.79Z" fill="#000000" class="color000 svgShape"/><polygon fill="#f3ce90" points="1191.06 2203.47 985.38 2203.47 941.39 1823.32 1224.06 1823.32 1191.06 2203.47" class="colorf3ce90 svgShape"/><path d="M1194.5,2207.21H982.05l-44.87-387.64h291Zm-205.78-7.49h198.91L1220,1827.07H945.59Z" fill="#000000" class="color000 svgShape"/><rect width="443.5" height="73.11" x="868.28" y="2023.14" fill="#ef7c59" rx="36.55" class="coloref7c59 svgShape"/><path fill="#ef7c59" d="M824.18 2685.17h0a12.22 12.22 0 01-10.54-13.64l129-599.52a12.22 12.22 0 0113.63-10.54h0a12.23 12.23 0 0110.54 13.64l-129 599.52A12.21 12.21 0 01824.18 2685.17zM1341.27 2685.17h0a12.22 12.22 0 0010.54-13.64l-129-599.52a12.22 12.22 0 00-13.63-10.54h0a12.23 12.23 0 00-10.54 13.64l129 599.52A12.21 12.21 0 001341.27 2685.17z" class="coloref7c59 svgShape"/><path d="M3590.69 1581.9c0 .06 0 .11 0 .16h145.77a3.33 3.33 0 010 6.64h-206.4v114a3.06 3.06 0 11-6.1 0v-114h-114a3.33 3.33 0 010-6.64h174.69s0-.1 0-.16v-114h-114a3.33 3.33 0 010-6.63h222.65v-123H3579.14a3.33 3.33 0 010-6.63h186.73a3.33 3.33 0 010 6.63h-66.58v123h97.81a3.33 3.33 0 010 6.63H3590.69zM1230.17 1029.89H1033.52V914.07h117.75a3.44 3.44 0 000-6.85H926a3.44 3.44 0 000 6.85h101.24v115.82H893a3.44 3.44 0 000 6.86h213.1v117.73a3.16 3.16 0 106.3 0V1036.75h117.74a3.44 3.44 0 000-6.86z" fill="#000000" class="color000 svgShape"/><path fill="#f3ce90" d="M3733.82,2603.07c-14.88,25.63-41.94,41.56-68.84,54-128.37,59.48-275.21,64.45-416.31,54-46.2-3.43-92.69-8.49-136.78-22.72s-86-38.31-115.09-74.39-43.83-85.13-32.59-130.08c10.68-42.72,43.43-77.54,81.95-98.89s82.51-30.68,126.19-36.27A839.41,839.41,0,0,1,3484,2367.83c75.46,19.09,168.47,44,224,102.57C3740.34,2504.44,3759,2559.67,3733.82,2603.07Z" class="colorf3ce90 svgShape"/><path d="M3346.75,2722.88c-34.23,0-70.61-1.45-109.62-4.35-45.05-3.35-92.93-8.45-137.77-22.92-49.58-16-90.08-42.21-117.12-75.78a171.78,171.78,0,0,1-32.21-63.31c-6.33-23.94-6.74-48.31-1.2-70.49,10.15-40.59,40.78-77.62,84-101.6,42.47-23.53,90.57-32,127.73-36.77a838,838,0,0,1,313.23,19.21c66.86,16.92,167.91,42.48,226.1,103.78,31.78,33.49,53.6,90.88,26.38,137.76h0c-16.18,27.87-46.3,44.44-70.74,55.77-60.34,28-127.31,45.49-204.74,53.59A997.31,997.31,0,0,1,3346.75,2722.88Zm-81.36-373.27a817.54,817.54,0,0,0-103.71,6.54c-36.4,4.66-83.47,12.94-124.67,35.77s-70.29,57.89-79.87,96.18c-10.23,40.91,2,89.33,31.77,126.36,26,32.27,65.09,57.51,113.08,73,44,14.2,91.25,19.22,135.78,22.53,110.45,8.21,273.54,11.59,414.19-53.58,23.3-10.8,52-26.5,66.94-52.3l3.7,2.15-3.7-2.15c25-43.07,4.46-96.32-25.19-127.56-56.49-59.5-156.09-84.7-222-101.38A844.93,844.93,0,0,0,3265.39,2349.61Z" fill="#000000" class="color000 svgShape"/><g style="mix-blend-mode:multiply" fill="#000000" class="color000 svgShape"><path fill="#f19a6d" d="M3098.93,2539.88c18.91,13.46,44.25,21.27,69.56,27.46,101,24.7,212.17,28,315.71,9.35,25.68-4.63,51.4-10.75,72.62-22s37.52-28.45,38.43-47.25c1.16-23.92-22.78-45.59-52.13-57.36s-63.53-15.54-96.85-19.11c-98-10.51-193-15.93-288.83,5.86C3096.81,2450.58,3040.67,2498.42,3098.93,2539.88Z" class="colorf19a6d svgShape"/><path d="M3348.93,2592.82c-61.71,0-123.49-7.14-181.46-21.32-23.73-5.81-50.73-13.69-71-28.13h0c-25.51-18.15-28-36.31-25.59-48.35,6.19-30.9,48.73-54,85.63-62.4,92-20.91,182.54-17.5,290.23-5.94,31.74,3.41,67.71,7.27,98,19.4,34.44,13.8,56,38,54.82,61.53-.91,18.78-16.13,37.78-40.7,50.84-23,12.19-50.23,18.19-73.87,22.45A770.92,770.92,0,0,1,3348.93,2592.82ZM3301.37,2426c-49.07,0-95.88,4.23-143,14.94-41.27,9.39-74.55,32.82-79.13,55.73-2.78,13.9,4.67,27.25,22.16,39.7h0c19.11,13.6,45.14,21.17,68.09,26.78,99.95,24.45,211.44,27.75,313.93,9.29,21.65-3.9,49.33-9.88,71.37-21.59,21.88-11.62,35.4-28,36.16-43.68,1-19.88-18.44-40.75-49.45-53.17-29.18-11.69-64.52-15.49-95.71-18.83C3394.38,2429.68,3346.91,2426,3301.37,2426Z" fill="#000000" class="color000 svgShape"/></g><path fill="#99b1da" d="M3300.82,2245.34c-8.46,2.64-17.11,6.55-21.87,14.27s-3.69,20.17,4.22,25c6.37,3.86,14.06,1.56,21,.09,27.78-5.85,58.88,4.65,79.33,26.77,1.34,1.45,2.7,3.06,3,5,.61,3.38-2,6.25-4.51,8.23-9.2,7.18-17.51,8-28.32,9.48-12.83,1.81-25.61,5.78-38.23,8.63-1-8.33-7.74-15.22-15.27-18.25s-15.7-2.86-23.55-2.11c-25.16,2.4-40.4,6.22-62,19.22,7.85-8.11,11.15-16.11,16.66-26.23,2.8-5.14,5.42-10.49,6.71-16.32a40.66,40.66,0,0,0-3.36-26.55c-.89-1.78-2-3.62-3.81-4.35s-3.69-.19-5.45.36c-5.9,1.84-11.88,3.71-17,7.12s-9.53,8.61-10.7,15c-.7,3.82-.25,7.89-1.22,11.63s-11.64,21.55-15.73,25.61c3.83-18.25-5.68-29.14-12.17-31.13-3.48-1.07-5.17,1.16-7.51,3.3a14.31,14.31,0,0,0-14.42,10.26,11,11,0,0,0-5,9.39c0,1.78.45,3.56.48,5.34.35,22.4-10.35,38.16-21.58,55.71-19.6,30.63-42.59,58.93-65.56,86.72-5.46,6.6-11.39,14.49-9.67,23.36,1.58,8.18,9.51,13.91,17.32,15.19s15.55-.91,23-3.07c0,0,18.94,15.91,20.82,17.54,6,5.22,11.35,10.28,18.06,14.62a247,247,0,0,0,50.75,25.21c30,10.78,62.75,16.39,93.6,11.48,72.63-11.55,142.49-36.06,209.55-65.28l.38-.16c80.2-35,150.76-81.55,177-173.58,15-52.66,1-110.41-21.28-160.26-4.74-10.61-9.73-21.09-14.5-31.68a149.68,149.68,0,0,0-24.23-37.58c-7.12,14.95-15,47.7-15,47.7-17.15,1-14.2-.82-31.35.16-5.92-12.72-18.6-31-29.28-39.61-4.3,23-11.82,49.17-26,68.06-6.72,8.94-15.85,16.85-18.19,27.78-2.27,10.64,2.52,21.44,7.89,30.9,7,12.23,21.84,36.54,3,46.61-11.44,6.12-24.24-4-34.74-9-22.4-10.6-46.74-15.65-68.55-27.77C3359.67,2234.81,3325,2237.79,3300.82,2245.34Z" class="color99b1da svgShape"/><path d="M3300.32,2243.53c-13.44,4.12-27.83,12.82-26.38,28.9.58,6.36,3.76,12.45,9.73,15.23,7.7,3.59,16.11.49,24-.8,15.67-2.58,32.21.29,46.5,7.06a86.55,86.55,0,0,1,20.19,13.2c1.56,1.37,3.06,2.79,4.52,4.27s3.48,3.07,4.15,4.93c1.4,3.87-5.18,7.26-7.81,8.71-8.1,4.46-17.57,4.68-26.49,6.2-11.53,2-22.77,5.33-34.17,7.9l4.65,2.64c-1.39-9.69-9-17.42-17.9-20.93-10.56-4.19-22.34-2.72-33.32-1.38a143.67,143.67,0,0,0-27.93,5.8,138.79,138.79,0,0,0-27.34,12.89l4.9,6.35a75.26,75.26,0,0,0,11.26-15.6c3.15-5.67,6.36-11.42,9.12-17.29,6.1-13,7-27.09.86-40.25-1.22-2.63-2.83-5.16-5.41-6.63-3-1.72-6.44-1.06-9.58-.09-6.59,2-13.4,4.26-19,8.41a28.48,28.48,0,0,0-10.64,14.27c-1,3.15-1,6.46-1.24,9.73a23.23,23.23,0,0,1-.56,4.24c-.27,1.05.1-.05-.42,1.08a118.18,118.18,0,0,1-7,12.35c-2.18,3.5-4.37,7.27-7.22,10.19l7.09,4.13c2-10.2,1-21-5.59-29.41a20.88,20.88,0,0,0-7.55-6.16c-5.54-2.53-9.55-.22-13.64,3.6l3-1.25c-8.59-.35-15.91,5.37-18.53,13.38l2-2.54a15.57,15.57,0,0,0-6.54,8.91c-1.15,4.31.06,8.83-.11,13.23a64.36,64.36,0,0,1-5.83,23.79,169.76,169.76,0,0,1-12.17,21.39c-5.11,8-10.31,15.92-15.77,23.69-11.1,15.8-23,31-35.1,46-6,7.45-12.21,14.77-18.23,22.23-5.16,6.39-10.37,13.87-10,22.48.38,9.06,6.64,16.45,14.76,19.95,10.18,4.38,21.16,1.73,31.34-1.21l-4.22-1.12c5.27,5.25,11.56,9.74,17.25,14.54,3.74,3.15,7.36,6.41,11.07,9.59a143.46,143.46,0,0,0,21,14.62c29.52,17.32,63,29.11,97.13,32.4,17.71,1.71,34.87.08,52.32-3,17.22-3.06,34.32-6.84,51.26-11.21a895,895,0,0,0,99.67-32.56c52.65-20.45,106.2-43.11,150.27-79.22a239.76,239.76,0,0,0,51.54-57.94c15.07-24.09,26.42-51.9,30.52-80.11,4.83-33.29.07-67.22-9.64-99.22a388,388,0,0,0-18-47c-7.19-15.9-13.8-32.47-23.17-47.24a160.82,160.82,0,0,0-14.79-19.68c-1.84-2.1-6-1.66-7.22.93-7.23,15.35-11.53,32.36-15.51,48.8l4.45-3.39c-10.47.57-20.88-.41-31.35.15l4,2.29a135.05,135.05,0,0,0-13.13-21.75c-4.95-6.78-10.33-13.46-16.86-18.8-2.44-2-7-1.71-7.75,2-4.9,26-12.69,51.9-30,72.38-4.15,4.91-8.52,9.87-11.37,15.69a33.57,33.57,0,0,0-3.07,20.35c1.84,12,9.12,22,14.47,32.61,3.45,6.84,8.36,17.11,4.19,24.61-6.47,11.62-20.77,3.72-29-.8-12.5-6.84-26-11.5-39.4-16.22-6.94-2.44-13.88-4.89-20.66-7.74-6.48-2.72-12.49-6.26-18.85-9.2-25.31-11.7-56.38-9.28-82.41-1.24-5.82,1.8-3.33,11,2.53,9.17,23.11-7.15,50.93-10,73.76-.37,6.42,2.72,12.38,6.42,18.79,9.19,7,3,14.06,5.65,21.21,8.18,13.68,4.84,27.51,9.37,40.28,16.35,10.9,6,23.9,12.4,35.49,4.19,9-6.38,10.48-16.89,7.75-27-2.67-9.89-8.28-18.48-13.06-27.41-3.5-6.54-6.61-13.82-6.22-21.4.33-6.33,3.72-11.86,7.52-16.74,4.62-5.93,9.76-11.38,13.89-17.68a125,125,0,0,0,10.57-20.38c5.9-14.14,9.73-29,12.56-44.06l-7.75,2c12.22,10,21.88,24.49,28.57,38.66a4.5,4.5,0,0,0,4,2.29c10.47-.57,20.88.41,31.35-.17a4.72,4.72,0,0,0,4.45-3.38c1.45-6,3.05-12,4.74-17.89,2.74-9.67,5.52-19.59,9.81-28.72l-7.22.93c11,12.49,18.88,26.53,25.76,41.57,7.13,15.6,14.6,31,20.66,47.1,11.49,30.42,19.24,62.8,18.48,95.49-1.25,54.53-29.37,106.56-68.76,143.23-38.89,36.21-87.92,59-136.54,79a989.9,989.9,0,0,1-96.6,34.51c-16.59,4.9-33.33,9.27-50.22,13-16.61,3.67-33.65,7.54-50.67,8.53-33.43,2-67.45-6.78-97.61-20.83-15.11-7-29.85-15.26-42.42-26.27-6.65-5.82-13.41-11.48-20.18-17.16-1.87-1.58-3.94-3.07-5.68-4.8a4.36,4.36,0,0,0-4.22-1.11c-9.79,2.83-21.91,6.25-30.48-1.39-8.17-7.29-3.74-17,1.92-24.27,7-9,14.47-17.59,21.6-26.45,7.41-9.22,14.7-18.52,21.78-28s13.77-18.83,20.22-28.55c5.81-8.75,11.7-17.58,16.66-26.86,4.65-8.69,8.19-17.92,9.52-27.72a70.67,70.67,0,0,0,.65-7.82c.07-2.82-.62-5.67-.45-8.46a7,7,0,0,1,2.37-4.95,7,7,0,0,0,2.21-2.36,23.37,23.37,0,0,1,1.57-3.32,10.36,10.36,0,0,1,4.82-3.77c2.47-.93,5-.12,7.14-1.8,1.44-1.11,2.22-2.54,3.65-2.14a11.64,11.64,0,0,1,2.72,1.7c6.91,5.78,7.85,15.86,6.22,24.13-.78,4,4,7.34,7.09,4.13,5.07-5.2,8.85-12.13,12.4-18.4a50.82,50.82,0,0,0,4.21-8.45c1.73-5.11.31-10.76,2.41-15.78,2-4.77,6.12-8.23,10.57-10.63a50.45,50.45,0,0,1,8-3.36c1.71-.58,6.42-3,8.12-2.08s2.63,4.69,3.19,6.32a37,37,0,0,1,2,9.17,38.06,38.06,0,0,1-3,17.69c-2.53,6.1-5.95,11.91-9.06,17.73a71,71,0,0,1-10.82,15.66c-3.09,3.27.87,8.78,4.9,6.35a127.55,127.55,0,0,1,48.36-17.47c9.48-1.37,20-3.11,29.42-.89,8.54,2,16,8,17.34,17,.31,2.08,2.86,3,4.65,2.64,10-2.32,19.95-5.23,30-7.28,8.29-1.69,17-2,25-4.81,6.66-2.3,16.06-6.93,18.15-14.33,2.28-8-7.57-15.09-12.93-19.4a92,92,0,0,0-43.29-19.37,82.87,82.87,0,0,0-23.06-.44c-4,.5-7.9,1.42-11.84,2.26-4.31.91-9.16,1.81-13.31-.16-7.11-3.35-8.28-13-5.74-19.69,3.41-8.93,13.31-13.29,21.73-16.06C3303.59,2246.39,3302.64,2242.82,3300.32,2243.53Z" fill="#000000" class="color000 svgShape"/><path fill="#5681bf" d="M3592.39 2262.86a30.94 30.94 0 01-22.85-1.39c-13.51-6.27-22-21.65-24-36.87s1.34-30.38 5.64-44.74c2.14-7.16 4.52-14.27 6.61-21.47 8.42 0 9.38.91 23 .14 0 0 7.91-32.75 15-47.71a149.91 149.91 0 0124.23 37.59c4.77 10.59 9.76 21.07 14.5 31.68 8.48 19 12.7 39.95 17.63 60.48-10.61 7.28-22.34 3.71-34.44 8.31C3608.7 2252.32 3601.53 2259.74 3592.39 2262.86zM3436.68 2499.42c-10.58-8.14-18.08-21.45-17.71-34.9.31-11.06 5.67-21 12-29.57 21.58-29.2 56.46-46.77 92.43-46.54 14.26.08 29.38 2.68 42.07-3.55 8.45-4.15 14.73-11.74 20.87-19.06s12.62-14.77 21.27-18.49 20-2.65 26.36 5.14c4.19 5.18 5.31 12.08 5.12 18.84-33.47 64.16-93.27 101.13-159.7 130.09l-.39.17c-6.33 2.76-12.72 5.43-19.1 8.1A55.74 55.74 0 013436.68 2499.42zM3126.32 2530a86.41 86.41 0 01-8.22-6.12c5-14.21 15.17-26.31 27.32-34.56 5.86-4 12.39-7.27 19.48-7.78 13.62-1 26.33 8.29 37.1 17.77 3.32 2.91 6.69 6 10.72 7.47 3.72 1.4 7.71 1.36 11.59 1.14 10.59-.61 21.17-2.52 31.77-.95s21.64 7.52 26.07 17.93a33.15 33.15 0 012.29 13.64 52.61 52.61 0 01-8.72 27.23c-1.69.29-3.36.65-5 .92-30.85 4.91-63.64-.7-93.6-11.48A247 247 0 013126.32 2530zM3307.25 2433.85a50.78 50.78 0 01-12.16-1.46c-10.2-2.52-18.44-8.85-27.17-15.55-7.35-5.64-15-11.48-24-15.06a89 89 0 00-33-6.24c-17.74 0-37 5-57.32 15a300.5 300.5 0 0015.52-27c8.67-17.38 13.84-47 14.71-54.59 4.68-5.49 14.45-21.66 15.55-25.91a34.1 34.1 0 00.83-7 34.84 34.84 0 01.43-4.83c1.24-6.77 6.43-11.09 9.42-13.06 4.85-3.2 10.67-5 16.3-6.77a10.29 10.29 0 012.69-.58 2 2 0 01.74.13c1 .43 2 2.32 2.3 2.94a37.76 37.76 0 013.12 24.59c-1.23 5.57-3.81 10.77-6.42 15.55-1.09 2-2.1 3.93-3.07 5.79-3.82 7.29-7.11 13.59-13.11 19.79l3.65 4.59c21.83-13.15 37-16.54 60.73-18.81 3.2-.3 5.8-.44 8.2-.44a37 37 0 0114 2.36c6 2.43 12.53 8.27 13.44 15.85l.39 3.25 3.19-.72c4.24-.95 8.56-2 12.74-3.11a239.39 239.39 0 0125.25-5.47l1.86-.26c10-1.38 18.58-2.57 27.87-9.81 5.5-4.29 6.09-8.39 5.61-11.09s-2.21-4.8-3.78-6.5c-17-18.36-41.63-29.32-65.95-29.32a78.72 78.72 0 00-16.17 1.66l-2.22.48a48.17 48.17 0 01-9.91 1.49 12.68 12.68 0 01-6.76-1.69 12 12 0 01-5.16-7.65 18 18 0 011.92-13.22c4.52-7.34 13.19-10.81 20.23-13a140.54 140.54 0 0140.8-6.3c15.54 0 29.25 3 39.63 8.82 12.45 6.93 25.83 11.63 38.77 16.17 10 3.5 20.25 7.11 29.95 11.7 2 1 4.19 2.14 6.46 3.39 6.67 3.66 14.23 7.81 21.84 7.81a19.16 19.16 0 009.1-2.25c4.28-2.29 7.43-6.38 9.1-11.66a29 29 0 009.72 7.64c1 .49 2.07.91 3.08 1.31a18.06 18.06 0 015.51 2.95c3.73 3.4 3.41 10.18.76 14.38-2.86 4.55-7.59 7.32-13.48 10.47-7.88 4.22-15 7.91-22.51 10.44a157 157 0 01-17 4.34 148.15 148.15 0 00-19.4 5.14c-20.9 7.62-37.1 24-50.18 39.1-3 3.48-6 7.07-9 10.54-10.4 12.37-21.15 25.15-33.85 35C3337.13 2427.91 3321.57 2433.85 3307.25 2433.85z" class="color5681bf svgShape"/><path fill="#99b1da" d="M3508.63,2319.64c-9.46-3.85-19.65-4.58-29.43-7.17-18.06-4.77-34.45-15.8-48.47-29.09-17.35-16.45-31.09-35.75-44.56-55.53-11.23-16.48-26.21-31.85-45.39-36.33-5.09-1.19-10.41-1.77-15.32-.35s-9.35,5.12-10.65,10.31c-1.16,4.58.21,9.52,1.61,14.16,2,6.7,4.37,13.75,9.47,18.42,3.35,3.07,7.57,4.79,11.28,7.34,6.3,4.33,10.91,10.87,15.16,17.41a366.24,366.24,0,0,1,23.63,42.11c6.32,13.24,11.89,26.92,19.62,39.35s18,23.77,30.88,29.6Z" class="color99b1da svgShape"/><path d="M3509.05,2318.11c-7.44-3.11-15.43-4.36-23.26-6.07a91.79,91.79,0,0,1-20.9-7.19c-13.36-6.58-25.2-15.91-35.7-26.38-11.06-11-20.74-23.35-29.8-36.06-8.56-12-16.19-24.8-26.79-35.17-10.15-9.93-22.72-17.6-37-19.32-7.29-.88-15.38.72-20.19,6.71a16.55,16.55,0,0,0-3.69,10.7c0,4.12,1.25,8.15,2.45,12.06,2.07,6.77,4.63,14,10.07,18.8,2.91,2.58,6.35,4.31,9.65,6.3a35.74,35.74,0,0,1,8,6.73c5,5.55,9,12.24,13,18.69q6.42,10.44,12.14,21.3c3.85,7.31,7.39,14.76,10.83,22.27,3.36,7.32,6.69,14.67,10.49,21.77,6.9,12.9,15.66,25.69,28.08,33.82a66.77,66.77,0,0,0,8.87,4.83,2.41,2.41,0,0,0,3.2-.84,2.36,2.36,0,0,0-.84-3.21c-6.28-2.86-11.24-7-16.14-11.84a88.15,88.15,0,0,1-12.84-16.07c-8.56-13.42-14.42-28.3-21.36-42.56a355.21,355.21,0,0,0-24-42c-4.15-6.21-8.78-12.27-15.05-16.48-3-2-6.34-3.52-9.23-5.69a20.76,20.76,0,0,1-5.89-7.28,53.82,53.82,0,0,1-3.63-9.35c-1.12-3.58-2.38-7.28-2.46-11.06a12.07,12.07,0,0,1,.85-4.93c-.14.34.05-.08.07-.12s.16-.34.25-.5c.17-.33.36-.65.56-1,0-.06.6-.86.38-.58a12.64,12.64,0,0,1,.91-1c.26-.27.52-.52.79-.77l.42-.36s.39-.31.11-.1a15,15,0,0,1,1.85-1.2c.33-.18.65-.35,1-.51l.5-.22.13,0a22.26,22.26,0,0,1,2.68-.78,27.35,27.35,0,0,1,11.1.38,51.89,51.89,0,0,1,9.66,3,65.36,65.36,0,0,1,16.16,10.2,103.52,103.52,0,0,1,14.05,14.8c4.35,5.51,8.39,11.79,12.51,17.66,8.92,12.69,18.27,25.14,28.85,36.5,10.19,10.92,21.61,21.16,34.64,28.58a99.53,99.53,0,0,0,19.81,8.69c7.43,2.3,15.14,3.23,22.73,4.82a70.85,70.85,0,0,1,11.15,3.17,1.59,1.59,0,0,0,1.95-1.11,1.63,1.63,0,0,0-1.11-1.95Z" fill="#000000" class="color000 svgShape"/><path fill="#99b1da" d="M3095.29,2474.34c12,34.52-32.36,60.35-58.43,63.85-33.92,4.55-64.11-16-91.76-35.38-62-43.47-148.12-34.88-201.4,7-10,7.9-25.58,24.59-16.62,40.54,7.74,13.78,30.11,13.88,41.41,10.43l62.55-19.08c16-4.88,33.28-9.61,50.69-5.69,29.16,6.59,55.58,34.21,82.58,47.47,68.77,33.78,171.44-5.72,172.14-89.18Z" class="color99b1da svgShape"/><path d="M3093.82 2474.74c8.85 27.91-19.8 48.76-42.8 56.8-14.9 5.2-30.34 5.17-45.54.62-18.13-5.43-34.4-16-49.84-26.68-7.42-5.13-14.69-10.41-22.59-14.8a164.71 164.71 0 00-23.72-10.73 171.55 171.55 0 00-49.87-9.78 183.72 183.72 0 00-95.8 21.59c-13.56 7.35-27.41 16.49-36.48 29.21-4.88 6.85-8 15.15-6.58 23.63a25 25 0 0013.23 17.7c6.33 3.28 13.73 4.41 20.79 4.3 7.37-.1 14.14-1.93 21.14-4.06 21.16-6.45 42.25-13.26 63.54-19.3 10-2.84 20.29-5.11 30.77-4.82a65.37 65.37 0 0126 6.67c16.39 7.72 30.64 19.17 45.52 29.34 12.64 8.64 25.86 16 40.64 20.24a132.53 132.53 0 0039.21 5c26-.53 52.3-8.16 73.86-22.84 21.31-14.5 38.31-36.43 43.48-62.06 1.37-6.78 1.29-13.62 1.36-20.48.06-4.75-7.32-4.75-7.37 0-.07 6.66-1.62 12.9-3.1 19.46a90.09 90.09 0 01-2.57 9.12c-.5 1.48-1 2.94-1.61 4.38-.12.29-.24.58-.35.87-.57 1.38.17-.39-.18.41s-.68 1.55-1 2.32a90.71 90.71 0 01-21.35 29.08c-18 16.74-42 26.86-66.78 30.28s-51.47-.33-73.83-12.46c-15.65-8.49-29.56-19.79-44.49-29.42-15.48-10-32.42-18.14-51.26-17.6-10.34.3-20.51 2.67-30.4 5.54-10.57 3.06-21.06 6.39-31.58 9.61l-31.27 9.55c-7.2 2.2-12.13 3.53-19.56 3.25-6.25-.23-12.53-1.58-17.76-5.11a16.24 16.24 0 01-6.79-16.31c1.34-7.48 6.41-13.9 11.68-19.11a104.35 104.35 0 0117-13.13c26.91-17.35 58.94-26.43 90.89-26.89 33.21-.48 66.44 8.59 93.91 27.46 29 19.93 62.47 43 99.64 34.8a89.16 89.16 0 0035-16.44c10.08-7.9 19.35-18.38 21.53-31.43a36.45 36.45 0 00-1.8-18.59c-.66-1.81-3.53-1.08-2.93.81zM3302.77 2485.8c-.09-.37-8.64-38-28.39-56.51-21-19.68-48.23-30-72.93-27.7-18.52 1.75-35.6 10.06-54.4 19.93a3.75 3.75 0 01-4.53-5.82c2.82-3.41 33.28-57.95 34.51-87.94l7.49.3c-1 24.43-19 61.94-29.42 80.92 15.18-7.52 29.74-13.35 45.65-14.85 26.8-2.53 56.25 8.57 78.76 29.69 21.44 20.12 30.21 58.73 30.57 60.36zM3592.69 2162h-.17a3.21 3.21 0 01-3-3.37c0-.74 1-18.36 4.87-26.88a3.21 3.21 0 012.77-1.87 3.17 3.17 0 012.93 1.61c3.9 6.8 12.53 21.45 12.62 21.6a3.21 3.21 0 01-5.54 3.26c-.06-.11-4.89-8.31-9-15.31a132.36 132.36 0 00-2.27 17.92A3.21 3.21 0 013592.69 2162zM3519.41 2154.83a3.2 3.2 0 01-2.77-4.81c0-.09 5-8.65 5.77-15.15a3.21 3.21 0 015.7-1.6c5.42 6.8 9.11 16.72 9.27 17.14a3.21 3.21 0 01-6 2.22 77.08 77.08 0 00-4.46-9.57 72 72 0 01-4.69 10.17A3.22 3.22 0 013519.41 2154.83zM3559.12 2188.68a5 5 0 015.2-.63 4.9 4.9 0 012.84 3c1.18 3-.63 16.62-6.35 18C3552.42 2211.08 3555.25 2191.92 3559.12 2188.68zM3505.62 2179.32a4 4 0 014.23-.29 4 4 0 012.13 2.6c.81 2.45-1.32 13.48-6 14.34C3499.1 2197.23 3502.33 2181.78 3505.62 2179.32zM3516.43 2202.55c3.17-.6 6.68 1.39 9.37 2.08 2.26.58 4.44 1.47 5.58 3.28 2.47 3.9-6.7 9.09-10.34 11.68-2.36 1.68-5.17 3.26-7.42 2.88-2.62-.43-3.32-3.27-3.31-5.94A30.54 30.54 0 013512 2207a7.39 7.39 0 011.74-3.08A5.17 5.17 0 013516.43 2202.55zM3491.12 2203.76a3.13 3.13 0 01-1.38-.32 308.16 308.16 0 00-40.09-15.65 3.21 3.21 0 011.83-6.16 316.29 316.29 0 0141 16 3.21 3.21 0 01-1.39 6.11zM3487.65 2214.08a3.1 3.1 0 01-.85-.11c-18.57-5.06-37.57-9.51-37.76-9.55a3.21 3.21 0 011.46-6.26c.19.05 19.3 4.52 38 9.61a3.21 3.21 0 01-.84 6.31zM3487.4 2223.9h-.16c-13.67-.67-33.43-1.6-33.43-1.6l.31-6.42s19.76.93 33.43 1.6a3.21 3.21 0 01-.15 6.42zM3645.33 2217.67l-.31 0c-25.22-2.46-50.87-4.19-76.25-5.12a3.21 3.21 0 01.23-6.42c25.52.94 51.3 2.67 76.64 5.15a3.21 3.21 0 01-.31 6.41zM3625.72 2234.38a3.26 3.26 0 01-.87-.12 464.52 464.52 0 00-55.9-11.89 3.21 3.21 0 11.94-6.35 469.47 469.47 0 0156.69 12.05 3.21 3.21 0 01-.86 6.31zM3605.29 2250.66a3.23 3.23 0 01-1.5-.37 152.85 152.85 0 00-44.35-15.39 3.21 3.21 0 111.15-6.32 159.18 159.18 0 0146.21 16 3.21 3.21 0 01-1.51 6z" fill="#000000" class="color000 svgShape"/><path fill="#5681bf" d="M2773.54,2558.78c-11.3,3.45-33.67,3.35-41.42-10.43-8.95-15.95,6.58-32.64,16.63-40.54a162.78,162.78,0,0,1,39.66-22.61,27.13,27.13,0,0,1,6.78,1.9c9.32,4.05,16.16,13.51,25.71,16.8,11.41,3.93,23-1.89,34.44-4.72,13.58-3.37,28.6-2.27,41.38,4.71s22.93,20.21,25.05,35a44.25,44.25,0,0,1,0,11.61c-11.36-7.42-22.95-13.76-35-16.48-17.41-3.93-34.71.81-50.7,5.68Z" class="color5681bf svgShape"/><path d="M3315.47 2209a22.3 22.3 0 015.23-.29 16.94 16.94 0 015.05 1 21.5 21.5 0 014.32 2.1c.73.44 1.43.92 2.12 1.43.34.25.5.38.87.67a2.56 2.56 0 002.24.5 1.7 1.7 0 001.25-1.64 2.45 2.45 0 00-.81-1.86 15.35 15.35 0 00-1.44-1.07c-.75-.53-1.53-1-2.34-1.5a25.9 25.9 0 00-5.42-2.37 20.8 20.8 0 00-6-.9 13.14 13.14 0 00-6.1 1.6c-1.36.7-.38 2.63 1 2.35zM3327.74 2193.1a7.31 7.31 0 015 .47 27.17 27.17 0 014.44 2.16 38.48 38.48 0 014.08 2.83 14.69 14.69 0 001.28.74c.35.22.69.48 1 .73.74.54 1.49 1 2.26 1.53 1.16.74 2.17-.85 1.39-1.79a26 26 0 00-2-2.11 24.58 24.58 0 00-2.14-2.07 39.24 39.24 0 00-4.7-3.09c-3.26-1.79-7.68-3.66-11.36-2.11a1.47 1.47 0 00-1 1.73 1.43 1.43 0 001.73 1z" fill="#000000" class="color000 svgShape"/><path fill="#414141" d="M3148.09 2310a44.73 44.73 0 013.77 6.54 33.06 33.06 0 011.33 3.6c.38 1.25.6 2.52.94 3.78a.2.2 0 00.4-.06 24.94 24.94 0 00-2.18-7.34 26 26 0 00-4-6.69c-.11-.12-.31 0-.23.17zM3163.58 2302.23c1.46 0 2.33 1.46 2.94 2.58a27.14 27.14 0 011.92 4.35 18.61 18.61 0 01.93 4.48 19.94 19.94 0 01-.38 4.62.21.21 0 00.41.11 11.44 11.44 0 00.44-5.07 19.81 19.81 0 00-1.2-5 22.83 22.83 0 00-2.23-4.58c-.66-1-1.58-1.94-2.86-1.68-.13 0-.1.23 0 .23z" class="color414141 svgShape"/><polygon fill="#5681bf" points="3572.77 1186.05 3509.47 1186.05 3509.47 1000.39 3572.77 996.17 3572.77 1186.05" class="color5681bf svgShape"/><path d="M3576.52,1189.8h-70.79V996.88l70.79-4.72Zm-63.3-7.5H3569V1000.17l-55.8,3.72Z" fill="#000000" class="color000 svgShape"/><polygon fill="#3d5891" points="3611.14 1190.92 3568.58 1185.08 3593.85 1001.14 3636.99 1002.81 3611.14 1190.92" class="color3d5891 svgShape"/><path d="M3614.34,1195.15l-50-6.87,26.24-191,50.66,2Zm-41.54-13.27,35.14,4.82,24.77-180.31L3597.1,1005Z" fill="#000000" class="color000 svgShape"/><polygon fill="#b5cae8" points="3654.01 1190.57 3613.36 1176.64 3676.78 984.44 3718.79 994.37 3654.01 1190.57" class="colorb5cae8 svgShape"/><path d="M3656.38,1195.34,3608.65,1179l65.65-199,49.33,11.66Zm-38.3-21,33.56,11.49L3714,997.07l-34.69-8.2Z" fill="#000000" class="color000 svgShape"/><rect width="236.3" height="46.42" x="3669.82" y="1139.63" fill="#5681bf" class="color5681bf svgShape"/><path d="M3909.87,1189.8h-243.8v-53.91h243.8Zm-236.3-7.5h228.8v-38.92h-228.8Z" fill="#000000" class="color000 svgShape"/><rect width="236.3" height="25.32" x="3682.48" y="1114.32" fill="#99b1da" class="color99b1da svgShape"/><path d="M3922.53,1143.38h-243.8v-32.81h243.8Zm-236.3-7.49H3915v-17.83h-228.8Z" fill="#000000" class="color000 svgShape"/><rect width="236.3" height="25.32" x="3686.7" y="1089" fill="#d1dbed" class="colord1dbed svgShape"/><path d="M3926.75,1118.06H3683v-32.81h243.8Zm-236.3-7.49h228.8v-17.83h-228.8Z" fill="#000000" class="color000 svgShape"/><rect width="546.13" height="50.64" x="3433.52" y="1186.05" fill="#2f4171" class="color2f4171 svgShape"/><path d="M3983.4,1240.43H3429.78V1182.3H3983.4Zm-546.13-7.49h538.64V1189.8H3437.27Z" fill="#000000" class="color000 svgShape"/><rect width="301.22" height="326.32" x="3511.45" y="527.54" fill="#f19a6d" class="colorf19a6d svgShape"/><path d="M3816.41,857.61H3507.7V523.8h308.71Zm-301.21-7.5h293.72V531.29H3515.2Z" fill="#000000" class="color000 svgShape"/><rect width="251" height="271.93" x="3536.56" y="554.73" fill="#ffffff" class="colorfff svgShape"/><path d="M3791.3,830.41H3532.81V551H3791.3Zm-251-7.5h243.51V558.48H3540.3Z" fill="#000000" class="color000 svgShape"/><path fill="#f3ce90" d="M3784.47,603.91V823.52H3539.7V704.31c21.2-22.33,53.11-47,73.43-20.94,32.64,41.85,32.64,50.2,73.44-8.37C3723.1,622.54,3759.65,576.78,3784.47,603.91Z" class="colorf3ce90 svgShape"/><path fill="#ef7c59" fill-rule="evenodd" d="M992,522.39a159.71,159.71,0,1,1-109.5,197.54A159.71,159.71,0,0,1,992,522.39Z" class="coloref7c59 svgShape"/><path fill="#ffffff" fill-rule="evenodd" d="M1000.9,553.6A127.24,127.24,0,1,1,913.65,711,127.25,127.25,0,0,1,1000.9,553.6Z" class="colorfff svgShape"/><path fill="#f19a6d" fill-rule="evenodd" d="M1004.19 565.07a9 9 0 1011.16 6.18A9 9 0 001004.19 565.07zM1062.69 769.13a9 9 0 1011.17 6.19A9 9 0 001062.69 769.13zM925.23 707.51a9 9 0 106.18-11.16A9 9 0 00925.23 707.51zM1129.28 649a9 9 0 106.2-11.16A9 9 0 001129.28 649zM1085.8 729.41a8.82 8.82 0 1010.29-14.33l-50-36-23.78-83a8.87 8.87 0 10-17.05 4.89l24.61 85.85h0a8.78 8.78 0 003.34 4.73z" class="colorf19a6d svgShape"/><path fill="#ffffff" d="M1902.67,640.85a61.23,61.23,0,0,0-35.87-15.62c-14.56-1.19-30.7,4.07-35.44,13.37-2.09-21-6.53-42.43-22.19-60.61s-44.88-32.47-76.18-31.19c-29.51,1.21-54.78,15.88-68.82,33.3s-18.86,37.39-23.47,56.94c-11.19-9.19-34.81-6.3-46.48,2.61s-14.63,21.37-17.12,33.1h347.67C1919.62,663.55,1911.33,648.78,1902.67,640.85Z" class="colorfff svgShape"/><path d="M1907.76,681H1547.25l1.11-5.28c2.28-10.75,5.39-25.48,18.74-35.67,11.24-8.57,32.41-12.2,46.27-6,4.19-17.38,9.62-36.34,22.93-52.85,16.44-20.39,44-33.77,72-34.92,30.22-1.24,61.49,11.6,79.67,32.7,14.28,16.58,19.58,35.8,22.09,53.54,8.58-6.15,21.72-8.69,32.59-7.8a66,66,0,0,1,38.46,16.75h0c9.23,8.45,17.82,23.81,23,33Zm-349.67-8.75h334.72c-4.81-8.31-11.18-18.46-17.55-24.3h0A57.06,57.06,0,0,0,1842,633.43c-13.54-1.11-27.53,3.82-31.19,11L1804,657.67l-1.48-14.81c-1.87-18.81-5.85-40.43-21.14-58.18-13.52-15.7-41.25-31-72.7-29.67-30.54,1.25-53.91,17.18-65.59,31.67-13.57,16.83-18.17,36.33-22.62,55.2l-1.61,6.82-5.42-4.45c-9.56-7.85-30.92-5-41,2.71C1563.85,653.49,1560.55,662,1558.09,672.21Z" fill="#000000" class="color000 svgShape"/><path fill="#ffffff" d="M2565.19,989.46c-11-22.89-22.35-44-42.48-52.4-33.28-13.86-52.86,15.25-56.78,37.44s-8.81,38.82-16.64,33.27-25.46-15.25-40.15-2.77-4.89,30.5-13.7,41.59-21.54-2.77-33.29,2.78-7.83,19.41-14.69,26.34-15.69,7.19-25.45,2.77-12.73,25.91-12.73,25.91h353.44s-1-45.32-14.69-71.66-28.39-12.48-46-8.32c-13.45,3.17-23.88-8.05-31.11-23C2569,997.4,2567.09,993.4,2565.19,989.46Z" class="colorfff svgShape"/><path d="M2661.75,1116.92H2299l.49-4.81c.55-5.41,3-23.41,10.84-27.95a8.62,8.62,0,0,1,8-.31c8.69,3.93,15.41,3.32,20.54-1.87,2-2,2.78-5.26,3.71-9,1.53-6.25,3.44-14,12.22-18.18,6.64-3.13,13.35-1.44,18.75-.07,7.14,1.8,10.11,2.14,13-1.47s3.22-8.87,3.54-14.84c.45-8.5,1-19.08,10.76-27.37,12.11-10.28,28.69-9.36,45.5,2.54a2.38,2.38,0,0,0,.37.23c1-.63,4.85-4.67,9.44-30.7,2.31-13.08,10.58-31.41,26.27-40,10.8-5.91,23.42-6.15,36.5-.71,21.33,8.89,32.88,30,44.73,54.54q1.35,2.8,2.7,5.64c1,2.09,2,4.18,3,6.28,5.31,11,14.16,23.5,26.17,20.67a93.56,93.56,0,0,0,10.38-3.34c13.1-4.81,28-10.24,40.52,13.9,14,26.93,15.13,70.55,15.17,72.39Zm-352.9-8.74h343.86c-.66-11.71-3.41-43.76-14-64.09-9-17.32-16.82-14.46-29.76-9.73a99.52,99.52,0,0,1-11.37,3.65c-9.75,2.3-23.91-.24-36.05-25.38-1-2.1-2-4.21-3-6.31-.89-1.88-1.79-3.76-2.69-5.62h0c-11.06-22.94-21.72-42.55-40.21-50.26-10.69-4.45-20.43-4.35-28.94.31-13,7.1-19.89,22.67-21.86,33.85-4.28,24.23-8.45,34.7-14.87,37.34a8.78,8.78,0,0,1-8.6-1.25c-7.81-5.53-22.71-13.27-34.79-3-6.88,5.84-7.27,13.29-7.69,21.16-.36,6.84-.73,13.91-5.42,19.82-6.66,8.37-15.15,6.23-22,4.5-4.66-1.18-9.07-2.29-12.87-.49-4.77,2.25-5.94,6.16-7.46,12.36-1.08,4.39-2.3,9.37-6,13.1-5.43,5.49-15.11,10.59-30.37,3.68l-.12,0C2312.7,1092.73,2310.2,1100,2308.85,1108.18Z" fill="#000000" class="color000 svgShape"/><path fill="#ffffff" d="M2995.1,584.3c-9.52-13-19.27-25-36.62-29.78-28.7-7.88-45.58,8.67-49,21.28s-7.59,22.06-14.35,18.91-21.94-8.67-34.61-1.58-4.22,17.34-11.81,23.64-18.57-1.57-28.7,1.58-6.75,11-12.66,15-13.54,4.09-21.95,1.58-11,14.72-11,14.72h304.72s-.85-25.75-12.67-40.73-24.47-7.09-39.67-4.72c-11.59,1.8-20.59-4.58-26.82-13.09C2998.37,588.81,2996.73,586.54,2995.1,584.3Z" class="colorfff svgShape"/><path d="M3079,658.63H2764.68l.78-5c.32-2.06,2.23-12.56,8.45-16.49A9.59,9.59,0,0,1,2782,636c7.67,2.29,13.82,2,18.28-1,1.2-.81,1.68-2,2.5-4.18,1.31-3.52,3.29-8.84,11.28-11.33,5.5-1.71,10.89-.81,15.65,0,5.5.92,9,1.37,11.56-.75,1.8-1.49,2-3.27,2.3-6.83.41-5.11,1-12.1,10.17-17.26,14.06-7.87,30.21-2.48,38.6,1.43.61.29.81.2.95.13,1-.48,3.79-3,7.32-16.21,2.23-8.3,8.6-16.15,17.06-21,7.32-4.19,19.73-8.18,37.28-3.36,18.51,5.08,29,17.76,39,31.41l2.33,3.21,2.6,3.57c4.46,6.09,12,13,22.62,11.35,3.06-.48,6.09-1.21,9-1.92,11.11-2.68,23.71-5.72,34.75,8.26,12.56,15.91,13.56,41.53,13.6,42.61Zm-303.62-8.74h294.36c-.84-7.57-3.45-23-11.35-33-7.57-9.58-14.84-7.83-25.84-5.17-3.11.75-6.32,1.53-9.73,2.06-11.67,1.81-22.69-3.45-31-14.82l-2.63-3.61-2.31-3.18h0c-9.38-12.83-18.43-23.8-34.24-28.14-14.66-4-24.74-.85-30.62,2.52-7.63,4.37-11.7,11-13,15.67-3.49,13-7.1,19.55-12.08,21.88a9.58,9.58,0,0,1-8.34-.14c-5.53-2.58-19.58-7.91-30.62-1.72-5.14,2.88-5.38,5.84-5.74,10.33-.32,4-.71,8.95-5.43,12.86-5.76,4.78-12.57,3.64-18.57,2.64-4.17-.69-8.11-1.35-11.62-.25-3.89,1.21-4.53,2.92-5.69,6-1,2.67-2.22,6-5.84,8.4-6.72,4.48-15.35,5.2-25.63,2.13a.92.92,0,0,0-.92.09C2777.38,645.24,2776.25,647.46,2775.4,649.89Z" fill="#000000" class="color000 svgShape"/><path fill="#ffffff" d="M1491.5,2518.94h208.71a38.5,38.5,0,0,1,38.5,38.5v25.34a39.37,39.37,0,0,1-39.37,39.37H1491.5a0,0,0,0,1,0,0V2518.94a0,0,0,0,1,0,0Z" class="colorfff svgShape"/><path d="M1699.33,2626.43H1487.22V2514.66h213a42.83,42.83,0,0,1,42.78,42.78v25.33A43.71,43.71,0,0,1,1699.33,2626.43Zm-203.55-8.57h203.55a35.13,35.13,0,0,0,35.09-35.09v-25.33a34.26,34.26,0,0,0-34.21-34.22H1495.78Z" fill="#000000" class="color000 svgShape"/><path fill="#3d5891" d="M1923.08,2561.4v15.53a57.45,57.45,0,0,1-4.54,22.74c-5.79,13.44-16.56,22.47-28.89,22.47H1484.88c-2.68,0-4.85-2.93-4.85-6.55v-2.32c0-3.62,2.17-6.56,4.85-6.56H1724.7a11.12,11.12,0,0,0,10.36-7l0-.08a54.16,54.16,0,0,0,3.61-19.73V2560.2a54.36,54.36,0,0,0-1-10.5l0-.17a18.93,18.93,0,0,0-18.61-15.16H1484.88c-2.68,0-4.85-2.93-4.85-6.56v-2.31c0-3.63,2.17-6.56,4.85-6.56h406.81c14.33,0,26.42,13,30.18,30.76A56.33,56.33,0,0,1,1923.08,2561.4Z" class="color3d5891 svgShape"/><path d="M1889.65,2626.43H1484.88c-5.12,0-9.13-4.76-9.13-10.84v-2.32c0-6.08,4-10.84,9.13-10.84H1724.7a6.85,6.85,0,0,0,6.37-4.25,50.32,50.32,0,0,0,3.35-18.24V2560.2a50.75,50.75,0,0,0-.92-9.68l0-.14a14.67,14.67,0,0,0-14.42-11.72H1484.88c-5.12,0-9.13-4.77-9.13-10.85v-2.31c0-6.08,4-10.85,9.13-10.85h406.81c16,0,30.12,14,34.37,34.16a61.12,61.12,0,0,1,1.3,12.59v15.53a62,62,0,0,1-4.89,24.44C1915.82,2616.82,1903.24,2626.43,1889.65,2626.43Zm-404.6-8.57h404.6c10.11,0,19.68-7.62,25-19.88a53.47,53.47,0,0,0,4.19-21.05V2561.4a52.24,52.24,0,0,0-1.12-10.81c-3.41-16.12-14.09-27.37-26-27.37H1485.05a3.28,3.28,0,0,0-.74,2.28v2.31a3.28,3.28,0,0,0,.74,2.28h234a23.24,23.24,0,0,1,22.81,18.61l0,.2a59.39,59.39,0,0,1,1.08,11.3v19.74a58.9,58.9,0,0,1-3.92,21.3,15.5,15.5,0,0,1-14.37,9.75H1485.05a3.32,3.32,0,0,0-.74,2.28v2.32A3.27,3.27,0,0,0,1485.05,2617.86Z" fill="#000000" class="color000 svgShape"/><polygon fill="#d9d9d9" points="1491.5 2570.54 1521.47 2572.28 1491.5 2573.32 1491.5 2570.54" class="colord9d9d9 svgShape"/><polygon points="1487.22 2577.76 1487.22 2566.01 1521.72 2568 1521.62 2576.55 1487.22 2577.76" fill="#000000" class="color000 svgShape"/><polygon fill="#d9d9d9" points="1491.5 2586.74 1562.8 2588.47 1491.5 2589.51 1491.5 2586.74" class="colord9d9d9 svgShape"/><polygon points="1487.22 2593.86 1487.22 2582.35 1562.91 2584.19 1562.86 2592.75 1487.22 2593.86" fill="#000000" class="color000 svgShape"/><path fill="#ffffff" d="M1518.55,2349H1691a32.16,32.16,0,0,1,32.16,32.16v21.94A32.88,32.88,0,0,1,1690.3,2436H1518.55a0,0,0,0,1,0,0v-87A0,0,0,0,1,1518.55,2349Z" class="colorfff svgShape"/><path d="M1690.3,2440.23h-176v-95.54H1691a36.48,36.48,0,0,1,36.44,36.44v21.94A37.2,37.2,0,0,1,1690.3,2440.23Zm-167.47-8.56H1690.3a28.63,28.63,0,0,0,28.6-28.6v-21.94a27.91,27.91,0,0,0-27.88-27.87H1522.83Z" fill="#000000" class="color000 svgShape"/><path fill="#99b1da" d="M1875.8,2384.76v13.09a49.18,49.18,0,0,1-3.75,19.16c-4.8,11.33-13.71,18.94-23.92,18.94H1513.07c-2.22,0-4-2.47-4-5.52v-2c0-3,1.8-5.52,4-5.52h204.25a38.82,38.82,0,0,0,2.86-5.94,46.2,46.2,0,0,0,3-16.63v-16.63a47.12,47.12,0,0,0-.83-8.85,41,41,0,0,0-4.73-12.92H1513.07c-2.22,0-4-2.47-4-5.52v-2c0-3.05,1.8-5.53,4-5.53h336.75c11.86,0,21.87,11,25,25.93A48.55,48.55,0,0,1,1875.8,2384.76Z" class="color99b1da svgShape"/><path d="M1848.13,2440.23H1513.07c-4.66,0-8.3-4.3-8.3-9.8v-2c0-5.5,3.64-9.81,8.3-9.81h201.71a33.69,33.69,0,0,0,1.41-3.18,42.46,42.46,0,0,0,2.71-15.1v-16.63a43.67,43.67,0,0,0-.75-8.05,37.16,37.16,0,0,0-3.1-9.43h-202c-4.66,0-8.3-4.31-8.3-9.81v-2c0-5.5,3.64-9.81,8.3-9.81h336.75c13.59,0,25.59,12.07,29.17,29.34a52.92,52.92,0,0,1,1.09,10.73v13.09a53.7,53.7,0,0,1-4.09,20.83C1870.36,2432,1859.69,2440.23,1848.13,2440.23Zm-334.53-8.56h334.53c8.06,0,15.71-6.26,20-16.33a45,45,0,0,0,3.42-17.49v-13.09a44.51,44.51,0,0,0-.91-9c-2.75-13.26-11.3-22.52-20.79-22.52H1513.6a2.76,2.76,0,0,0-.27,1.25v2a2.71,2.71,0,0,0,.27,1.24h206.47l1.24,2.13a44.77,44.77,0,0,1,5.25,14.27,51.25,51.25,0,0,1,.9,9.65v16.63a50.94,50.94,0,0,1-3.28,18.17,43.12,43.12,0,0,1-3.18,6.59l-1.25,2.09H1513.6a2.67,2.67,0,0,0-.27,1.24v2A2.71,2.71,0,0,0,1513.6,2431.67Z" fill="#000000" class="color000 svgShape"/><polygon fill="#d9d9d9" points="1518.55 2392.46 1543.36 2393.93 1518.55 2394.81 1518.55 2392.46" class="colord9d9d9 svgShape"/><polygon points="1514.27 2399.24 1514.27 2387.92 1543.61 2389.65 1543.51 2398.2 1514.27 2399.24" fill="#000000" class="color000 svgShape"/><polygon fill="#d9d9d9" points="1518.55 2406.11 1577.57 2407.57 1518.55 2408.45 1518.55 2406.11" class="colord9d9d9 svgShape"/><polygon points="1514.27 2412.8 1514.27 2401.72 1577.67 2403.29 1577.63 2411.85 1514.27 2412.8" fill="#000000" class="color000 svgShape"/><path fill="#2f4171" d="M1506.47,2622h239.17a34.89,34.89,0,0,1,34.89,34.89v0a32.76,32.76,0,0,1-32.76,32.76h-241.3a0,0,0,0,1,0,0V2622A0,0,0,0,1,1506.47,2622Z" transform="rotate(180 1643.5 2655.79)" class="color2f4171 svgShape"/><path d="M1784.81,2693.9H1541.36a39.21,39.21,0,0,1-39.17-39.17,37.09,37.09,0,0,1,37-37.05h245.57Zm-245.57-67.66a28.52,28.52,0,0,0-28.49,28.49,30.66,30.66,0,0,0,30.61,30.61h234.89v-59.1Z" fill="#000000" class="color000 svgShape"/><path fill="#ffffff" d="M1735.22,2622h272.49a34.21,34.21,0,0,1,34.21,34.21v0a33.45,33.45,0,0,1-33.45,33.45H1735.22a0,0,0,0,1,0,0V2622A0,0,0,0,1,1735.22,2622Z" transform="rotate(180 1888.565 2655.79)" class="colorfff svgShape"/><path d="M2046.2,2693.9H1769.42a38.54,38.54,0,0,1-38.49-38.49,37.78,37.78,0,0,1,37.73-37.73H2046.2Zm-277.54-67.66a29.2,29.2,0,0,0-29.16,29.17,30,30,0,0,0,29.92,29.93h268.22v-59.1Z" fill="#000000" class="color000 svgShape"/><polygon fill="#d9d9d9" points="2041.92 2655.79 2004.73 2656.93 2041.92 2657.61 2041.92 2655.79" class="colord9d9d9 svgShape"/><polygon points="2046.2 2661.97 2004.65 2661.21 2004.6 2652.65 2046.2 2651.38 2046.2 2661.97" fill="#000000" class="color000 svgShape"/><polygon fill="#d9d9d9" points="2041.92 2640.22 1953.46 2641.36 2041.92 2642.04 2041.92 2640.22" class="colord9d9d9 svgShape"/><polygon points="2046.2 2646.36 1953.42 2645.64 1953.4 2637.08 2046.2 2635.88 2046.2 2646.36" fill="#000000" class="color000 svgShape"/><path fill="#ffffff" d="M1660,2436H1928.2a39.38,39.38,0,0,1,39.38,39.38v5.1a38.51,38.51,0,0,1-38.51,38.51H1660a0,0,0,0,1,0,0v-83A0,0,0,0,1,1660,2436Z" transform="rotate(-180 1813.79 2477.445)" class="colorfff svgShape"/><path d="M1971.86,2523.22H1699.39a43.72,43.72,0,0,1-43.67-43.66v-5.1a42.84,42.84,0,0,1,42.79-42.79h273.35Zm-273.35-83a34.27,34.27,0,0,0-34.22,34.23v5.1a35.13,35.13,0,0,0,35.1,35.09H1963.3v-74.42Z" fill="#000000" class="color000 svgShape"/><path fill="#5681bf" d="M1659.85,2468.15V2486a17.5,17.5,0,0,0,1.89,7.73,22.59,22.59,0,0,0,10.67,10.06,29,29,0,0,0,12.38,2.72h290.88c3.41,0,6.17,2.31,6.17,5.15v2.11c0,2.85-2.76,5.16-6.17,5.16h-502.5c-14.42,0-27.16-6-34.86-15.14a31.54,31.54,0,0,1-7.7-20.4v-14.08a28.66,28.66,0,0,1,4-14.51c6.46-11.16,20.15-18.86,36-18.86h505.1c3.41,0,6.17,2.3,6.17,5.15v2.11c0,2.85-2.76,5.15-6.17,5.15H1683.9a26.48,26.48,0,0,0-17.69,6.45,19.81,19.81,0,0,0-4.55,5.9A17.08,17.08,0,0,0,1659.85,2468.15Z" class="color5681bf svgShape"/><path d="M1975.67,2523.22h-502.5c-15.11,0-29.36-6.23-38.14-16.67a35.69,35.69,0,0,1-8.7-23.15v-14.08a32.78,32.78,0,0,1,4.55-16.66c7.49-12.95,22.7-21,39.69-21h505.1c5.77,0,10.46,4.23,10.46,9.43v2.11c0,5.2-4.69,9.43-10.46,9.43H1683.9a22.34,22.34,0,0,0-14.83,5.35,15.57,15.57,0,0,0-3.58,4.64,12.6,12.6,0,0,0-1.35,5.54V2486a13,13,0,0,0,1.43,5.82,18.37,18.37,0,0,0,8.68,8.1,24.73,24.73,0,0,0,10.54,2.31h290.88c5.77,0,10.46,4.23,10.46,9.43v2.11C1986.13,2519,1981.44,2523.22,1975.67,2523.22Zm-505.1-83c-13.73,0-26.41,6.57-32.28,16.72a24.3,24.3,0,0,0-3.4,12.37v14.08a27.25,27.25,0,0,0,6.7,17.64c7.17,8.52,19,13.61,31.58,13.61h502.5c1.2,0,1.89-.66,1.89-.87v-2.11c0-.21-.69-.87-1.89-.87H1684.79a33.43,33.43,0,0,1-14.22-3.13,27.05,27.05,0,0,1-12.66-12,21.76,21.76,0,0,1-2.34-9.61v-17.94a21.27,21.27,0,0,1,2.25-9.3,24.36,24.36,0,0,1,5.52-7.19,31,31,0,0,1,20.56-7.54h291.77c1.2,0,1.89-.66,1.89-.87v-2.11a2,2,0,0,0-1.89-.87Z" fill="#000000" class="color000 svgShape"/><polygon fill="#d9d9d9" points="1967.58 2477.44 1930.29 2478.84 1967.58 2479.68 1967.58 2477.44" class="colord9d9d9 svgShape"/><polygon points="1971.86 2484.06 1930.19 2483.12 1930.13 2474.56 1971.86 2473 1971.86 2484.06" fill="#000000" class="color000 svgShape"/><polygon fill="#d9d9d9" points="1967.58 2458.34 1878.86 2459.74 1967.58 2460.58 1967.58 2458.34" class="colord9d9d9 svgShape"/><polygon points="1971.86 2464.9 1878.82 2464.02 1878.8 2455.46 1971.86 2454 1971.86 2464.9" fill="#000000" class="color000 svgShape"/><path fill="#f5b0a6" d="M1801.72,917.34c-3.08-9.5,2.13-30.19-3-62s-86.26-19.64-86.26-19.64L1603,877.48l1.51,79.89-26.29,80.53.27.24-5.11,9.65a.31.31,0,0,1-.1.2c-.89,2.18-7.54,19.45,7.64,43.86,13.49,21.53,82.57,100.14,107.88,94.38,9.82-2.28,11.31-19.55,9.62-38.31-1.58-17.86-19.27-59-22.35-67.57l23.18-66.4-22.13-9.81s57.07,23.22,78.42,21.69,32.59-59.64,33.73-63.13,16.69-3.83,25.49-7.13S1804.8,926.84,1801.72,917.34Z" class="colorf5b0a6 svgShape"/><path d="M1686.06,1190.61c-12.77,0-32.41-12.89-58.51-38.41-21.78-21.29-43-46.77-50.12-58.18-15.1-24.28-9.9-42.48-8.16-47.06v-.19l.3-.58.22-.52.13-.13,3.86-7.29,26.6-81.49-1.55-82.08,112.63-42.93.44-.07a245.28,245.28,0,0,1,42-2.14c30,1.35,46.44,9.82,48.9,25.18,3,18.6,2.5,33.56,2.15,44.47-.25,7.55-.44,13.51.66,16.89.83,2.57,3.23,6.95,5.78,11.58,7,12.69,11.38,21.44,9.21,27.32a7.37,7.37,0,0,1-4.43,4.42c-4.07,1.53-9.29,2.45-13.9,3.26-3.11.55-7.64,1.34-9.34,2.09-.13.5-.28,1.16-.44,1.81-9.86,41.57-21.86,62.29-36.68,63.36-12.37.88-35.37-5.84-53.61-12.08l-21.81,62.47c.63,1.64,1.55,4,2.65,6.72,6.32,15.9,18.1,45.52,19.43,60.53,2.32,25.8-2,40.15-12.78,42.66A16.38,16.38,0,0,1,1686.06,1190.61Zm-109.13-140.77c-1.35,3.5-5.8,18.55,7.45,39.84,6.89,11,27.54,35.8,48.89,56.67,25.11,24.54,45.52,38,54.6,35.89,5.83-1.36,8.25-14,6.46-34-1.23-13.83-13.16-43.82-18.89-58.24-1.47-3.69-2.63-6.6-3.24-8.31l-.5-1.36,22.42-64.22-18.68-8.28,3.2-7.53c.56.22,56.43,22.85,76.59,21.4,6-.43,17.76-8.42,29.31-57.08.45-1.92.64-2.72.81-3.24,1.42-4.36,7-5.34,15.51-6.83a81.88,81.88,0,0,0,12.14-2.75c.52-3.33-5.73-14.7-8.78-20.25-2.85-5.2-5.32-9.68-6.39-13-1.54-4.74-1.34-11-1.06-19.68.34-10.59.81-25.09-2-42.91-3.62-22.61-59.4-19.49-81.18-16.31l-106.42,40.57L1608.6,958l-25.68,78.65.66.59-6.45,12.19A4.09,4.09,0,0,1,1576.93,1049.84Z" fill="#000000" class="color000 svgShape"/><path d="M1775.53 907.75c-1.19 3.65-3.89 6-6 5.34s-2.92-4.23-1.73-7.88 3.9-6 6-5.33S1776.72 904.1 1775.53 907.75zM1765.53 985.4c-10-1.18-17.33-5.25-21.75-12.1-8.23-12.75-2.84-30.23-2.6-31l7.8 2.47-3.9-1.24 3.91 1.23c0 .15-4.46 14.62 1.68 24.1 3 4.68 8.36 7.5 15.82 8.38zM1800.35 868.18s-62.8-22.37-73.8-22.92-26.26 50.08-31.51 68.27c0 0-19.62-6.68-37 32.92l-8.33-7.68s12.5-36.44-8.71-42.57-29.67 21.08-30.8 29.44 1.82 43.61 1.82 43.61-49.93-24.92-18.18-128 135.66-66.35 189-44 25.6 16.4 25.6 16.4l18.83 22.69 2.69 6.53 10.76 15.88-5.27 12.53z" fill="#000000" class="color000 svgShape"/><path d="M1757.78 892.18l-4.56-3.16c9.88-14.22 28.32-9.24 29.1-9l-1.5 5.34C1780.2 885.17 1765.38 881.23 1757.78 892.18zM1694.71 1375.74l-8-1.72 24.68-115 2-25.46c2-25-5.74-84.43-5.82-85l8.12-1.06c.33 2.47 7.92 60.88 5.87 86.74l-2.12 26.26z" fill="#000000" class="color000 svgShape"/><rect width="8.19" height="372.63" x="1636.99" y="1123.81" transform="rotate(-22.25 1641.504 1310.332)" fill="#000000" class="color000 svgShape"/><polygon points="1543.48 1566.73 1434.97 1350.92 1442.29 1347.24 1547.75 1556.99 1573.17 1549.69 1575.43 1557.56 1543.48 1566.73" fill="#000000" class="color000 svgShape"/><path d="M1457.18,1814.26l-6.73-4.66c33.56-48.47,86.66-81.27,125.3-100.25,41.75-20.51,76.15-29.78,76.49-29.87l2.11,7.91c-.34.09-34.1,9.2-75.15,29.39C1541.49,1735.32,1489.7,1767.29,1457.18,1814.26Z" fill="#000000" class="color000 svgShape"/></g></svg>